<ttFont>
<head>
    <!-- Most of this table will be recalculated by the compiler -->
    <tableVersion value="1.0"/>
    <fontRevision value="5.0"/>
    <checkSumAdjustment value="0xbf1f547e"/>
    <magicNumber value="0x5f0f3cf5"/>
    <flags value="00000000 00001011"/>
    <unitsPerEm value="2048"/>
    <created value="Sun May 15 08:57:39 2005"/>
    <modified value="Fri Apr 15 06:03:09 2011"/>
    <xMin value="-145"/>
    <yMin value="-1122"/>
    <xMax value="5687"/>
    <yMax value="2199"/>
    <macStyle value="00000000 00000000"/>
    <lowestRecPPEM value="8"/>
    <fontDirectionHint value="2"/>
    <indexToLocFormat value="1"/>
    <glyphDataFormat value="0"/>
  </head>
    <TTGlyph name=".notdef" xMin="142" yMin="226" xMax="842" yMax="1588">
      <contour>
        <pt x="142" y="226" on="1"/>
        <pt x="142" y="1588" on="1"/>
        <pt x="842" y="1588" on="1"/>
        <pt x="842" y="226" on="1"/>
      </contour>
      <contour>
        <pt x="284" y="368" on="1"/>
        <pt x="700" y="368" on="1"/>
        <pt x="700" y="1447" on="1"/>
        <pt x="284" y="1447" on="1"/>
      </contour>
    </TTGlyph>
    <TTGlyph name=".null" xMin="142" yMin="226" xMax="842" yMax="1588">
      <contour>
        <pt x="142" y="226" on="1"/>
        <pt x="142" y="1588" on="1"/>
        <pt x="842" y="1588" on="1"/>
        <pt x="842" y="226" on="1"/>
      </contour>
      <contour>
        <pt x="284" y="368" on="1"/>
        <pt x="700" y="368" on="1"/>
        <pt x="700" y="1447" on="1"/>
        <pt x="284" y="1447" on="1"/>
      </contour>
    </TTGlyph>
    <TTGlyph name="afii57381" xMin="142" yMin="226" xMax="842" yMax="1588">
      <contour>
        <pt x="142" y="226" on="1"/>
        <pt x="142" y="1588" on="1"/>
        <pt x="842" y="1588" on="1"/>
        <pt x="842" y="226" on="1"/>
      </contour>
      <contour>
        <pt x="284" y="368" on="1"/>
        <pt x="700" y="368" on="1"/>
        <pt x="700" y="1447" on="1"/>
        <pt x="284" y="1447" on="1"/>
      </contour>
    </TTGlyph>
    <TTGlyph name="afii57388" xMin="142" yMin="226" xMax="842" yMax="1588">
      <contour>
        <pt x="142" y="226" on="1"/>
        <pt x="142" y="1588" on="1"/>
        <pt x="842" y="1588" on="1"/>
        <pt x="842" y="226" on="1"/>
      </contour>
      <contour>
        <pt x="284" y="368" on="1"/>
        <pt x="700" y="368" on="1"/>
        <pt x="700" y="1447" on="1"/>
        <pt x="284" y="1447" on="1"/>
      </contour>
    </TTGlyph>
    <TTGlyph name="afii57396" xMin="142" yMin="226" xMax="842" yMax="1588">
      <contour>
        <pt x="142" y="226" on="1"/>
        <pt x="142" y="1588" on="1"/>
        <pt x="842" y="1588" on="1"/>
        <pt x="842" y="226" on="1"/>
      </contour>
      <contour>
        <pt x="284" y="368" on="1"/>
        <pt x="700" y="368" on="1"/>
        <pt x="700" y="1447" on="1"/>
        <pt x="284" y="1447" on="1"/>
      </contour>
    </TTGlyph>
    <TTGlyph name="afii57397" xMin="142" yMin="226" xMax="842" yMax="1588">
      <contour>
        <pt x="142" y="226" on="1"/>
        <pt x="142" y="1588" on="1"/>
        <pt x="842" y="1588" on="1"/>
        <pt x="842" y="226" on="1"/>
      </contour>
      <contour>
        <pt x="284" y="368" on="1"/>
        <pt x="700" y="368" on="1"/>
        <pt x="700" y="1447" on="1"/>
        <pt x="284" y="1447" on="1"/>
      </contour>
    </TTGlyph>
    <TTGlyph name="afii57398" xMin="142" yMin="226" xMax="842" yMax="1588">
      <contour>
        <pt x="142" y="226" on="1"/>
        <pt x="142" y="1588" on="1"/>
        <pt x="842" y="1588" on="1"/>
        <pt x="842" y="226" on="1"/>
      </contour>
      <contour>
        <pt x="284" y="368" on="1"/>
        <pt x="700" y="368" on="1"/>
        <pt x="700" y="1447" on="1"/>
        <pt x="284" y="1447" on="1"/>
      </contour>
    </TTGlyph>
    <TTGlyph name="afii57403" xMin="142" yMin="226" xMax="842" yMax="1588">
      <contour>
        <pt x="142" y="226" on="1"/>
        <pt x="142" y="1588" on="1"/>
        <pt x="842" y="1588" on="1"/>
        <pt x="842" y="226" on="1"/>
      </contour>
      <contour>
        <pt x="284" y="368" on="1"/>
        <pt x="700" y="368" on="1"/>
        <pt x="700" y="1447" on="1"/>
        <pt x="284" y="1447" on="1"/>
      </contour>
    </TTGlyph>
    <TTGlyph name="afii57407" xMin="142" yMin="226" xMax="842" yMax="1588">
      <contour>
        <pt x="142" y="226" on="1"/>
        <pt x="142" y="1588" on="1"/>
        <pt x="842" y="1588" on="1"/>
        <pt x="842" y="226" on="1"/>
      </contour>
      <contour>
        <pt x="284" y="368" on="1"/>
        <pt x="700" y="368" on="1"/>
        <pt x="700" y="1447" on="1"/>
        <pt x="284" y="1447" on="1"/>
      </contour>
    </TTGlyph>
    <TTGlyph name="afii57440" xMin="142" yMin="226" xMax="842" yMax="1588">
      <contour>
        <pt x="142" y="226" on="1"/>
        <pt x="142" y="1588" on="1"/>
        <pt x="842" y="1588" on="1"/>
        <pt x="842" y="226" on="1"/>
      </contour>
      <contour>
        <pt x="284" y="368" on="1"/>
        <pt x="700" y="368" on="1"/>
        <pt x="700" y="1447" on="1"/>
        <pt x="284" y="1447" on="1"/>
      </contour>
    </TTGlyph>
    <TTGlyph name="afii57451" xMin="142" yMin="226" xMax="842" yMax="1588">
      <contour>
        <pt x="142" y="226" on="1"/>
        <pt x="142" y="1588" on="1"/>
        <pt x="842" y="1588" on="1"/>
        <pt x="842" y="226" on="1"/>
      </contour>
      <contour>
        <pt x="284" y="368" on="1"/>
        <pt x="700" y="368" on="1"/>
        <pt x="700" y="1447" on="1"/>
        <pt x="284" y="1447" on="1"/>
      </contour>
    </TTGlyph>
    <TTGlyph name="afii57452" xMin="142" yMin="226" xMax="842" yMax="1588">
      <contour>
        <pt x="142" y="226" on="1"/>
        <pt x="142" y="1588" on="1"/>
        <pt x="842" y="1588" on="1"/>
        <pt x="842" y="226" on="1"/>
      </contour>
      <contour>
        <pt x="284" y="368" on="1"/>
        <pt x="700" y="368" on="1"/>
        <pt x="700" y="1447" on="1"/>
        <pt x="284" y="1447" on="1"/>
      </contour>
    </TTGlyph>
    <TTGlyph name="afii57453" xMin="142" yMin="226" xMax="842" yMax="1588">
      <contour>
        <pt x="142" y="226" on="1"/>
        <pt x="142" y="1588" on="1"/>
        <pt x="842" y="1588" on="1"/>
        <pt x="842" y="226" on="1"/>
      </contour>
      <contour>
        <pt x="284" y="368" on="1"/>
        <pt x="700" y="368" on="1"/>
        <pt x="700" y="1447" on="1"/>
        <pt x="284" y="1447" on="1"/>
      </contour>
    </TTGlyph>
    <TTGlyph name="afii57454" xMin="142" yMin="226" xMax="842" yMax="1588">
      <contour>
        <pt x="142" y="226" on="1"/>
        <pt x="142" y="1588" on="1"/>
        <pt x="842" y="1588" on="1"/>
        <pt x="842" y="226" on="1"/>
      </contour>
      <contour>
        <pt x="284" y="368" on="1"/>
        <pt x="700" y="368" on="1"/>
        <pt x="700" y="1447" on="1"/>
        <pt x="284" y="1447" on="1"/>
      </contour>
    </TTGlyph>
    <TTGlyph name="afii57455" xMin="142" yMin="226" xMax="842" yMax="1588">
      <contour>
        <pt x="142" y="226" on="1"/>
        <pt x="142" y="1588" on="1"/>
        <pt x="842" y="1588" on="1"/>
        <pt x="842" y="226" on="1"/>
      </contour>
      <contour>
        <pt x="284" y="368" on="1"/>
        <pt x="700" y="368" on="1"/>
        <pt x="700" y="1447" on="1"/>
        <pt x="284" y="1447" on="1"/>
      </contour>
    </TTGlyph>
    <TTGlyph name="afii57456" xMin="142" yMin="226" xMax="842" yMax="1588">
      <contour>
        <pt x="142" y="226" on="1"/>
        <pt x="142" y="1588" on="1"/>
        <pt x="842" y="1588" on="1"/>
        <pt x="842" y="226" on="1"/>
      </contour>
      <contour>
        <pt x="284" y="368" on="1"/>
        <pt x="700" y="368" on="1"/>
        <pt x="700" y="1447" on="1"/>
        <pt x="284" y="1447" on="1"/>
      </contour>
    </TTGlyph>
    <TTGlyph name="afii57457" xMin="142" yMin="226" xMax="842" yMax="1588">
      <contour>
        <pt x="142" y="226" on="1"/>
        <pt x="142" y="1588" on="1"/>
        <pt x="842" y="1588" on="1"/>
        <pt x="842" y="226" on="1"/>
      </contour>
      <contour>
        <pt x="284" y="368" on="1"/>
        <pt x="700" y="368" on="1"/>
        <pt x="700" y="1447" on="1"/>
        <pt x="284" y="1447" on="1"/>
      </contour>
    </TTGlyph>
    <TTGlyph name="afii57458" xMin="142" yMin="226" xMax="842" yMax="1588">
      <contour>
        <pt x="142" y="226" on="1"/>
        <pt x="142" y="1588" on="1"/>
        <pt x="842" y="1588" on="1"/>
        <pt x="842" y="226" on="1"/>
      </contour>
      <contour>
        <pt x="284" y="368" on="1"/>
        <pt x="700" y="368" on="1"/>
        <pt x="700" y="1447" on="1"/>
        <pt x="284" y="1447" on="1"/>
      </contour>
    </TTGlyph>
    <TTGlyph name="afii57505" xMin="142" yMin="226" xMax="842" yMax="1588">
      <contour>
        <pt x="142" y="226" on="1"/>
        <pt x="142" y="1588" on="1"/>
        <pt x="842" y="1588" on="1"/>
        <pt x="842" y="226" on="1"/>
      </contour>
      <contour>
        <pt x="284" y="368" on="1"/>
        <pt x="700" y="368" on="1"/>
        <pt x="700" y="1447" on="1"/>
        <pt x="284" y="1447" on="1"/>
      </contour>
    </TTGlyph>
    <TTGlyph name="afii57506" xMin="142" yMin="226" xMax="842" yMax="1588">
      <contour>
        <pt x="142" y="226" on="1"/>
        <pt x="142" y="1588" on="1"/>
        <pt x="842" y="1588" on="1"/>
        <pt x="842" y="226" on="1"/>
      </contour>
      <contour>
        <pt x="284" y="368" on="1"/>
        <pt x="700" y="368" on="1"/>
        <pt x="700" y="1447" on="1"/>
        <pt x="284" y="1447" on="1"/>
      </contour>
    </TTGlyph>
    <TTGlyph name="afii57507" xMin="142" yMin="226" xMax="842" yMax="1588">
      <contour>
        <pt x="142" y="226" on="1"/>
        <pt x="142" y="1588" on="1"/>
        <pt x="842" y="1588" on="1"/>
        <pt x="842" y="226" on="1"/>
      </contour>
      <contour>
        <pt x="284" y="368" on="1"/>
        <pt x="700" y="368" on="1"/>
        <pt x="700" y="1447" on="1"/>
        <pt x="284" y="1447" on="1"/>
      </contour>
    </TTGlyph>
    <TTGlyph name="afii57508" xMin="142" yMin="226" xMax="842" yMax="1588">
      <contour>
        <pt x="142" y="226" on="1"/>
        <pt x="142" y="1588" on="1"/>
        <pt x="842" y="1588" on="1"/>
        <pt x="842" y="226" on="1"/>
      </contour>
      <contour>
        <pt x="284" y="368" on="1"/>
        <pt x="700" y="368" on="1"/>
        <pt x="700" y="1447" on="1"/>
        <pt x="284" y="1447" on="1"/>
      </contour>
    </TTGlyph>
    <TTGlyph name="afii57509" xMin="142" yMin="226" xMax="842" yMax="1588">
      <contour>
        <pt x="142" y="226" on="1"/>
        <pt x="142" y="1588" on="1"/>
        <pt x="842" y="1588" on="1"/>
        <pt x="842" y="226" on="1"/>
      </contour>
      <contour>
        <pt x="284" y="368" on="1"/>
        <pt x="700" y="368" on="1"/>
        <pt x="700" y="1447" on="1"/>
        <pt x="284" y="1447" on="1"/>
      </contour>
    </TTGlyph>
    <TTGlyph name="afii57511" xMin="142" yMin="226" xMax="842" yMax="1588">
      <contour>
        <pt x="142" y="226" on="1"/>
        <pt x="142" y="1588" on="1"/>
        <pt x="842" y="1588" on="1"/>
        <pt x="842" y="226" on="1"/>
      </contour>
      <contour>
        <pt x="284" y="368" on="1"/>
        <pt x="700" y="368" on="1"/>
        <pt x="700" y="1447" on="1"/>
        <pt x="284" y="1447" on="1"/>
      </contour>
    </TTGlyph>
    <TTGlyph name="afii57512" xMin="142" yMin="226" xMax="842" yMax="1588">
      <contour>
        <pt x="142" y="226" on="1"/>
        <pt x="142" y="1588" on="1"/>
        <pt x="842" y="1588" on="1"/>
        <pt x="842" y="226" on="1"/>
      </contour>
      <contour>
        <pt x="284" y="368" on="1"/>
        <pt x="700" y="368" on="1"/>
        <pt x="700" y="1447" on="1"/>
        <pt x="284" y="1447" on="1"/>
      </contour>
    </TTGlyph>
    <TTGlyph name="afii57513" xMin="142" yMin="226" xMax="842" yMax="1588">
      <contour>
        <pt x="142" y="226" on="1"/>
        <pt x="142" y="1588" on="1"/>
        <pt x="842" y="1588" on="1"/>
        <pt x="842" y="226" on="1"/>
      </contour>
      <contour>
        <pt x="284" y="368" on="1"/>
        <pt x="700" y="368" on="1"/>
        <pt x="700" y="1447" on="1"/>
        <pt x="284" y="1447" on="1"/>
      </contour>
    </TTGlyph>
    <TTGlyph name="afii57514" xMin="142" yMin="226" xMax="842" yMax="1588">
      <contour>
        <pt x="142" y="226" on="1"/>
        <pt x="142" y="1588" on="1"/>
        <pt x="842" y="1588" on="1"/>
        <pt x="842" y="226" on="1"/>
      </contour>
      <contour>
        <pt x="284" y="368" on="1"/>
        <pt x="700" y="368" on="1"/>
        <pt x="700" y="1447" on="1"/>
        <pt x="284" y="1447" on="1"/>
      </contour>
    </TTGlyph>
    <TTGlyph name="afii57519" xMin="142" yMin="226" xMax="842" yMax="1588">
      <contour>
        <pt x="142" y="226" on="1"/>
        <pt x="142" y="1588" on="1"/>
        <pt x="842" y="1588" on="1"/>
        <pt x="842" y="226" on="1"/>
      </contour>
      <contour>
        <pt x="284" y="368" on="1"/>
        <pt x="700" y="368" on="1"/>
        <pt x="700" y="1447" on="1"/>
        <pt x="284" y="1447" on="1"/>
      </contour>
    </TTGlyph>
    <TTGlyph name="afii57534" xMin="142" yMin="226" xMax="842" yMax="1588">
      <contour>
        <pt x="142" y="226" on="1"/>
        <pt x="142" y="1588" on="1"/>
        <pt x="842" y="1588" on="1"/>
        <pt x="842" y="226" on="1"/>
      </contour>
      <contour>
        <pt x="284" y="368" on="1"/>
        <pt x="700" y="368" on="1"/>
        <pt x="700" y="1447" on="1"/>
        <pt x="284" y="1447" on="1"/>
      </contour>
    </TTGlyph>
    <TTGlyph name="afii63167" xMin="142" yMin="226" xMax="842" yMax="1588">
      <contour>
        <pt x="142" y="226" on="1"/>
        <pt x="142" y="1588" on="1"/>
        <pt x="842" y="1588" on="1"/>
        <pt x="842" y="226" on="1"/>
      </contour>
      <contour>
        <pt x="284" y="368" on="1"/>
        <pt x="700" y="368" on="1"/>
        <pt x="700" y="1447" on="1"/>
        <pt x="284" y="1447" on="1"/>
      </contour>
    </TTGlyph>
    <TTGlyph name="alefmaksurainitial" xMin="142" yMin="226" xMax="842" yMax="1588">
      <contour>
        <pt x="142" y="226" on="1"/>
        <pt x="142" y="1588" on="1"/>
        <pt x="842" y="1588" on="1"/>
        <pt x="842" y="226" on="1"/>
      </contour>
      <contour>
        <pt x="284" y="368" on="1"/>
        <pt x="700" y="368" on="1"/>
        <pt x="700" y="1447" on="1"/>
        <pt x="284" y="1447" on="1"/>
      </contour>
    </TTGlyph>
    <TTGlyph name="alefwaslafinalarabic" xMin="142" yMin="226" xMax="842" yMax="1588">
      <contour>
        <pt x="142" y="226" on="1"/>
        <pt x="142" y="1588" on="1"/>
        <pt x="842" y="1588" on="1"/>
        <pt x="842" y="226" on="1"/>
      </contour>
      <contour>
        <pt x="284" y="368" on="1"/>
        <pt x="700" y="368" on="1"/>
        <pt x="700" y="1447" on="1"/>
        <pt x="284" y="1447" on="1"/>
      </contour>
    </TTGlyph>
    <TTGlyph name="ampersand" xMin="142" yMin="226" xMax="842" yMax="1588">
      <contour>
        <pt x="142" y="226" on="1"/>
        <pt x="142" y="1588" on="1"/>
        <pt x="842" y="1588" on="1"/>
        <pt x="842" y="226" on="1"/>
      </contour>
      <contour>
        <pt x="284" y="368" on="1"/>
        <pt x="700" y="368" on="1"/>
        <pt x="700" y="1447" on="1"/>
        <pt x="284" y="1447" on="1"/>
      </contour>
    </TTGlyph>
    <TTGlyph name="asterisk" xMin="142" yMin="226" xMax="842" yMax="1588">
      <contour>
        <pt x="142" y="226" on="1"/>
        <pt x="142" y="1588" on="1"/>
        <pt x="842" y="1588" on="1"/>
        <pt x="842" y="226" on="1"/>
      </contour>
      <contour>
        <pt x="284" y="368" on="1"/>
        <pt x="700" y="368" on="1"/>
        <pt x="700" y="1447" on="1"/>
        <pt x="284" y="1447" on="1"/>
      </contour>
    </TTGlyph>
    <TTGlyph name="behmeemisolatedarabic" xMin="142" yMin="226" xMax="842" yMax="1588">
      <contour>
        <pt x="142" y="226" on="1"/>
        <pt x="142" y="1588" on="1"/>
        <pt x="842" y="1588" on="1"/>
        <pt x="842" y="226" on="1"/>
      </contour>
      <contour>
        <pt x="284" y="368" on="1"/>
        <pt x="700" y="368" on="1"/>
        <pt x="700" y="1447" on="1"/>
        <pt x="284" y="1447" on="1"/>
      </contour>
    </TTGlyph>
    <TTGlyph name="behnoonfinalarabic" xMin="142" yMin="226" xMax="842" yMax="1588">
      <contour>
        <pt x="142" y="226" on="1"/>
        <pt x="142" y="1588" on="1"/>
        <pt x="842" y="1588" on="1"/>
        <pt x="842" y="226" on="1"/>
      </contour>
      <contour>
        <pt x="284" y="368" on="1"/>
        <pt x="700" y="368" on="1"/>
        <pt x="700" y="1447" on="1"/>
        <pt x="284" y="1447" on="1"/>
      </contour>
    </TTGlyph>
    <TTGlyph name="colon" xMin="142" yMin="226" xMax="842" yMax="1588">
      <contour>
        <pt x="142" y="226" on="1"/>
        <pt x="142" y="1588" on="1"/>
        <pt x="842" y="1588" on="1"/>
        <pt x="842" y="226" on="1"/>
      </contour>
      <contour>
        <pt x="284" y="368" on="1"/>
        <pt x="700" y="368" on="1"/>
        <pt x="700" y="1447" on="1"/>
        <pt x="284" y="1447" on="1"/>
      </contour>
    </TTGlyph>
    <TTGlyph name="dagger" xMin="142" yMin="226" xMax="842" yMax="1588">
      <contour>
        <pt x="142" y="226" on="1"/>
        <pt x="142" y="1588" on="1"/>
        <pt x="842" y="1588" on="1"/>
        <pt x="842" y="226" on="1"/>
      </contour>
      <contour>
        <pt x="284" y="368" on="1"/>
        <pt x="700" y="368" on="1"/>
        <pt x="700" y="1447" on="1"/>
        <pt x="284" y="1447" on="1"/>
      </contour>
    </TTGlyph>
    <TTGlyph name="dalringfinal" xMin="142" yMin="226" xMax="842" yMax="1588">
      <contour>
        <pt x="142" y="226" on="1"/>
        <pt x="142" y="1588" on="1"/>
        <pt x="842" y="1588" on="1"/>
        <pt x="842" y="226" on="1"/>
      </contour>
      <contour>
        <pt x="284" y="368" on="1"/>
        <pt x="700" y="368" on="1"/>
        <pt x="700" y="1447" on="1"/>
        <pt x="284" y="1447" on="1"/>
      </contour>
    </TTGlyph>
    <TTGlyph name="ddalfinalarabic" xMin="142" yMin="226" xMax="842" yMax="1588">
      <contour>
        <pt x="142" y="226" on="1"/>
        <pt x="142" y="1588" on="1"/>
        <pt x="842" y="1588" on="1"/>
        <pt x="842" y="226" on="1"/>
      </contour>
      <contour>
        <pt x="284" y="368" on="1"/>
        <pt x="700" y="368" on="1"/>
        <pt x="700" y="1447" on="1"/>
        <pt x="284" y="1447" on="1"/>
      </contour>
    </TTGlyph>
    <TTGlyph name="divide" xMin="142" yMin="226" xMax="842" yMax="1588">
      <contour>
        <pt x="142" y="226" on="1"/>
        <pt x="142" y="1588" on="1"/>
        <pt x="842" y="1588" on="1"/>
        <pt x="842" y="226" on="1"/>
      </contour>
      <contour>
        <pt x="284" y="368" on="1"/>
        <pt x="700" y="368" on="1"/>
        <pt x="700" y="1447" on="1"/>
        <pt x="284" y="1447" on="1"/>
      </contour>
    </TTGlyph>
    <TTGlyph name="dollar" xMin="142" yMin="226" xMax="842" yMax="1588">
      <contour>
        <pt x="142" y="226" on="1"/>
        <pt x="142" y="1588" on="1"/>
        <pt x="842" y="1588" on="1"/>
        <pt x="842" y="226" on="1"/>
      </contour>
      <contour>
        <pt x="284" y="368" on="1"/>
        <pt x="700" y="368" on="1"/>
        <pt x="700" y="1447" on="1"/>
        <pt x="284" y="1447" on="1"/>
      </contour>
    </TTGlyph>
    <TTGlyph name="dotlessyehfinalarabic" xMin="142" yMin="226" xMax="842" yMax="1588">
      <contour>
        <pt x="142" y="226" on="1"/>
        <pt x="142" y="1588" on="1"/>
        <pt x="842" y="1588" on="1"/>
        <pt x="842" y="226" on="1"/>
      </contour>
      <contour>
        <pt x="284" y="368" on="1"/>
        <pt x="700" y="368" on="1"/>
        <pt x="700" y="1447" on="1"/>
        <pt x="284" y="1447" on="1"/>
      </contour>
    </TTGlyph>
    <TTGlyph name="dotlessyehinitialarabic" xMin="142" yMin="226" xMax="842" yMax="1588">
      <contour>
        <pt x="142" y="226" on="1"/>
        <pt x="142" y="1588" on="1"/>
        <pt x="842" y="1588" on="1"/>
        <pt x="842" y="226" on="1"/>
      </contour>
      <contour>
        <pt x="284" y="368" on="1"/>
        <pt x="700" y="368" on="1"/>
        <pt x="700" y="1447" on="1"/>
        <pt x="284" y="1447" on="1"/>
      </contour>
    </TTGlyph>
    <TTGlyph name="dotlessyehmedialarabic" xMin="142" yMin="226" xMax="842" yMax="1588">
      <contour>
        <pt x="142" y="226" on="1"/>
        <pt x="142" y="1588" on="1"/>
        <pt x="842" y="1588" on="1"/>
        <pt x="842" y="226" on="1"/>
      </contour>
      <contour>
        <pt x="284" y="368" on="1"/>
        <pt x="700" y="368" on="1"/>
        <pt x="700" y="1447" on="1"/>
        <pt x="284" y="1447" on="1"/>
      </contour>
    </TTGlyph>
    <TTGlyph name="elefmaksuramedial" xMin="142" yMin="226" xMax="842" yMax="1588">
      <contour>
        <pt x="142" y="226" on="1"/>
        <pt x="142" y="1588" on="1"/>
        <pt x="842" y="1588" on="1"/>
        <pt x="842" y="226" on="1"/>
      </contour>
      <contour>
        <pt x="284" y="368" on="1"/>
        <pt x="700" y="368" on="1"/>
        <pt x="700" y="1447" on="1"/>
        <pt x="284" y="1447" on="1"/>
      </contour>
    </TTGlyph>
    <TTGlyph name="ellipsis" xMin="142" yMin="226" xMax="842" yMax="1588">
      <contour>
        <pt x="142" y="226" on="1"/>
        <pt x="142" y="1588" on="1"/>
        <pt x="842" y="1588" on="1"/>
        <pt x="842" y="226" on="1"/>
      </contour>
      <contour>
        <pt x="284" y="368" on="1"/>
        <pt x="700" y="368" on="1"/>
        <pt x="700" y="1447" on="1"/>
        <pt x="284" y="1447" on="1"/>
      </contour>
    </TTGlyph>
    <TTGlyph name="emdash" xMin="2" yMin="-574" xMax="2050" yMax="1785">
      <contour>
        <pt x="1936" y="1042" on="1"/>
        <pt x="1903" y="1018" on="1"/>
        <pt x="1903" y="1029" on="0"/>
        <pt x="1893" y="1055" on="1"/>
        <pt x="1878" y="1080" on="0"/>
        <pt x="1762" y="1203" on="0"/>
        <pt x="1749" y="1226" on="1"/>
        <pt x="1686" y="1335" on="0"/>
        <pt x="1680" y="1449" on="1"/>
        <pt x="1612" y="1431" on="0"/>
        <pt x="1612" y="1248" on="1"/>
        <pt x="1612" y="1160" on="0"/>
        <pt x="1628" y="1110" on="1"/>
        <pt x="1608" y="1131" on="0"/>
        <pt x="1587" y="1153" on="1"/>
        <pt x="1580" y="1201" on="0"/>
        <pt x="1580" y="1248" on="1"/>
        <pt x="1580" y="1351" on="0"/>
        <pt x="1647" y="1502" on="0"/>
        <pt x="1705" y="1523" on="1"/>
        <pt x="1708" y="1372" on="0"/>
        <pt x="1779" y="1254" on="1"/>
        <pt x="1792" y="1230" on="0"/>
        <pt x="1860" y="1158" on="1"/>
        <pt x="1919" y="1094" on="0"/>
        <pt x="1930" y="1063" on="1"/>
        <pt x="1936" y="1033" on="0"/>
      </contour>
      <contour>
        <pt x="1756" y="576" on="1"/>
        <pt x="1756" y="202" on="0"/>
        <pt x="1328" y="-330" on="0"/>
        <pt x="1026" y="-330" on="1"/>
        <pt x="725" y="-330" on="0"/>
        <pt x="296" y="202" on="0"/>
        <pt x="296" y="576" on="1"/>
        <pt x="296" y="939" on="0"/>
        <pt x="502" y="1202" on="1"/>
        <pt x="675" y="1423" on="0"/>
        <pt x="875" y="1461" on="1"/>
        <pt x="917" y="1469" on="0"/>
        <pt x="952" y="1505" on="1"/>
        <pt x="992" y="1547" on="0"/>
        <pt x="992" y="1602" on="1"/>
        <pt x="992" y="1662" on="0"/>
        <pt x="923" y="1748" on="0"/>
        <pt x="875" y="1748" on="1"/>
        <pt x="827" y="1748" on="0"/>
        <pt x="756" y="1662" on="0"/>
        <pt x="756" y="1602" on="1"/>
        <pt x="756" y="1534" on="0"/>
        <pt x="801" y="1488" on="1"/>
        <pt x="710" y="1475" on="0"/>
        <pt x="600" y="1418" on="1"/>
        <pt x="525" y="1380" on="0"/>
        <pt x="471" y="1315" on="1"/>
        <pt x="434" y="1321" on="1"/>
        <pt x="485" y="1394" on="0"/>
        <pt x="595" y="1457" on="1"/>
        <pt x="649" y="1487" on="0"/>
        <pt x="750" y="1512" on="1"/>
        <pt x="726" y="1556" on="0"/>
        <pt x="726" y="1614" on="1"/>
        <pt x="726" y="1688" on="0"/>
        <pt x="773" y="1738" on="1"/>
        <pt x="817" y="1785" on="0"/>
        <pt x="875" y="1785" on="1"/>
        <pt x="934" y="1785" on="0"/>
        <pt x="979" y="1736" on="1"/>
        <pt x="1026" y="1684" on="0"/>
        <pt x="1026" y="1610" on="1"/>
        <pt x="1026" y="1531" on="0"/>
        <pt x="978" y="1479" on="1"/>
        <pt x="995" y="1481" on="0"/>
        <pt x="1026" y="1481" on="1"/>
        <pt x="1058" y="1481" on="0"/>
        <pt x="1075" y="1479" on="1"/>
        <pt x="1026" y="1531" on="0"/>
        <pt x="1026" y="1610" on="1"/>
        <pt x="1026" y="1684" on="0"/>
        <pt x="1073" y="1736" on="1"/>
        <pt x="1117" y="1785" on="0"/>
        <pt x="1177" y="1785" on="1"/>
        <pt x="1235" y="1785" on="0"/>
        <pt x="1280" y="1738" on="1"/>
        <pt x="1328" y="1689" on="0"/>
        <pt x="1328" y="1614" on="1"/>
        <pt x="1328" y="1556" on="0"/>
        <pt x="1304" y="1512" on="1"/>
        <pt x="1401" y="1488" on="0"/>
        <pt x="1456" y="1457" on="1"/>
        <pt x="1565" y="1396" on="0"/>
        <pt x="1619" y="1321" on="1"/>
        <pt x="1583" y="1315" on="1"/>
        <pt x="1524" y="1382" on="0"/>
        <pt x="1452" y="1418" on="1"/>
        <pt x="1339" y="1476" on="0"/>
        <pt x="1251" y="1488" on="1"/>
        <pt x="1295" y="1532" on="0"/>
        <pt x="1295" y="1602" on="1"/>
        <pt x="1295" y="1662" on="0"/>
        <pt x="1226" y="1748" on="0"/>
        <pt x="1177" y="1748" on="1"/>
        <pt x="1130" y="1748" on="0"/>
        <pt x="1061" y="1662" on="0"/>
        <pt x="1061" y="1602" on="1"/>
        <pt x="1061" y="1547" on="0"/>
        <pt x="1101" y="1505" on="1"/>
        <pt x="1135" y="1469" on="0"/>
        <pt x="1177" y="1461" on="1"/>
        <pt x="1379" y="1423" on="0"/>
        <pt x="1551" y="1202" on="1"/>
        <pt x="1756" y="940" on="0"/>
      </contour>
      <contour>
        <pt x="467" y="1153" on="1"/>
        <pt x="422" y="1105" on="0"/>
        <pt x="423" y="1110" on="1"/>
        <pt x="440" y="1161" on="0"/>
        <pt x="440" y="1249" on="1"/>
        <pt x="440" y="1431" on="0"/>
        <pt x="373" y="1449" on="1"/>
        <pt x="367" y="1333" on="0"/>
        <pt x="305" y="1226" on="1"/>
        <pt x="292" y="1203" on="0"/>
        <pt x="175" y="1081" on="0"/>
        <pt x="160" y="1055" on="1"/>
        <pt x="149" y="1029" on="0"/>
        <pt x="149" y="1018" on="1"/>
        <pt x="118" y="1042" on="1"/>
        <pt x="118" y="1053" on="0"/>
        <pt x="124" y="1063" on="1"/>
        <pt x="135" y="1094" on="0"/>
        <pt x="194" y="1158" on="1"/>
        <pt x="261" y="1230" on="0"/>
        <pt x="275" y="1254" on="1"/>
        <pt x="343" y="1368" on="0"/>
        <pt x="348" y="1523" on="1"/>
        <pt x="405" y="1502" on="0"/>
        <pt x="475" y="1350" on="0"/>
        <pt x="475" y="1247" on="1"/>
        <pt x="475" y="1200" on="0"/>
      </contour>
      <contour>
        <pt x="2050" y="1105" on="1"/>
        <pt x="1995" y="1004" on="0"/>
        <pt x="2001" y="819" on="1"/>
        <pt x="2003" y="784" on="0"/>
        <pt x="2039" y="637" on="0"/>
        <pt x="2040" y="605" on="1"/>
        <pt x="2041" y="569" on="0"/>
        <pt x="1990" y="496" on="0"/>
        <pt x="1964" y="496" on="1"/>
        <pt x="1925" y="496" on="0"/>
        <pt x="1908" y="520" on="1"/>
        <pt x="1908" y="67" on="0"/>
        <pt x="1392" y="-574" on="0"/>
        <pt x="1026" y="-574" on="1"/>
        <pt x="661" y="-574" on="0"/>
        <pt x="144" y="67" on="0"/>
        <pt x="144" y="520" on="1"/>
        <pt x="128" y="496" on="0"/>
        <pt x="90" y="496" on="1"/>
        <pt x="63" y="496" on="0"/>
        <pt x="11" y="569" on="0"/>
        <pt x="12" y="605" on="1"/>
        <pt x="14" y="637" on="0"/>
        <pt x="50" y="785" on="0"/>
        <pt x="51" y="819" on="1"/>
        <pt x="58" y="1004" on="0"/>
        <pt x="2" y="1105" on="1"/>
        <pt x="163" y="1092" on="0"/>
        <pt x="212" y="945" on="1"/>
        <pt x="208" y="822" on="1"/>
        <pt x="204" y="895" on="0"/>
        <pt x="169" y="962" on="1"/>
        <pt x="124" y="1046" on="0"/>
        <pt x="54" y="1049" on="1"/>
        <pt x="85" y="992" on="0"/>
        <pt x="85" y="819" on="1"/>
        <pt x="85" y="787" on="0"/>
        <pt x="69" y="718" on="1"/>
        <pt x="51" y="646" on="0"/>
        <pt x="49" y="618" on="1"/>
        <pt x="47" y="542" on="0"/>
        <pt x="106" y="542" on="1"/>
        <pt x="137" y="542" on="0"/>
        <pt x="165" y="594" on="1"/>
        <pt x="173" y="609" on="0"/>
        <pt x="182" y="623" on="1"/>
        <pt x="177" y="561" on="0"/>
        <pt x="177" y="520" on="1"/>
        <pt x="177" y="91" on="0"/>
        <pt x="678" y="-521" on="0"/>
        <pt x="1026" y="-521" on="1"/>
        <pt x="1375" y="-521" on="0"/>
        <pt x="1876" y="91" on="0"/>
        <pt x="1876" y="520" on="1"/>
        <pt x="1876" y="561" on="0"/>
        <pt x="1871" y="623" on="1"/>
        <pt x="1881" y="609" on="0"/>
        <pt x="1890" y="595" on="1"/>
        <pt x="1916" y="542" on="0"/>
        <pt x="1946" y="542" on="1"/>
        <pt x="2007" y="542" on="0"/>
        <pt x="2004" y="618" on="1"/>
        <pt x="2003" y="646" on="0"/>
        <pt x="1985" y="718" on="1"/>
        <pt x="1966" y="787" on="0"/>
        <pt x="1966" y="819" on="1"/>
        <pt x="1966" y="990" on="0"/>
        <pt x="1999" y="1049" on="1"/>
        <pt x="1930" y="1046" on="0"/>
        <pt x="1884" y="962" on="1"/>
        <pt x="1848" y="895" on="0"/>
        <pt x="1844" y="822" on="1"/>
        <pt x="1842" y="945" on="1"/>
        <pt x="1891" y="1092" on="0"/>
      </contour>
      <contour>
        <pt x="1719" y="576" on="1"/>
        <pt x="1719" y="930" on="0"/>
        <pt x="1526" y="1173" on="1"/>
        <pt x="1375" y="1362" on="0"/>
        <pt x="1181" y="1418" on="1"/>
        <pt x="1116" y="1437" on="0"/>
        <pt x="1026" y="1437" on="1"/>
        <pt x="937" y="1437" on="0"/>
        <pt x="873" y="1418" on="1"/>
        <pt x="677" y="1362" on="0"/>
        <pt x="527" y="1173" on="1"/>
        <pt x="334" y="931" on="0"/>
        <pt x="334" y="576" on="1"/>
        <pt x="334" y="218" on="0"/>
        <pt x="738" y="-285" on="0"/>
        <pt x="1026" y="-285" on="1"/>
        <pt x="1315" y="-285" on="0"/>
        <pt x="1719" y="218" on="0"/>
      </contour>
      <contour>
        <pt x="1171" y="735" on="1"/>
        <pt x="1171" y="704" on="0"/>
        <pt x="1144" y="681" on="1"/>
        <pt x="1123" y="664" on="0"/>
        <pt x="1113" y="664" on="1"/>
        <pt x="1126" y="664" on="0"/>
        <pt x="1058" y="668" on="1"/>
        <pt x="1014" y="671" on="0"/>
        <pt x="989" y="664" on="1"/>
        <pt x="989" y="626" on="1"/>
        <pt x="1002" y="601" on="0"/>
        <pt x="1019" y="557" on="1"/>
        <pt x="1035" y="494" on="0"/>
        <pt x="1051" y="431" on="1"/>
        <pt x="1080" y="316" on="0"/>
        <pt x="1080" y="284" on="1"/>
        <pt x="1080" y="261" on="0"/>
        <pt x="1061" y="193" on="1"/>
        <pt x="1032" y="193" on="1"/>
        <pt x="1018" y="263" on="0"/>
        <pt x="978" y="400" on="1"/>
        <pt x="954" y="455" on="0"/>
        <pt x="930" y="510" on="1"/>
        <pt x="907" y="569" on="0"/>
        <pt x="907" y="617" on="1"/>
        <pt x="907" y="700" on="0"/>
        <pt x="993" y="807" on="0"/>
        <pt x="1059" y="807" on="1"/>
        <pt x="1089" y="807" on="0"/>
        <pt x="1161" y="784" on="1"/>
        <pt x="1161" y="781" on="0"/>
        <pt x="1171" y="748" on="0"/>
      </contour>
    </TTGlyph>
    <TTGlyph name="endash" xMin="2" yMin="-574" xMax="1026" yMax="1785">
      <contour>
        <pt x="969" y="1042" on="1"/>
        <pt x="953" y="1018" on="1"/>
        <pt x="953" y="1029" on="0"/>
        <pt x="948" y="1055" on="1"/>
        <pt x="940" y="1080" on="0"/>
        <pt x="882" y="1203" on="0"/>
        <pt x="875" y="1226" on="1"/>
        <pt x="844" y="1335" on="0"/>
        <pt x="841" y="1449" on="1"/>
        <pt x="807" y="1431" on="0"/>
        <pt x="807" y="1248" on="1"/>
        <pt x="807" y="1160" on="0"/>
        <pt x="815" y="1110" on="1"/>
        <pt x="805" y="1131" on="0"/>
        <pt x="795" y="1153" on="1"/>
        <pt x="791" y="1201" on="0"/>
        <pt x="791" y="1248" on="1"/>
        <pt x="791" y="1351" on="0"/>
        <pt x="825" y="1502" on="0"/>
        <pt x="854" y="1523" on="1"/>
        <pt x="855" y="1372" on="0"/>
        <pt x="890" y="1254" on="1"/>
        <pt x="897" y="1230" on="0"/>
        <pt x="931" y="1158" on="1"/>
        <pt x="960" y="1094" on="0"/>
        <pt x="966" y="1063" on="1"/>
        <pt x="969" y="1033" on="0"/>
      </contour>
      <contour>
        <pt x="879" y="576" on="1"/>
        <pt x="879" y="202" on="0"/>
        <pt x="665" y="-330" on="0"/>
        <pt x="514" y="-330" on="1"/>
        <pt x="363" y="-330" on="0"/>
        <pt x="149" y="202" on="0"/>
        <pt x="149" y="576" on="1"/>
        <pt x="149" y="939" on="0"/>
        <pt x="252" y="1202" on="1"/>
        <pt x="339" y="1423" on="0"/>
        <pt x="438" y="1461" on="1"/>
        <pt x="460" y="1469" on="0"/>
        <pt x="477" y="1505" on="1"/>
        <pt x="497" y="1547" on="0"/>
        <pt x="497" y="1602" on="1"/>
        <pt x="497" y="1662" on="0"/>
        <pt x="462" y="1748" on="0"/>
        <pt x="438" y="1748" on="1"/>
        <pt x="415" y="1748" on="0"/>
        <pt x="379" y="1662" on="0"/>
        <pt x="379" y="1602" on="1"/>
        <pt x="379" y="1534" on="0"/>
        <pt x="401" y="1488" on="1"/>
        <pt x="356" y="1475" on="0"/>
        <pt x="301" y="1418" on="1"/>
        <pt x="264" y="1380" on="0"/>
        <pt x="236" y="1315" on="1"/>
        <pt x="218" y="1321" on="1"/>
        <pt x="244" y="1394" on="0"/>
        <pt x="299" y="1457" on="1"/>
        <pt x="326" y="1487" on="0"/>
        <pt x="376" y="1512" on="1"/>
        <pt x="364" y="1556" on="0"/>
        <pt x="364" y="1614" on="1"/>
        <pt x="364" y="1688" on="0"/>
        <pt x="388" y="1738" on="1"/>
        <pt x="410" y="1785" on="0"/>
        <pt x="438" y="1785" on="1"/>
        <pt x="468" y="1785" on="0"/>
        <pt x="491" y="1736" on="1"/>
        <pt x="514" y="1684" on="0"/>
        <pt x="514" y="1610" on="1"/>
        <pt x="514" y="1531" on="0"/>
        <pt x="490" y="1479" on="1"/>
        <pt x="499" y="1481" on="0"/>
        <pt x="514" y="1481" on="1"/>
        <pt x="530" y="1481" on="0"/>
        <pt x="539" y="1479" on="1"/>
        <pt x="514" y="1531" on="0"/>
        <pt x="514" y="1610" on="1"/>
        <pt x="514" y="1684" on="0"/>
        <pt x="537" y="1736" on="1"/>
        <pt x="559" y="1785" on="0"/>
        <pt x="590" y="1785" on="1"/>
        <pt x="619" y="1785" on="0"/>
        <pt x="641" y="1738" on="1"/>
        <pt x="665" y="1689" on="0"/>
        <pt x="665" y="1614" on="1"/>
        <pt x="665" y="1556" on="0"/>
        <pt x="653" y="1512" on="1"/>
        <pt x="702" y="1488" on="0"/>
        <pt x="729" y="1457" on="1"/>
        <pt x="784" y="1396" on="0"/>
        <pt x="810" y="1321" on="1"/>
        <pt x="793" y="1315" on="1"/>
        <pt x="763" y="1382" on="0"/>
        <pt x="727" y="1418" on="1"/>
        <pt x="671" y="1476" on="0"/>
        <pt x="627" y="1488" on="1"/>
        <pt x="648" y="1532" on="0"/>
        <pt x="648" y="1602" on="1"/>
        <pt x="648" y="1662" on="0"/>
        <pt x="614" y="1748" on="0"/>
        <pt x="590" y="1748" on="1"/>
        <pt x="566" y="1748" on="0"/>
        <pt x="531" y="1662" on="0"/>
        <pt x="531" y="1602" on="1"/>
        <pt x="531" y="1547" on="0"/>
        <pt x="551" y="1505" on="1"/>
        <pt x="568" y="1469" on="0"/>
        <pt x="590" y="1461" on="1"/>
        <pt x="690" y="1423" on="0"/>
        <pt x="776" y="1202" on="1"/>
        <pt x="879" y="940" on="0"/>
      </contour>
      <contour>
        <pt x="235" y="1153" on="1"/>
        <pt x="212" y="1105" on="0"/>
        <pt x="213" y="1110" on="1"/>
        <pt x="221" y="1161" on="0"/>
        <pt x="221" y="1249" on="1"/>
        <pt x="221" y="1431" on="0"/>
        <pt x="188" y="1449" on="1"/>
        <pt x="185" y="1333" on="0"/>
        <pt x="153" y="1226" on="1"/>
        <pt x="147" y="1203" on="0"/>
        <pt x="89" y="1081" on="0"/>
        <pt x="81" y="1055" on="1"/>
        <pt x="76" y="1029" on="0"/>
        <pt x="76" y="1018" on="1"/>
        <pt x="60" y="1042" on="1"/>
        <pt x="60" y="1053" on="0"/>
        <pt x="63" y="1063" on="1"/>
        <pt x="68" y="1094" on="0"/>
        <pt x="98" y="1158" on="1"/>
        <pt x="132" y="1230" on="0"/>
        <pt x="138" y="1254" on="1"/>
        <pt x="173" y="1368" on="0"/>
        <pt x="175" y="1523" on="1"/>
        <pt x="204" y="1502" on="0"/>
        <pt x="238" y="1350" on="0"/>
        <pt x="238" y="1247" on="1"/>
        <pt x="238" y="1200" on="0"/>
      </contour>
      <contour>
        <pt x="1026" y="1105" on="1"/>
        <pt x="999" y="1004" on="0"/>
        <pt x="1001" y="819" on="1"/>
        <pt x="1002" y="784" on="0"/>
        <pt x="1020" y="637" on="0"/>
        <pt x="1021" y="605" on="1"/>
        <pt x="1022" y="569" on="0"/>
        <pt x="996" y="496" on="0"/>
        <pt x="983" y="496" on="1"/>
        <pt x="964" y="496" on="0"/>
        <pt x="955" y="520" on="1"/>
        <pt x="955" y="67" on="0"/>
        <pt x="697" y="-574" on="0"/>
        <pt x="514" y="-574" on="1"/>
        <pt x="331" y="-574" on="0"/>
        <pt x="73" y="67" on="0"/>
        <pt x="73" y="520" on="1"/>
        <pt x="65" y="496" on="0"/>
        <pt x="46" y="496" on="1"/>
        <pt x="33" y="496" on="0"/>
        <pt x="6" y="569" on="0"/>
        <pt x="7" y="605" on="1"/>
        <pt x="8" y="637" on="0"/>
        <pt x="26" y="785" on="0"/>
        <pt x="27" y="819" on="1"/>
        <pt x="30" y="1004" on="0"/>
        <pt x="2" y="1105" on="1"/>
        <pt x="83" y="1092" on="0"/>
        <pt x="107" y="945" on="1"/>
        <pt x="105" y="822" on="1"/>
        <pt x="103" y="895" on="0"/>
        <pt x="85" y="962" on="1"/>
        <pt x="63" y="1046" on="0"/>
        <pt x="28" y="1049" on="1"/>
        <pt x="43" y="992" on="0"/>
        <pt x="43" y="819" on="1"/>
        <pt x="43" y="787" on="0"/>
        <pt x="35" y="718" on="1"/>
        <pt x="27" y="646" on="0"/>
        <pt x="26" y="618" on="1"/>
        <pt x="25" y="542" on="0"/>
        <pt x="54" y="542" on="1"/>
        <pt x="70" y="542" on="0"/>
        <pt x="83" y="594" on="1"/>
        <pt x="87" y="609" on="0"/>
        <pt x="92" y="623" on="1"/>
        <pt x="90" y="561" on="0"/>
        <pt x="90" y="520" on="1"/>
        <pt x="90" y="91" on="0"/>
        <pt x="340" y="-521" on="0"/>
        <pt x="514" y="-521" on="1"/>
        <pt x="688" y="-521" on="0"/>
        <pt x="939" y="91" on="0"/>
        <pt x="939" y="520" on="1"/>
        <pt x="939" y="561" on="0"/>
        <pt x="937" y="623" on="1"/>
        <pt x="941" y="609" on="0"/>
        <pt x="946" y="595" on="1"/>
        <pt x="959" y="542" on="0"/>
        <pt x="974" y="542" on="1"/>
        <pt x="1005" y="542" on="0"/>
        <pt x="1003" y="618" on="1"/>
        <pt x="1002" y="646" on="0"/>
        <pt x="993" y="718" on="1"/>
        <pt x="984" y="787" on="0"/>
        <pt x="984" y="819" on="1"/>
        <pt x="984" y="990" on="0"/>
        <pt x="1001" y="1049" on="1"/>
        <pt x="966" y="1046" on="0"/>
        <pt x="943" y="962" on="1"/>
        <pt x="925" y="895" on="0"/>
        <pt x="923" y="822" on="1"/>
        <pt x="922" y="945" on="1"/>
        <pt x="946" y="1092" on="0"/>
      </contour>
      <contour>
        <pt x="861" y="576" on="1"/>
        <pt x="861" y="930" on="0"/>
        <pt x="764" y="1173" on="1"/>
        <pt x="689" y="1362" on="0"/>
        <pt x="591" y="1418" on="1"/>
        <pt x="559" y="1437" on="0"/>
        <pt x="514" y="1437" on="1"/>
        <pt x="470" y="1437" on="0"/>
        <pt x="438" y="1418" on="1"/>
        <pt x="340" y="1362" on="0"/>
        <pt x="264" y="1173" on="1"/>
        <pt x="168" y="931" on="0"/>
        <pt x="168" y="576" on="1"/>
        <pt x="168" y="218" on="0"/>
        <pt x="370" y="-285" on="0"/>
        <pt x="514" y="-285" on="1"/>
        <pt x="659" y="-285" on="0"/>
        <pt x="861" y="218" on="0"/>
      </contour>
      <contour>
        <pt x="586" y="735" on="1"/>
        <pt x="586" y="704" on="0"/>
        <pt x="573" y="681" on="1"/>
        <pt x="563" y="664" on="0"/>
        <pt x="557" y="664" on="1"/>
        <pt x="564" y="664" on="0"/>
        <pt x="530" y="668" on="1"/>
        <pt x="508" y="671" on="0"/>
        <pt x="495" y="664" on="1"/>
        <pt x="495" y="626" on="1"/>
        <pt x="502" y="601" on="0"/>
        <pt x="510" y="557" on="1"/>
        <pt x="518" y="494" on="0"/>
        <pt x="526" y="431" on="1"/>
        <pt x="541" y="316" on="0"/>
        <pt x="541" y="284" on="1"/>
        <pt x="541" y="261" on="0"/>
        <pt x="532" y="193" on="1"/>
        <pt x="517" y="193" on="1"/>
        <pt x="510" y="263" on="0"/>
        <pt x="490" y="400" on="1"/>
        <pt x="478" y="455" on="0"/>
        <pt x="466" y="510" on="1"/>
        <pt x="454" y="569" on="0"/>
        <pt x="454" y="617" on="1"/>
        <pt x="454" y="700" on="0"/>
        <pt x="497" y="807" on="0"/>
        <pt x="531" y="807" on="1"/>
        <pt x="545" y="807" on="0"/>
        <pt x="582" y="784" on="1"/>
        <pt x="582" y="781" on="0"/>
        <pt x="586" y="748" on="0"/>
      </contour>
    </TTGlyph>
    <TTGlyph name="equal" xMin="142" yMin="226" xMax="842" yMax="1588">
      <contour>
        <pt x="142" y="226" on="1"/>
        <pt x="142" y="1588" on="1"/>
        <pt x="842" y="1588" on="1"/>
        <pt x="842" y="226" on="1"/>
      </contour>
      <contour>
        <pt x="284" y="368" on="1"/>
        <pt x="700" y="368" on="1"/>
        <pt x="700" y="1447" on="1"/>
        <pt x="284" y="1447" on="1"/>
      </contour>
    </TTGlyph>
    <TTGlyph name="exclam" xMin="142" yMin="226" xMax="842" yMax="1588">
      <contour>
        <pt x="142" y="226" on="1"/>
        <pt x="142" y="1588" on="1"/>
        <pt x="842" y="1588" on="1"/>
        <pt x="842" y="226" on="1"/>
      </contour>
      <contour>
        <pt x="284" y="368" on="1"/>
        <pt x="700" y="368" on="1"/>
        <pt x="700" y="1447" on="1"/>
        <pt x="284" y="1447" on="1"/>
      </contour>
    </TTGlyph>
    <TTGlyph name="figuredash" xMin="2" yMin="-574" xMax="2546" yMax="1785">
      <contour>
        <pt x="2404" y="1042" on="1"/>
        <pt x="2364" y="1018" on="1"/>
        <pt x="2364" y="1029" on="0"/>
        <pt x="2351" y="1055" on="1"/>
        <pt x="2332" y="1080" on="0"/>
        <pt x="2188" y="1203" on="0"/>
        <pt x="2172" y="1226" on="1"/>
        <pt x="2094" y="1335" on="0"/>
        <pt x="2087" y="1449" on="1"/>
        <pt x="2002" y="1431" on="0"/>
        <pt x="2002" y="1248" on="1"/>
        <pt x="2002" y="1160" on="0"/>
        <pt x="2022" y="1110" on="1"/>
        <pt x="1997" y="1131" on="0"/>
        <pt x="1971" y="1153" on="1"/>
        <pt x="1962" y="1201" on="0"/>
        <pt x="1962" y="1248" on="1"/>
        <pt x="1962" y="1351" on="0"/>
        <pt x="2046" y="1502" on="0"/>
        <pt x="2118" y="1523" on="1"/>
        <pt x="2121" y="1372" on="0"/>
        <pt x="2209" y="1254" on="1"/>
        <pt x="2226" y="1230" on="0"/>
        <pt x="2310" y="1158" on="1"/>
        <pt x="2383" y="1094" on="0"/>
        <pt x="2397" y="1063" on="1"/>
        <pt x="2404" y="1033" on="0"/>
      </contour>
      <contour>
        <pt x="2181" y="576" on="1"/>
        <pt x="2181" y="202" on="0"/>
        <pt x="1649" y="-330" on="0"/>
        <pt x="1274" y="-330" on="1"/>
        <pt x="900" y="-330" on="0"/>
        <pt x="367" y="202" on="0"/>
        <pt x="367" y="576" on="1"/>
        <pt x="367" y="939" on="0"/>
        <pt x="623" y="1202" on="1"/>
        <pt x="838" y="1423" on="0"/>
        <pt x="1086" y="1461" on="1"/>
        <pt x="1139" y="1469" on="0"/>
        <pt x="1182" y="1505" on="1"/>
        <pt x="1232" y="1547" on="0"/>
        <pt x="1232" y="1602" on="1"/>
        <pt x="1232" y="1662" on="0"/>
        <pt x="1146" y="1748" on="0"/>
        <pt x="1086" y="1748" on="1"/>
        <pt x="1027" y="1748" on="0"/>
        <pt x="938" y="1662" on="0"/>
        <pt x="938" y="1602" on="1"/>
        <pt x="938" y="1534" on="0"/>
        <pt x="994" y="1488" on="1"/>
        <pt x="882" y="1475" on="0"/>
        <pt x="745" y="1418" on="1"/>
        <pt x="652" y="1380" on="0"/>
        <pt x="584" y="1315" on="1"/>
        <pt x="539" y="1321" on="1"/>
        <pt x="602" y="1394" on="0"/>
        <pt x="739" y="1457" on="1"/>
        <pt x="806" y="1487" on="0"/>
        <pt x="931" y="1512" on="1"/>
        <pt x="901" y="1556" on="0"/>
        <pt x="901" y="1614" on="1"/>
        <pt x="901" y="1688" on="0"/>
        <pt x="960" y="1738" on="1"/>
        <pt x="1015" y="1785" on="0"/>
        <pt x="1086" y="1785" on="1"/>
        <pt x="1160" y="1785" on="0"/>
        <pt x="1216" y="1736" on="1"/>
        <pt x="1274" y="1684" on="0"/>
        <pt x="1274" y="1610" on="1"/>
        <pt x="1274" y="1531" on="0"/>
        <pt x="1214" y="1479" on="1"/>
        <pt x="1236" y="1481" on="0"/>
        <pt x="1274" y="1481" on="1"/>
        <pt x="1314" y="1481" on="0"/>
        <pt x="1335" y="1479" on="1"/>
        <pt x="1274" y="1531" on="0"/>
        <pt x="1274" y="1610" on="1"/>
        <pt x="1274" y="1684" on="0"/>
        <pt x="1332" y="1736" on="1"/>
        <pt x="1387" y="1785" on="0"/>
        <pt x="1462" y="1785" on="1"/>
        <pt x="1534" y="1785" on="0"/>
        <pt x="1589" y="1738" on="1"/>
        <pt x="1649" y="1689" on="0"/>
        <pt x="1649" y="1614" on="1"/>
        <pt x="1649" y="1556" on="0"/>
        <pt x="1619" y="1512" on="1"/>
        <pt x="1740" y="1488" on="0"/>
        <pt x="1808" y="1457" on="1"/>
        <pt x="1944" y="1396" on="0"/>
        <pt x="2010" y="1321" on="1"/>
        <pt x="1966" y="1315" on="1"/>
        <pt x="1892" y="1382" on="0"/>
        <pt x="1803" y="1418" on="1"/>
        <pt x="1663" y="1476" on="0"/>
        <pt x="1554" y="1488" on="1"/>
        <pt x="1608" y="1532" on="0"/>
        <pt x="1608" y="1602" on="1"/>
        <pt x="1608" y="1662" on="0"/>
        <pt x="1522" y="1748" on="0"/>
        <pt x="1462" y="1748" on="1"/>
        <pt x="1403" y="1748" on="0"/>
        <pt x="1317" y="1662" on="0"/>
        <pt x="1317" y="1602" on="1"/>
        <pt x="1317" y="1547" on="0"/>
        <pt x="1367" y="1505" on="1"/>
        <pt x="1409" y="1469" on="0"/>
        <pt x="1462" y="1461" on="1"/>
        <pt x="1712" y="1423" on="0"/>
        <pt x="1926" y="1202" on="1"/>
        <pt x="2181" y="940" on="0"/>
      </contour>
      <contour>
        <pt x="580" y="1153" on="1"/>
        <pt x="524" y="1105" on="0"/>
        <pt x="525" y="1110" on="1"/>
        <pt x="546" y="1161" on="0"/>
        <pt x="546" y="1249" on="1"/>
        <pt x="546" y="1431" on="0"/>
        <pt x="463" y="1449" on="1"/>
        <pt x="456" y="1333" on="0"/>
        <pt x="378" y="1226" on="1"/>
        <pt x="362" y="1203" on="0"/>
        <pt x="217" y="1081" on="0"/>
        <pt x="198" y="1055" on="1"/>
        <pt x="185" y="1029" on="0"/>
        <pt x="185" y="1018" on="1"/>
        <pt x="146" y="1042" on="1"/>
        <pt x="146" y="1053" on="0"/>
        <pt x="154" y="1063" on="1"/>
        <pt x="167" y="1094" on="0"/>
        <pt x="240" y="1158" on="1"/>
        <pt x="324" y="1230" on="0"/>
        <pt x="341" y="1254" on="1"/>
        <pt x="426" y="1368" on="0"/>
        <pt x="432" y="1523" on="1"/>
        <pt x="503" y="1502" on="0"/>
        <pt x="589" y="1350" on="0"/>
        <pt x="589" y="1247" on="1"/>
        <pt x="589" y="1200" on="0"/>
      </contour>
      <contour>
        <pt x="2546" y="1105" on="1"/>
        <pt x="2478" y="1004" on="0"/>
        <pt x="2485" y="819" on="1"/>
        <pt x="2487" y="784" on="0"/>
        <pt x="2532" y="637" on="0"/>
        <pt x="2533" y="605" on="1"/>
        <pt x="2535" y="569" on="0"/>
        <pt x="2472" y="496" on="0"/>
        <pt x="2439" y="496" on="1"/>
        <pt x="2391" y="496" on="0"/>
        <pt x="2369" y="520" on="1"/>
        <pt x="2369" y="67" on="0"/>
        <pt x="1729" y="-574" on="0"/>
        <pt x="1274" y="-574" on="1"/>
        <pt x="820" y="-574" on="0"/>
        <pt x="179" y="67" on="0"/>
        <pt x="179" y="520" on="1"/>
        <pt x="158" y="496" on="0"/>
        <pt x="111" y="496" on="1"/>
        <pt x="78" y="496" on="0"/>
        <pt x="13" y="569" on="0"/>
        <pt x="15" y="605" on="1"/>
        <pt x="17" y="637" on="0"/>
        <pt x="62" y="785" on="0"/>
        <pt x="63" y="819" on="1"/>
        <pt x="71" y="1004" on="0"/>
        <pt x="2" y="1105" on="1"/>
        <pt x="202" y="1092" on="0"/>
        <pt x="263" y="945" on="1"/>
        <pt x="258" y="822" on="1"/>
        <pt x="253" y="895" on="0"/>
        <pt x="209" y="962" on="1"/>
        <pt x="154" y="1046" on="0"/>
        <pt x="67" y="1049" on="1"/>
        <pt x="105" y="992" on="0"/>
        <pt x="105" y="819" on="1"/>
        <pt x="105" y="787" on="0"/>
        <pt x="85" y="718" on="1"/>
        <pt x="63" y="646" on="0"/>
        <pt x="61" y="618" on="1"/>
        <pt x="58" y="542" on="0"/>
        <pt x="131" y="542" on="1"/>
        <pt x="170" y="542" on="0"/>
        <pt x="204" y="594" on="1"/>
        <pt x="214" y="609" on="0"/>
        <pt x="226" y="623" on="1"/>
        <pt x="220" y="561" on="0"/>
        <pt x="220" y="520" on="1"/>
        <pt x="220" y="91" on="0"/>
        <pt x="842" y="-521" on="0"/>
        <pt x="1274" y="-521" on="1"/>
        <pt x="1707" y="-521" on="0"/>
        <pt x="2330" y="91" on="0"/>
        <pt x="2330" y="520" on="1"/>
        <pt x="2330" y="561" on="0"/>
        <pt x="2324" y="623" on="1"/>
        <pt x="2336" y="609" on="0"/>
        <pt x="2347" y="595" on="1"/>
        <pt x="2380" y="542" on="0"/>
        <pt x="2417" y="542" on="1"/>
        <pt x="2493" y="542" on="0"/>
        <pt x="2489" y="618" on="1"/>
        <pt x="2487" y="646" on="0"/>
        <pt x="2465" y="718" on="1"/>
        <pt x="2442" y="787" on="0"/>
        <pt x="2442" y="819" on="1"/>
        <pt x="2442" y="990" on="0"/>
        <pt x="2483" y="1049" on="1"/>
        <pt x="2397" y="1046" on="0"/>
        <pt x="2340" y="962" on="1"/>
        <pt x="2295" y="895" on="0"/>
        <pt x="2290" y="822" on="1"/>
        <pt x="2288" y="945" on="1"/>
        <pt x="2348" y="1092" on="0"/>
      </contour>
      <contour>
        <pt x="2135" y="576" on="1"/>
        <pt x="2135" y="930" on="0"/>
        <pt x="1895" y="1173" on="1"/>
        <pt x="1708" y="1362" on="0"/>
        <pt x="1466" y="1418" on="1"/>
        <pt x="1386" y="1437" on="0"/>
        <pt x="1274" y="1437" on="1"/>
        <pt x="1164" y="1437" on="0"/>
        <pt x="1084" y="1418" on="1"/>
        <pt x="841" y="1362" on="0"/>
        <pt x="654" y="1173" on="1"/>
        <pt x="415" y="931" on="0"/>
        <pt x="415" y="576" on="1"/>
        <pt x="415" y="218" on="0"/>
        <pt x="916" y="-285" on="0"/>
        <pt x="1274" y="-285" on="1"/>
        <pt x="1633" y="-285" on="0"/>
        <pt x="2135" y="218" on="0"/>
      </contour>
      <contour>
        <pt x="1454" y="735" on="1"/>
        <pt x="1454" y="704" on="0"/>
        <pt x="1420" y="681" on="1"/>
        <pt x="1395" y="664" on="0"/>
        <pt x="1382" y="664" on="1"/>
        <pt x="1398" y="664" on="0"/>
        <pt x="1314" y="668" on="1"/>
        <pt x="1259" y="671" on="0"/>
        <pt x="1228" y="664" on="1"/>
        <pt x="1228" y="626" on="1"/>
        <pt x="1244" y="601" on="0"/>
        <pt x="1265" y="557" on="1"/>
        <pt x="1285" y="494" on="0"/>
        <pt x="1305" y="431" on="1"/>
        <pt x="1341" y="316" on="0"/>
        <pt x="1341" y="284" on="1"/>
        <pt x="1341" y="261" on="0"/>
        <pt x="1318" y="193" on="1"/>
        <pt x="1281" y="193" on="1"/>
        <pt x="1264" y="263" on="0"/>
        <pt x="1214" y="400" on="1"/>
        <pt x="1185" y="455" on="0"/>
        <pt x="1155" y="510" on="1"/>
        <pt x="1126" y="569" on="0"/>
        <pt x="1126" y="617" on="1"/>
        <pt x="1126" y="700" on="0"/>
        <pt x="1233" y="807" on="0"/>
        <pt x="1315" y="807" on="1"/>
        <pt x="1352" y="807" on="0"/>
        <pt x="1442" y="784" on="1"/>
        <pt x="1442" y="781" on="0"/>
        <pt x="1454" y="748" on="0"/>
      </contour>
    </TTGlyph>
    <TTGlyph name="gaffinalarabic" xMin="142" yMin="226" xMax="842" yMax="1588">
      <contour>
        <pt x="142" y="226" on="1"/>
        <pt x="142" y="1588" on="1"/>
        <pt x="842" y="1588" on="1"/>
        <pt x="842" y="226" on="1"/>
      </contour>
      <contour>
        <pt x="284" y="368" on="1"/>
        <pt x="700" y="368" on="1"/>
        <pt x="700" y="1447" on="1"/>
        <pt x="284" y="1447" on="1"/>
      </contour>
    </TTGlyph>
    <TTGlyph name="gafinitialarabic" xMin="142" yMin="226" xMax="842" yMax="1588">
      <contour>
        <pt x="142" y="226" on="1"/>
        <pt x="142" y="1588" on="1"/>
        <pt x="842" y="1588" on="1"/>
        <pt x="842" y="226" on="1"/>
      </contour>
      <contour>
        <pt x="284" y="368" on="1"/>
        <pt x="700" y="368" on="1"/>
        <pt x="700" y="1447" on="1"/>
        <pt x="284" y="1447" on="1"/>
      </contour>
    </TTGlyph>
    <TTGlyph name="gafmedialarabic" xMin="142" yMin="226" xMax="842" yMax="1588">
      <contour>
        <pt x="142" y="226" on="1"/>
        <pt x="142" y="1588" on="1"/>
        <pt x="842" y="1588" on="1"/>
        <pt x="842" y="226" on="1"/>
      </contour>
      <contour>
        <pt x="284" y="368" on="1"/>
        <pt x="700" y="368" on="1"/>
        <pt x="700" y="1447" on="1"/>
        <pt x="284" y="1447" on="1"/>
      </contour>
    </TTGlyph>
    <TTGlyph name="glyph41" xMin="142" yMin="226" xMax="842" yMax="1588">
      <contour>
        <pt x="142" y="226" on="1"/>
        <pt x="142" y="1588" on="1"/>
        <pt x="842" y="1588" on="1"/>
        <pt x="842" y="226" on="1"/>
      </contour>
      <contour>
        <pt x="284" y="368" on="1"/>
        <pt x="700" y="368" on="1"/>
        <pt x="700" y="1447" on="1"/>
        <pt x="284" y="1447" on="1"/>
      </contour>
    </TTGlyph>
    <TTGlyph name="glyph42" xMin="142" yMin="226" xMax="842" yMax="1588">
      <contour>
        <pt x="142" y="226" on="1"/>
        <pt x="142" y="1588" on="1"/>
        <pt x="842" y="1588" on="1"/>
        <pt x="842" y="226" on="1"/>
      </contour>
      <contour>
        <pt x="284" y="368" on="1"/>
        <pt x="700" y="368" on="1"/>
        <pt x="700" y="1447" on="1"/>
        <pt x="284" y="1447" on="1"/>
      </contour>
    </TTGlyph>
    <TTGlyph name="glyph43" xMin="142" yMin="226" xMax="842" yMax="1588">
      <contour>
        <pt x="142" y="226" on="1"/>
        <pt x="142" y="1588" on="1"/>
        <pt x="842" y="1588" on="1"/>
        <pt x="842" y="226" on="1"/>
      </contour>
      <contour>
        <pt x="284" y="368" on="1"/>
        <pt x="700" y="368" on="1"/>
        <pt x="700" y="1447" on="1"/>
        <pt x="284" y="1447" on="1"/>
      </contour>
    </TTGlyph>
    <TTGlyph name="glyph44" xMin="142" yMin="226" xMax="842" yMax="1588">
      <contour>
        <pt x="142" y="226" on="1"/>
        <pt x="142" y="1588" on="1"/>
        <pt x="842" y="1588" on="1"/>
        <pt x="842" y="226" on="1"/>
      </contour>
      <contour>
        <pt x="284" y="368" on="1"/>
        <pt x="700" y="368" on="1"/>
        <pt x="700" y="1447" on="1"/>
        <pt x="284" y="1447" on="1"/>
      </contour>
    </TTGlyph>
    <TTGlyph name="glyph45" xMin="142" yMin="226" xMax="842" yMax="1588">
      <contour>
        <pt x="142" y="226" on="1"/>
        <pt x="142" y="1588" on="1"/>
        <pt x="842" y="1588" on="1"/>
        <pt x="842" y="226" on="1"/>
      </contour>
      <contour>
        <pt x="284" y="368" on="1"/>
        <pt x="700" y="368" on="1"/>
        <pt x="700" y="1447" on="1"/>
        <pt x="284" y="1447" on="1"/>
      </contour>
    </TTGlyph>
    <TTGlyph name="glyph46" xMin="142" yMin="226" xMax="842" yMax="1588">
      <contour>
        <pt x="142" y="226" on="1"/>
        <pt x="142" y="1588" on="1"/>
        <pt x="842" y="1588" on="1"/>
        <pt x="842" y="226" on="1"/>
      </contour>
      <contour>
        <pt x="284" y="368" on="1"/>
        <pt x="700" y="368" on="1"/>
        <pt x="700" y="1447" on="1"/>
        <pt x="284" y="1447" on="1"/>
      </contour>
    </TTGlyph>
    <TTGlyph name="glyph47" xMin="142" yMin="226" xMax="842" yMax="1588">
      <contour>
        <pt x="142" y="226" on="1"/>
        <pt x="142" y="1588" on="1"/>
        <pt x="842" y="1588" on="1"/>
        <pt x="842" y="226" on="1"/>
      </contour>
      <contour>
        <pt x="284" y="368" on="1"/>
        <pt x="700" y="368" on="1"/>
        <pt x="700" y="1447" on="1"/>
        <pt x="284" y="1447" on="1"/>
      </contour>
    </TTGlyph>
    <TTGlyph name="glyph48" xMin="142" yMin="226" xMax="842" yMax="1588">
      <contour>
        <pt x="142" y="226" on="1"/>
        <pt x="142" y="1588" on="1"/>
        <pt x="842" y="1588" on="1"/>
        <pt x="842" y="226" on="1"/>
      </contour>
      <contour>
        <pt x="284" y="368" on="1"/>
        <pt x="700" y="368" on="1"/>
        <pt x="700" y="1447" on="1"/>
        <pt x="284" y="1447" on="1"/>
      </contour>
    </TTGlyph>
    <TTGlyph name="glyph50" xMin="142" yMin="226" xMax="842" yMax="1588">
      <contour>
        <pt x="142" y="226" on="1"/>
        <pt x="142" y="1588" on="1"/>
        <pt x="842" y="1588" on="1"/>
        <pt x="842" y="226" on="1"/>
      </contour>
      <contour>
        <pt x="284" y="368" on="1"/>
        <pt x="700" y="368" on="1"/>
        <pt x="700" y="1447" on="1"/>
        <pt x="284" y="1447" on="1"/>
      </contour>
    </TTGlyph>
    <TTGlyph name="glyph51" xMin="142" yMin="226" xMax="842" yMax="1588">
      <contour>
        <pt x="142" y="226" on="1"/>
        <pt x="142" y="1588" on="1"/>
        <pt x="842" y="1588" on="1"/>
        <pt x="842" y="226" on="1"/>
      </contour>
      <contour>
        <pt x="284" y="368" on="1"/>
        <pt x="700" y="368" on="1"/>
        <pt x="700" y="1447" on="1"/>
        <pt x="284" y="1447" on="1"/>
      </contour>
    </TTGlyph>
    <TTGlyph name="greater" xMin="142" yMin="226" xMax="842" yMax="1588">
      <contour>
        <pt x="142" y="226" on="1"/>
        <pt x="142" y="1588" on="1"/>
        <pt x="842" y="1588" on="1"/>
        <pt x="842" y="226" on="1"/>
      </contour>
      <contour>
        <pt x="284" y="368" on="1"/>
        <pt x="700" y="368" on="1"/>
        <pt x="700" y="1447" on="1"/>
        <pt x="284" y="1447" on="1"/>
      </contour>
    </TTGlyph>
    <TTGlyph name="hahhamzabovefinal" xMin="142" yMin="226" xMax="842" yMax="1588">
      <contour>
        <pt x="142" y="226" on="1"/>
        <pt x="142" y="1588" on="1"/>
        <pt x="842" y="1588" on="1"/>
        <pt x="842" y="226" on="1"/>
      </contour>
      <contour>
        <pt x="284" y="368" on="1"/>
        <pt x="700" y="368" on="1"/>
        <pt x="700" y="1447" on="1"/>
        <pt x="284" y="1447" on="1"/>
      </contour>
    </TTGlyph>
    <TTGlyph name="hahhamzaboveinitial" xMin="142" yMin="226" xMax="842" yMax="1588">
      <contour>
        <pt x="142" y="226" on="1"/>
        <pt x="142" y="1588" on="1"/>
        <pt x="842" y="1588" on="1"/>
        <pt x="842" y="226" on="1"/>
      </contour>
      <contour>
        <pt x="284" y="368" on="1"/>
        <pt x="700" y="368" on="1"/>
        <pt x="700" y="1447" on="1"/>
        <pt x="284" y="1447" on="1"/>
      </contour>
    </TTGlyph>
    <TTGlyph name="hahhamzabovemedial" xMin="142" yMin="226" xMax="842" yMax="1588">
      <contour>
        <pt x="142" y="226" on="1"/>
        <pt x="142" y="1588" on="1"/>
        <pt x="842" y="1588" on="1"/>
        <pt x="842" y="226" on="1"/>
      </contour>
      <contour>
        <pt x="284" y="368" on="1"/>
        <pt x="700" y="368" on="1"/>
        <pt x="700" y="1447" on="1"/>
        <pt x="284" y="1447" on="1"/>
      </contour>
    </TTGlyph>
    <TTGlyph name="hahthreedotsabovefinal" xMin="142" yMin="226" xMax="842" yMax="1588">
      <contour>
        <pt x="142" y="226" on="1"/>
        <pt x="142" y="1588" on="1"/>
        <pt x="842" y="1588" on="1"/>
        <pt x="842" y="226" on="1"/>
      </contour>
      <contour>
        <pt x="284" y="368" on="1"/>
        <pt x="700" y="368" on="1"/>
        <pt x="700" y="1447" on="1"/>
        <pt x="284" y="1447" on="1"/>
      </contour>
    </TTGlyph>
    <TTGlyph name="hahthreedotsaboveinitial" xMin="142" yMin="226" xMax="842" yMax="1588">
      <contour>
        <pt x="142" y="226" on="1"/>
        <pt x="142" y="1588" on="1"/>
        <pt x="842" y="1588" on="1"/>
        <pt x="842" y="226" on="1"/>
      </contour>
      <contour>
        <pt x="284" y="368" on="1"/>
        <pt x="700" y="368" on="1"/>
        <pt x="700" y="1447" on="1"/>
        <pt x="284" y="1447" on="1"/>
      </contour>
    </TTGlyph>
    <TTGlyph name="hahthreedotsabovemedial" xMin="142" yMin="226" xMax="842" yMax="1588">
      <contour>
        <pt x="142" y="226" on="1"/>
        <pt x="142" y="1588" on="1"/>
        <pt x="842" y="1588" on="1"/>
        <pt x="842" y="226" on="1"/>
      </contour>
      <contour>
        <pt x="284" y="368" on="1"/>
        <pt x="700" y="368" on="1"/>
        <pt x="700" y="1447" on="1"/>
        <pt x="284" y="1447" on="1"/>
      </contour>
    </TTGlyph>
    <TTGlyph name="hehdoachashmeefinalarabic" xMin="142" yMin="226" xMax="842" yMax="1588">
      <contour>
        <pt x="142" y="226" on="1"/>
        <pt x="142" y="1588" on="1"/>
        <pt x="842" y="1588" on="1"/>
        <pt x="842" y="226" on="1"/>
      </contour>
      <contour>
        <pt x="284" y="368" on="1"/>
        <pt x="700" y="368" on="1"/>
        <pt x="700" y="1447" on="1"/>
        <pt x="284" y="1447" on="1"/>
      </contour>
    </TTGlyph>
    <TTGlyph name="hehdoachashmeeinitialarabic" xMin="142" yMin="226" xMax="842" yMax="1588">
      <contour>
        <pt x="142" y="226" on="1"/>
        <pt x="142" y="1588" on="1"/>
        <pt x="842" y="1588" on="1"/>
        <pt x="842" y="226" on="1"/>
      </contour>
      <contour>
        <pt x="284" y="368" on="1"/>
        <pt x="700" y="368" on="1"/>
        <pt x="700" y="1447" on="1"/>
        <pt x="284" y="1447" on="1"/>
      </contour>
    </TTGlyph>
    <TTGlyph name="hehdoachashmeemedialarabic" xMin="142" yMin="226" xMax="842" yMax="1588">
      <contour>
        <pt x="142" y="226" on="1"/>
        <pt x="142" y="1588" on="1"/>
        <pt x="842" y="1588" on="1"/>
        <pt x="842" y="226" on="1"/>
      </contour>
      <contour>
        <pt x="284" y="368" on="1"/>
        <pt x="700" y="368" on="1"/>
        <pt x="700" y="1447" on="1"/>
        <pt x="284" y="1447" on="1"/>
      </contour>
    </TTGlyph>
    <TTGlyph name="hehfinalaltonearabic" xMin="142" yMin="226" xMax="842" yMax="1588">
      <contour>
        <pt x="142" y="226" on="1"/>
        <pt x="142" y="1588" on="1"/>
        <pt x="842" y="1588" on="1"/>
        <pt x="842" y="226" on="1"/>
      </contour>
      <contour>
        <pt x="284" y="368" on="1"/>
        <pt x="700" y="368" on="1"/>
        <pt x="700" y="1447" on="1"/>
        <pt x="284" y="1447" on="1"/>
      </contour>
    </TTGlyph>
    <TTGlyph name="hehhamzaabovefinalarabic" xMin="142" yMin="226" xMax="842" yMax="1588">
      <contour>
        <pt x="142" y="226" on="1"/>
        <pt x="142" y="1588" on="1"/>
        <pt x="842" y="1588" on="1"/>
        <pt x="842" y="226" on="1"/>
      </contour>
      <contour>
        <pt x="284" y="368" on="1"/>
        <pt x="700" y="368" on="1"/>
        <pt x="700" y="1447" on="1"/>
        <pt x="284" y="1447" on="1"/>
      </contour>
    </TTGlyph>
    <TTGlyph name="hehinitialaltonearabic" xMin="142" yMin="226" xMax="842" yMax="1588">
      <contour>
        <pt x="142" y="226" on="1"/>
        <pt x="142" y="1588" on="1"/>
        <pt x="842" y="1588" on="1"/>
        <pt x="842" y="226" on="1"/>
      </contour>
      <contour>
        <pt x="284" y="368" on="1"/>
        <pt x="700" y="368" on="1"/>
        <pt x="700" y="1447" on="1"/>
        <pt x="284" y="1447" on="1"/>
      </contour>
    </TTGlyph>
    <TTGlyph name="hehmedialaltonearabic" xMin="142" yMin="226" xMax="842" yMax="1588">
      <contour>
        <pt x="142" y="226" on="1"/>
        <pt x="142" y="1588" on="1"/>
        <pt x="842" y="1588" on="1"/>
        <pt x="842" y="226" on="1"/>
      </contour>
      <contour>
        <pt x="284" y="368" on="1"/>
        <pt x="700" y="368" on="1"/>
        <pt x="700" y="1447" on="1"/>
        <pt x="284" y="1447" on="1"/>
      </contour>
    </TTGlyph>
    <TTGlyph name="hyphen" xMin="2" yMin="-574" xMax="2546" yMax="1785">
      <contour>
        <pt x="2404" y="1042" on="1"/>
        <pt x="2364" y="1018" on="1"/>
        <pt x="2364" y="1029" on="0"/>
        <pt x="2351" y="1055" on="1"/>
        <pt x="2332" y="1080" on="0"/>
        <pt x="2188" y="1203" on="0"/>
        <pt x="2172" y="1226" on="1"/>
        <pt x="2094" y="1335" on="0"/>
        <pt x="2087" y="1449" on="1"/>
        <pt x="2002" y="1431" on="0"/>
        <pt x="2002" y="1248" on="1"/>
        <pt x="2002" y="1160" on="0"/>
        <pt x="2022" y="1110" on="1"/>
        <pt x="1997" y="1131" on="0"/>
        <pt x="1971" y="1153" on="1"/>
        <pt x="1962" y="1201" on="0"/>
        <pt x="1962" y="1248" on="1"/>
        <pt x="1962" y="1351" on="0"/>
        <pt x="2046" y="1502" on="0"/>
        <pt x="2118" y="1523" on="1"/>
        <pt x="2121" y="1372" on="0"/>
        <pt x="2209" y="1254" on="1"/>
        <pt x="2226" y="1230" on="0"/>
        <pt x="2310" y="1158" on="1"/>
        <pt x="2383" y="1094" on="0"/>
        <pt x="2397" y="1063" on="1"/>
        <pt x="2404" y="1033" on="0"/>
      </contour>
      <contour>
        <pt x="2181" y="576" on="1"/>
        <pt x="2181" y="202" on="0"/>
        <pt x="1649" y="-330" on="0"/>
        <pt x="1274" y="-330" on="1"/>
        <pt x="900" y="-330" on="0"/>
        <pt x="367" y="202" on="0"/>
        <pt x="367" y="576" on="1"/>
        <pt x="367" y="939" on="0"/>
        <pt x="623" y="1202" on="1"/>
        <pt x="838" y="1423" on="0"/>
        <pt x="1086" y="1461" on="1"/>
        <pt x="1139" y="1469" on="0"/>
        <pt x="1182" y="1505" on="1"/>
        <pt x="1232" y="1547" on="0"/>
        <pt x="1232" y="1602" on="1"/>
        <pt x="1232" y="1662" on="0"/>
        <pt x="1146" y="1748" on="0"/>
        <pt x="1086" y="1748" on="1"/>
        <pt x="1027" y="1748" on="0"/>
        <pt x="938" y="1662" on="0"/>
        <pt x="938" y="1602" on="1"/>
        <pt x="938" y="1534" on="0"/>
        <pt x="994" y="1488" on="1"/>
        <pt x="882" y="1475" on="0"/>
        <pt x="745" y="1418" on="1"/>
        <pt x="652" y="1380" on="0"/>
        <pt x="584" y="1315" on="1"/>
        <pt x="539" y="1321" on="1"/>
        <pt x="602" y="1394" on="0"/>
        <pt x="739" y="1457" on="1"/>
        <pt x="806" y="1487" on="0"/>
        <pt x="931" y="1512" on="1"/>
        <pt x="901" y="1556" on="0"/>
        <pt x="901" y="1614" on="1"/>
        <pt x="901" y="1688" on="0"/>
        <pt x="960" y="1738" on="1"/>
        <pt x="1015" y="1785" on="0"/>
        <pt x="1086" y="1785" on="1"/>
        <pt x="1160" y="1785" on="0"/>
        <pt x="1216" y="1736" on="1"/>
        <pt x="1274" y="1684" on="0"/>
        <pt x="1274" y="1610" on="1"/>
        <pt x="1274" y="1531" on="0"/>
        <pt x="1214" y="1479" on="1"/>
        <pt x="1236" y="1481" on="0"/>
        <pt x="1274" y="1481" on="1"/>
        <pt x="1314" y="1481" on="0"/>
        <pt x="1335" y="1479" on="1"/>
        <pt x="1274" y="1531" on="0"/>
        <pt x="1274" y="1610" on="1"/>
        <pt x="1274" y="1684" on="0"/>
        <pt x="1332" y="1736" on="1"/>
        <pt x="1387" y="1785" on="0"/>
        <pt x="1462" y="1785" on="1"/>
        <pt x="1534" y="1785" on="0"/>
        <pt x="1589" y="1738" on="1"/>
        <pt x="1649" y="1689" on="0"/>
        <pt x="1649" y="1614" on="1"/>
        <pt x="1649" y="1556" on="0"/>
        <pt x="1619" y="1512" on="1"/>
        <pt x="1740" y="1488" on="0"/>
        <pt x="1808" y="1457" on="1"/>
        <pt x="1944" y="1396" on="0"/>
        <pt x="2010" y="1321" on="1"/>
        <pt x="1966" y="1315" on="1"/>
        <pt x="1892" y="1382" on="0"/>
        <pt x="1803" y="1418" on="1"/>
        <pt x="1663" y="1476" on="0"/>
        <pt x="1554" y="1488" on="1"/>
        <pt x="1608" y="1532" on="0"/>
        <pt x="1608" y="1602" on="1"/>
        <pt x="1608" y="1662" on="0"/>
        <pt x="1522" y="1748" on="0"/>
        <pt x="1462" y="1748" on="1"/>
        <pt x="1403" y="1748" on="0"/>
        <pt x="1317" y="1662" on="0"/>
        <pt x="1317" y="1602" on="1"/>
        <pt x="1317" y="1547" on="0"/>
        <pt x="1367" y="1505" on="1"/>
        <pt x="1409" y="1469" on="0"/>
        <pt x="1462" y="1461" on="1"/>
        <pt x="1712" y="1423" on="0"/>
        <pt x="1926" y="1202" on="1"/>
        <pt x="2181" y="940" on="0"/>
      </contour>
      <contour>
        <pt x="580" y="1153" on="1"/>
        <pt x="524" y="1105" on="0"/>
        <pt x="525" y="1110" on="1"/>
        <pt x="546" y="1161" on="0"/>
        <pt x="546" y="1249" on="1"/>
        <pt x="546" y="1431" on="0"/>
        <pt x="463" y="1449" on="1"/>
        <pt x="456" y="1333" on="0"/>
        <pt x="378" y="1226" on="1"/>
        <pt x="362" y="1203" on="0"/>
        <pt x="217" y="1081" on="0"/>
        <pt x="198" y="1055" on="1"/>
        <pt x="185" y="1029" on="0"/>
        <pt x="185" y="1018" on="1"/>
        <pt x="146" y="1042" on="1"/>
        <pt x="146" y="1053" on="0"/>
        <pt x="154" y="1063" on="1"/>
        <pt x="167" y="1094" on="0"/>
        <pt x="240" y="1158" on="1"/>
        <pt x="324" y="1230" on="0"/>
        <pt x="341" y="1254" on="1"/>
        <pt x="426" y="1368" on="0"/>
        <pt x="432" y="1523" on="1"/>
        <pt x="503" y="1502" on="0"/>
        <pt x="589" y="1350" on="0"/>
        <pt x="589" y="1247" on="1"/>
        <pt x="589" y="1200" on="0"/>
      </contour>
      <contour>
        <pt x="2546" y="1105" on="1"/>
        <pt x="2478" y="1004" on="0"/>
        <pt x="2485" y="819" on="1"/>
        <pt x="2487" y="784" on="0"/>
        <pt x="2532" y="637" on="0"/>
        <pt x="2533" y="605" on="1"/>
        <pt x="2535" y="569" on="0"/>
        <pt x="2472" y="496" on="0"/>
        <pt x="2439" y="496" on="1"/>
        <pt x="2391" y="496" on="0"/>
        <pt x="2369" y="520" on="1"/>
        <pt x="2369" y="67" on="0"/>
        <pt x="1729" y="-574" on="0"/>
        <pt x="1274" y="-574" on="1"/>
        <pt x="820" y="-574" on="0"/>
        <pt x="179" y="67" on="0"/>
        <pt x="179" y="520" on="1"/>
        <pt x="158" y="496" on="0"/>
        <pt x="111" y="496" on="1"/>
        <pt x="78" y="496" on="0"/>
        <pt x="13" y="569" on="0"/>
        <pt x="15" y="605" on="1"/>
        <pt x="17" y="637" on="0"/>
        <pt x="62" y="785" on="0"/>
        <pt x="63" y="819" on="1"/>
        <pt x="71" y="1004" on="0"/>
        <pt x="2" y="1105" on="1"/>
        <pt x="202" y="1092" on="0"/>
        <pt x="263" y="945" on="1"/>
        <pt x="258" y="822" on="1"/>
        <pt x="253" y="895" on="0"/>
        <pt x="209" y="962" on="1"/>
        <pt x="154" y="1046" on="0"/>
        <pt x="67" y="1049" on="1"/>
        <pt x="105" y="992" on="0"/>
        <pt x="105" y="819" on="1"/>
        <pt x="105" y="787" on="0"/>
        <pt x="85" y="718" on="1"/>
        <pt x="63" y="646" on="0"/>
        <pt x="61" y="618" on="1"/>
        <pt x="58" y="542" on="0"/>
        <pt x="131" y="542" on="1"/>
        <pt x="170" y="542" on="0"/>
        <pt x="204" y="594" on="1"/>
        <pt x="214" y="609" on="0"/>
        <pt x="226" y="623" on="1"/>
        <pt x="220" y="561" on="0"/>
        <pt x="220" y="520" on="1"/>
        <pt x="220" y="91" on="0"/>
        <pt x="842" y="-521" on="0"/>
        <pt x="1274" y="-521" on="1"/>
        <pt x="1707" y="-521" on="0"/>
        <pt x="2330" y="91" on="0"/>
        <pt x="2330" y="520" on="1"/>
        <pt x="2330" y="561" on="0"/>
        <pt x="2324" y="623" on="1"/>
        <pt x="2336" y="609" on="0"/>
        <pt x="2347" y="595" on="1"/>
        <pt x="2380" y="542" on="0"/>
        <pt x="2417" y="542" on="1"/>
        <pt x="2493" y="542" on="0"/>
        <pt x="2489" y="618" on="1"/>
        <pt x="2487" y="646" on="0"/>
        <pt x="2465" y="718" on="1"/>
        <pt x="2442" y="787" on="0"/>
        <pt x="2442" y="819" on="1"/>
        <pt x="2442" y="990" on="0"/>
        <pt x="2483" y="1049" on="1"/>
        <pt x="2397" y="1046" on="0"/>
        <pt x="2340" y="962" on="1"/>
        <pt x="2295" y="895" on="0"/>
        <pt x="2290" y="822" on="1"/>
        <pt x="2288" y="945" on="1"/>
        <pt x="2348" y="1092" on="0"/>
      </contour>
      <contour>
        <pt x="2135" y="576" on="1"/>
        <pt x="2135" y="930" on="0"/>
        <pt x="1895" y="1173" on="1"/>
        <pt x="1708" y="1362" on="0"/>
        <pt x="1466" y="1418" on="1"/>
        <pt x="1386" y="1437" on="0"/>
        <pt x="1274" y="1437" on="1"/>
        <pt x="1164" y="1437" on="0"/>
        <pt x="1084" y="1418" on="1"/>
        <pt x="841" y="1362" on="0"/>
        <pt x="654" y="1173" on="1"/>
        <pt x="415" y="931" on="0"/>
        <pt x="415" y="576" on="1"/>
        <pt x="415" y="218" on="0"/>
        <pt x="916" y="-285" on="0"/>
        <pt x="1274" y="-285" on="1"/>
        <pt x="1633" y="-285" on="0"/>
        <pt x="2135" y="218" on="0"/>
      </contour>
      <contour>
        <pt x="1454" y="735" on="1"/>
        <pt x="1454" y="704" on="0"/>
        <pt x="1420" y="681" on="1"/>
        <pt x="1395" y="664" on="0"/>
        <pt x="1382" y="664" on="1"/>
        <pt x="1398" y="664" on="0"/>
        <pt x="1314" y="668" on="1"/>
        <pt x="1259" y="671" on="0"/>
        <pt x="1228" y="664" on="1"/>
        <pt x="1228" y="626" on="1"/>
        <pt x="1244" y="601" on="0"/>
        <pt x="1265" y="557" on="1"/>
        <pt x="1285" y="494" on="0"/>
        <pt x="1305" y="431" on="1"/>
        <pt x="1341" y="316" on="0"/>
        <pt x="1341" y="284" on="1"/>
        <pt x="1341" y="261" on="0"/>
        <pt x="1318" y="193" on="1"/>
        <pt x="1281" y="193" on="1"/>
        <pt x="1264" y="263" on="0"/>
        <pt x="1214" y="400" on="1"/>
        <pt x="1185" y="455" on="0"/>
        <pt x="1155" y="510" on="1"/>
        <pt x="1126" y="569" on="0"/>
        <pt x="1126" y="617" on="1"/>
        <pt x="1126" y="700" on="0"/>
        <pt x="1233" y="807" on="0"/>
        <pt x="1315" y="807" on="1"/>
        <pt x="1352" y="807" on="0"/>
        <pt x="1442" y="784" on="1"/>
        <pt x="1442" y="781" on="0"/>
        <pt x="1454" y="748" on="0"/>
      </contour>
    </TTGlyph>
    <TTGlyph name="irghizufinal" xMin="142" yMin="226" xMax="842" yMax="1588">
      <contour>
        <pt x="142" y="226" on="1"/>
        <pt x="142" y="1588" on="1"/>
        <pt x="842" y="1588" on="1"/>
        <pt x="842" y="226" on="1"/>
      </contour>
      <contour>
        <pt x="284" y="368" on="1"/>
        <pt x="700" y="368" on="1"/>
        <pt x="700" y="1447" on="1"/>
        <pt x="284" y="1447" on="1"/>
      </contour>
    </TTGlyph>
    <TTGlyph name="jehfinalarabic" xMin="142" yMin="226" xMax="842" yMax="1588">
      <contour>
        <pt x="142" y="226" on="1"/>
        <pt x="142" y="1588" on="1"/>
        <pt x="842" y="1588" on="1"/>
        <pt x="842" y="226" on="1"/>
      </contour>
      <contour>
        <pt x="284" y="368" on="1"/>
        <pt x="700" y="368" on="1"/>
        <pt x="700" y="1447" on="1"/>
        <pt x="284" y="1447" on="1"/>
      </contour>
    </TTGlyph>
    <TTGlyph name="kafringfinal" xMin="142" yMin="226" xMax="842" yMax="1588">
      <contour>
        <pt x="142" y="226" on="1"/>
        <pt x="142" y="1588" on="1"/>
        <pt x="842" y="1588" on="1"/>
        <pt x="842" y="226" on="1"/>
      </contour>
      <contour>
        <pt x="284" y="368" on="1"/>
        <pt x="700" y="368" on="1"/>
        <pt x="700" y="1447" on="1"/>
        <pt x="284" y="1447" on="1"/>
      </contour>
    </TTGlyph>
    <TTGlyph name="kafringinitial" xMin="142" yMin="226" xMax="842" yMax="1588">
      <contour>
        <pt x="142" y="226" on="1"/>
        <pt x="142" y="1588" on="1"/>
        <pt x="842" y="1588" on="1"/>
        <pt x="842" y="226" on="1"/>
      </contour>
      <contour>
        <pt x="284" y="368" on="1"/>
        <pt x="700" y="368" on="1"/>
        <pt x="700" y="1447" on="1"/>
        <pt x="284" y="1447" on="1"/>
      </contour>
    </TTGlyph>
    <TTGlyph name="kafringmedial" xMin="142" yMin="226" xMax="842" yMax="1588">
      <contour>
        <pt x="142" y="226" on="1"/>
        <pt x="142" y="1588" on="1"/>
        <pt x="842" y="1588" on="1"/>
        <pt x="842" y="226" on="1"/>
      </contour>
      <contour>
        <pt x="284" y="368" on="1"/>
        <pt x="700" y="368" on="1"/>
        <pt x="700" y="1447" on="1"/>
        <pt x="284" y="1447" on="1"/>
      </contour>
    </TTGlyph>
    <TTGlyph name="kashidaautoarabic" xMin="142" yMin="226" xMax="842" yMax="1588">
      <contour>
        <pt x="142" y="226" on="1"/>
        <pt x="142" y="1588" on="1"/>
        <pt x="842" y="1588" on="1"/>
        <pt x="842" y="226" on="1"/>
      </contour>
      <contour>
        <pt x="284" y="368" on="1"/>
        <pt x="700" y="368" on="1"/>
        <pt x="700" y="1447" on="1"/>
        <pt x="284" y="1447" on="1"/>
      </contour>
    </TTGlyph>
    <TTGlyph name="kashidaautonosidebearingarabic" xMin="142" yMin="226" xMax="842" yMax="1588">
      <contour>
        <pt x="142" y="226" on="1"/>
        <pt x="142" y="1588" on="1"/>
        <pt x="842" y="1588" on="1"/>
        <pt x="842" y="226" on="1"/>
      </contour>
      <contour>
        <pt x="284" y="368" on="1"/>
        <pt x="700" y="368" on="1"/>
        <pt x="700" y="1447" on="1"/>
        <pt x="284" y="1447" on="1"/>
      </contour>
    </TTGlyph>
    <TTGlyph name="kehehfinalarabic" xMin="142" yMin="226" xMax="842" yMax="1588">
      <contour>
        <pt x="142" y="226" on="1"/>
        <pt x="142" y="1588" on="1"/>
        <pt x="842" y="1588" on="1"/>
        <pt x="842" y="226" on="1"/>
      </contour>
      <contour>
        <pt x="284" y="368" on="1"/>
        <pt x="700" y="368" on="1"/>
        <pt x="700" y="1447" on="1"/>
        <pt x="284" y="1447" on="1"/>
      </contour>
    </TTGlyph>
    <TTGlyph name="kehehinitialarabic" xMin="142" yMin="226" xMax="842" yMax="1588">
      <contour>
        <pt x="142" y="226" on="1"/>
        <pt x="142" y="1588" on="1"/>
        <pt x="842" y="1588" on="1"/>
        <pt x="842" y="226" on="1"/>
      </contour>
      <contour>
        <pt x="284" y="368" on="1"/>
        <pt x="700" y="368" on="1"/>
        <pt x="700" y="1447" on="1"/>
        <pt x="284" y="1447" on="1"/>
      </contour>
    </TTGlyph>
    <TTGlyph name="kehehmedialarabic" xMin="142" yMin="226" xMax="842" yMax="1588">
      <contour>
        <pt x="142" y="226" on="1"/>
        <pt x="142" y="1588" on="1"/>
        <pt x="842" y="1588" on="1"/>
        <pt x="842" y="226" on="1"/>
      </contour>
      <contour>
        <pt x="284" y="368" on="1"/>
        <pt x="700" y="368" on="1"/>
        <pt x="700" y="1447" on="1"/>
        <pt x="284" y="1447" on="1"/>
      </contour>
    </TTGlyph>
    <TTGlyph name="kirghizyifinal" xMin="142" yMin="226" xMax="842" yMax="1588">
      <contour>
        <pt x="142" y="226" on="1"/>
        <pt x="142" y="1588" on="1"/>
        <pt x="842" y="1588" on="1"/>
        <pt x="842" y="226" on="1"/>
      </contour>
      <contour>
        <pt x="284" y="368" on="1"/>
        <pt x="700" y="368" on="1"/>
        <pt x="700" y="1447" on="1"/>
        <pt x="284" y="1447" on="1"/>
      </contour>
    </TTGlyph>
    <TTGlyph name="lammeemjeeminitialarabic" xMin="142" yMin="226" xMax="842" yMax="1588">
      <contour>
        <pt x="142" y="226" on="1"/>
        <pt x="142" y="1588" on="1"/>
        <pt x="842" y="1588" on="1"/>
        <pt x="842" y="226" on="1"/>
      </contour>
      <contour>
        <pt x="284" y="368" on="1"/>
        <pt x="700" y="368" on="1"/>
        <pt x="700" y="1447" on="1"/>
        <pt x="284" y="1447" on="1"/>
      </contour>
    </TTGlyph>
    <TTGlyph name="lammeemkhahinitialarabic" xMin="142" yMin="226" xMax="842" yMax="1588">
      <contour>
        <pt x="142" y="226" on="1"/>
        <pt x="142" y="1588" on="1"/>
        <pt x="842" y="1588" on="1"/>
        <pt x="842" y="226" on="1"/>
      </contour>
      <contour>
        <pt x="284" y="368" on="1"/>
        <pt x="700" y="368" on="1"/>
        <pt x="700" y="1447" on="1"/>
        <pt x="284" y="1447" on="1"/>
      </contour>
    </TTGlyph>
    <TTGlyph name="lamthreedotsabovefinal" xMin="142" yMin="226" xMax="842" yMax="1588">
      <contour>
        <pt x="142" y="226" on="1"/>
        <pt x="142" y="1588" on="1"/>
        <pt x="842" y="1588" on="1"/>
        <pt x="842" y="226" on="1"/>
      </contour>
      <contour>
        <pt x="284" y="368" on="1"/>
        <pt x="700" y="368" on="1"/>
        <pt x="700" y="1447" on="1"/>
        <pt x="284" y="1447" on="1"/>
      </contour>
    </TTGlyph>
    <TTGlyph name="lamthreedotsaboveinitial" xMin="142" yMin="226" xMax="842" yMax="1588">
      <contour>
        <pt x="142" y="226" on="1"/>
        <pt x="142" y="1588" on="1"/>
        <pt x="842" y="1588" on="1"/>
        <pt x="842" y="226" on="1"/>
      </contour>
      <contour>
        <pt x="284" y="368" on="1"/>
        <pt x="700" y="368" on="1"/>
        <pt x="700" y="1447" on="1"/>
        <pt x="284" y="1447" on="1"/>
      </contour>
    </TTGlyph>
    <TTGlyph name="lamthreedotsabovemedial" xMin="142" yMin="226" xMax="842" yMax="1588">
      <contour>
        <pt x="142" y="226" on="1"/>
        <pt x="142" y="1588" on="1"/>
        <pt x="842" y="1588" on="1"/>
        <pt x="842" y="226" on="1"/>
      </contour>
      <contour>
        <pt x="284" y="368" on="1"/>
        <pt x="700" y="368" on="1"/>
        <pt x="700" y="1447" on="1"/>
        <pt x="284" y="1447" on="1"/>
      </contour>
    </TTGlyph>
    <TTGlyph name="less" xMin="142" yMin="226" xMax="842" yMax="1588">
      <contour>
        <pt x="142" y="226" on="1"/>
        <pt x="142" y="1588" on="1"/>
        <pt x="842" y="1588" on="1"/>
        <pt x="842" y="226" on="1"/>
      </contour>
      <contour>
        <pt x="284" y="368" on="1"/>
        <pt x="700" y="368" on="1"/>
        <pt x="700" y="1447" on="1"/>
        <pt x="284" y="1447" on="1"/>
      </contour>
    </TTGlyph>
    <TTGlyph name="meemmeemisolatedarabic" xMin="142" yMin="226" xMax="842" yMax="1588">
      <contour>
        <pt x="142" y="226" on="1"/>
        <pt x="142" y="1588" on="1"/>
        <pt x="842" y="1588" on="1"/>
        <pt x="842" y="226" on="1"/>
      </contour>
      <contour>
        <pt x="284" y="368" on="1"/>
        <pt x="700" y="368" on="1"/>
        <pt x="700" y="1447" on="1"/>
        <pt x="284" y="1447" on="1"/>
      </contour>
    </TTGlyph>
    <TTGlyph name="multiply" xMin="142" yMin="226" xMax="842" yMax="1588">
      <contour>
        <pt x="142" y="226" on="1"/>
        <pt x="142" y="1588" on="1"/>
        <pt x="842" y="1588" on="1"/>
        <pt x="842" y="226" on="1"/>
      </contour>
      <contour>
        <pt x="284" y="368" on="1"/>
        <pt x="700" y="368" on="1"/>
        <pt x="700" y="1447" on="1"/>
        <pt x="284" y="1447" on="1"/>
      </contour>
    </TTGlyph>
    <TTGlyph name="noonghunnafinalarabic" xMin="142" yMin="226" xMax="842" yMax="1588">
      <contour>
        <pt x="142" y="226" on="1"/>
        <pt x="142" y="1588" on="1"/>
        <pt x="842" y="1588" on="1"/>
        <pt x="842" y="226" on="1"/>
      </contour>
      <contour>
        <pt x="284" y="368" on="1"/>
        <pt x="700" y="368" on="1"/>
        <pt x="700" y="1447" on="1"/>
        <pt x="284" y="1447" on="1"/>
      </contour>
    </TTGlyph>
    <TTGlyph name="noonjeemisolatedarabic" xMin="142" yMin="226" xMax="842" yMax="1588">
      <contour>
        <pt x="142" y="226" on="1"/>
        <pt x="142" y="1588" on="1"/>
        <pt x="842" y="1588" on="1"/>
        <pt x="842" y="226" on="1"/>
      </contour>
      <contour>
        <pt x="284" y="368" on="1"/>
        <pt x="700" y="368" on="1"/>
        <pt x="700" y="1447" on="1"/>
        <pt x="284" y="1447" on="1"/>
      </contour>
    </TTGlyph>
    <TTGlyph name="noonmeemisolatedarabic" xMin="142" yMin="226" xMax="842" yMax="1588">
      <contour>
        <pt x="142" y="226" on="1"/>
        <pt x="142" y="1588" on="1"/>
        <pt x="842" y="1588" on="1"/>
        <pt x="842" y="226" on="1"/>
      </contour>
      <contour>
        <pt x="284" y="368" on="1"/>
        <pt x="700" y="368" on="1"/>
        <pt x="700" y="1447" on="1"/>
        <pt x="284" y="1447" on="1"/>
      </contour>
    </TTGlyph>
    <TTGlyph name="noonringfinal" xMin="142" yMin="226" xMax="842" yMax="1588">
      <contour>
        <pt x="142" y="226" on="1"/>
        <pt x="142" y="1588" on="1"/>
        <pt x="842" y="1588" on="1"/>
        <pt x="842" y="226" on="1"/>
      </contour>
      <contour>
        <pt x="284" y="368" on="1"/>
        <pt x="700" y="368" on="1"/>
        <pt x="700" y="1447" on="1"/>
        <pt x="284" y="1447" on="1"/>
      </contour>
    </TTGlyph>
    <TTGlyph name="noonringinitial" xMin="142" yMin="226" xMax="842" yMax="1588">
      <contour>
        <pt x="142" y="226" on="1"/>
        <pt x="142" y="1588" on="1"/>
        <pt x="842" y="1588" on="1"/>
        <pt x="842" y="226" on="1"/>
      </contour>
      <contour>
        <pt x="284" y="368" on="1"/>
        <pt x="700" y="368" on="1"/>
        <pt x="700" y="1447" on="1"/>
        <pt x="284" y="1447" on="1"/>
      </contour>
    </TTGlyph>
    <TTGlyph name="noonringmedial" xMin="142" yMin="226" xMax="842" yMax="1588">
      <contour>
        <pt x="142" y="226" on="1"/>
        <pt x="142" y="1588" on="1"/>
        <pt x="842" y="1588" on="1"/>
        <pt x="842" y="226" on="1"/>
      </contour>
      <contour>
        <pt x="284" y="368" on="1"/>
        <pt x="700" y="368" on="1"/>
        <pt x="700" y="1447" on="1"/>
        <pt x="284" y="1447" on="1"/>
      </contour>
    </TTGlyph>
    <TTGlyph name="numbersign" xMin="142" yMin="226" xMax="842" yMax="1588">
      <contour>
        <pt x="142" y="226" on="1"/>
        <pt x="142" y="1588" on="1"/>
        <pt x="842" y="1588" on="1"/>
        <pt x="842" y="226" on="1"/>
      </contour>
      <contour>
        <pt x="284" y="368" on="1"/>
        <pt x="700" y="368" on="1"/>
        <pt x="700" y="1447" on="1"/>
        <pt x="284" y="1447" on="1"/>
      </contour>
    </TTGlyph>
    <TTGlyph name="parenleft" xMin="142" yMin="226" xMax="842" yMax="1588">
      <contour>
        <pt x="142" y="226" on="1"/>
        <pt x="142" y="1588" on="1"/>
        <pt x="842" y="1588" on="1"/>
        <pt x="842" y="226" on="1"/>
      </contour>
      <contour>
        <pt x="284" y="368" on="1"/>
        <pt x="700" y="368" on="1"/>
        <pt x="700" y="1447" on="1"/>
        <pt x="284" y="1447" on="1"/>
      </contour>
    </TTGlyph>
    <TTGlyph name="parenright" xMin="142" yMin="226" xMax="842" yMax="1588">
      <contour>
        <pt x="142" y="226" on="1"/>
        <pt x="142" y="1588" on="1"/>
        <pt x="842" y="1588" on="1"/>
        <pt x="842" y="226" on="1"/>
      </contour>
      <contour>
        <pt x="284" y="368" on="1"/>
        <pt x="700" y="368" on="1"/>
        <pt x="700" y="1447" on="1"/>
        <pt x="284" y="1447" on="1"/>
      </contour>
    </TTGlyph>
    <TTGlyph name="pashtoefinal" xMin="142" yMin="226" xMax="842" yMax="1588">
      <contour>
        <pt x="142" y="226" on="1"/>
        <pt x="142" y="1588" on="1"/>
        <pt x="842" y="1588" on="1"/>
        <pt x="842" y="226" on="1"/>
      </contour>
      <contour>
        <pt x="284" y="368" on="1"/>
        <pt x="700" y="368" on="1"/>
        <pt x="700" y="1447" on="1"/>
        <pt x="284" y="1447" on="1"/>
      </contour>
    </TTGlyph>
    <TTGlyph name="pashtoeinitial" xMin="142" yMin="226" xMax="842" yMax="1588">
      <contour>
        <pt x="142" y="226" on="1"/>
        <pt x="142" y="1588" on="1"/>
        <pt x="842" y="1588" on="1"/>
        <pt x="842" y="226" on="1"/>
      </contour>
      <contour>
        <pt x="284" y="368" on="1"/>
        <pt x="700" y="368" on="1"/>
        <pt x="700" y="1447" on="1"/>
        <pt x="284" y="1447" on="1"/>
      </contour>
    </TTGlyph>
    <TTGlyph name="pashtoemedial" xMin="142" yMin="226" xMax="842" yMax="1588">
      <contour>
        <pt x="142" y="226" on="1"/>
        <pt x="142" y="1588" on="1"/>
        <pt x="842" y="1588" on="1"/>
        <pt x="842" y="226" on="1"/>
      </contour>
      <contour>
        <pt x="284" y="368" on="1"/>
        <pt x="700" y="368" on="1"/>
        <pt x="700" y="1447" on="1"/>
        <pt x="284" y="1447" on="1"/>
      </contour>
    </TTGlyph>
    <TTGlyph name="pehfinalarabic" xMin="142" yMin="226" xMax="842" yMax="1588">
      <contour>
        <pt x="142" y="226" on="1"/>
        <pt x="142" y="1588" on="1"/>
        <pt x="842" y="1588" on="1"/>
        <pt x="842" y="226" on="1"/>
      </contour>
      <contour>
        <pt x="284" y="368" on="1"/>
        <pt x="700" y="368" on="1"/>
        <pt x="700" y="1447" on="1"/>
        <pt x="284" y="1447" on="1"/>
      </contour>
    </TTGlyph>
    <TTGlyph name="pehinitialarabic" xMin="142" yMin="226" xMax="842" yMax="1588">
      <contour>
        <pt x="142" y="226" on="1"/>
        <pt x="142" y="1588" on="1"/>
        <pt x="842" y="1588" on="1"/>
        <pt x="842" y="226" on="1"/>
      </contour>
      <contour>
        <pt x="284" y="368" on="1"/>
        <pt x="700" y="368" on="1"/>
        <pt x="700" y="1447" on="1"/>
        <pt x="284" y="1447" on="1"/>
      </contour>
    </TTGlyph>
    <TTGlyph name="pehmedialarabic" xMin="142" yMin="226" xMax="842" yMax="1588">
      <contour>
        <pt x="142" y="226" on="1"/>
        <pt x="142" y="1588" on="1"/>
        <pt x="842" y="1588" on="1"/>
        <pt x="842" y="226" on="1"/>
      </contour>
      <contour>
        <pt x="284" y="368" on="1"/>
        <pt x="700" y="368" on="1"/>
        <pt x="700" y="1447" on="1"/>
        <pt x="284" y="1447" on="1"/>
      </contour>
    </TTGlyph>
    <TTGlyph name="percent" xMin="142" yMin="226" xMax="842" yMax="1588">
      <contour>
        <pt x="142" y="226" on="1"/>
        <pt x="142" y="1588" on="1"/>
        <pt x="842" y="1588" on="1"/>
        <pt x="842" y="226" on="1"/>
      </contour>
      <contour>
        <pt x="284" y="368" on="1"/>
        <pt x="700" y="368" on="1"/>
        <pt x="700" y="1447" on="1"/>
        <pt x="284" y="1447" on="1"/>
      </contour>
    </TTGlyph>
    <TTGlyph name="period" xMin="142" yMin="226" xMax="842" yMax="1588">
      <contour>
        <pt x="142" y="226" on="1"/>
        <pt x="142" y="1588" on="1"/>
        <pt x="842" y="1588" on="1"/>
        <pt x="842" y="226" on="1"/>
      </contour>
      <contour>
        <pt x="284" y="368" on="1"/>
        <pt x="700" y="368" on="1"/>
        <pt x="700" y="1447" on="1"/>
        <pt x="284" y="1447" on="1"/>
      </contour>
    </TTGlyph>
    <TTGlyph name="plus" xMin="142" yMin="226" xMax="842" yMax="1588">
      <contour>
        <pt x="142" y="226" on="1"/>
        <pt x="142" y="1588" on="1"/>
        <pt x="842" y="1588" on="1"/>
        <pt x="842" y="226" on="1"/>
      </contour>
      <contour>
        <pt x="284" y="368" on="1"/>
        <pt x="700" y="368" on="1"/>
        <pt x="700" y="1447" on="1"/>
        <pt x="284" y="1447" on="1"/>
      </contour>
    </TTGlyph>
    <TTGlyph name="quotedbl" xMin="142" yMin="226" xMax="842" yMax="1588">
      <contour>
        <pt x="142" y="226" on="1"/>
        <pt x="142" y="1588" on="1"/>
        <pt x="842" y="1588" on="1"/>
        <pt x="842" y="226" on="1"/>
      </contour>
      <contour>
        <pt x="284" y="368" on="1"/>
        <pt x="700" y="368" on="1"/>
        <pt x="700" y="1447" on="1"/>
        <pt x="284" y="1447" on="1"/>
      </contour>
    </TTGlyph>
    <TTGlyph name="quotesingle" xMin="142" yMin="226" xMax="842" yMax="1588">
      <contour>
        <pt x="142" y="226" on="1"/>
        <pt x="142" y="1588" on="1"/>
        <pt x="842" y="1588" on="1"/>
        <pt x="842" y="226" on="1"/>
      </contour>
      <contour>
        <pt x="284" y="368" on="1"/>
        <pt x="700" y="368" on="1"/>
        <pt x="700" y="1447" on="1"/>
        <pt x="284" y="1447" on="1"/>
      </contour>
    </TTGlyph>
    <TTGlyph name="rehdotbelowdotabovefinal" xMin="142" yMin="226" xMax="842" yMax="1588">
      <contour>
        <pt x="142" y="226" on="1"/>
        <pt x="142" y="1588" on="1"/>
        <pt x="842" y="1588" on="1"/>
        <pt x="842" y="226" on="1"/>
      </contour>
      <contour>
        <pt x="284" y="368" on="1"/>
        <pt x="700" y="368" on="1"/>
        <pt x="700" y="1447" on="1"/>
        <pt x="284" y="1447" on="1"/>
      </contour>
    </TTGlyph>
    <TTGlyph name="rehringfinal" xMin="142" yMin="226" xMax="842" yMax="1588">
      <contour>
        <pt x="142" y="226" on="1"/>
        <pt x="142" y="1588" on="1"/>
        <pt x="842" y="1588" on="1"/>
        <pt x="842" y="226" on="1"/>
      </contour>
      <contour>
        <pt x="284" y="368" on="1"/>
        <pt x="700" y="368" on="1"/>
        <pt x="700" y="1447" on="1"/>
        <pt x="284" y="1447" on="1"/>
      </contour>
    </TTGlyph>
    <TTGlyph name="rrehfinalarabic" xMin="142" yMin="226" xMax="842" yMax="1588">
      <contour>
        <pt x="142" y="226" on="1"/>
        <pt x="142" y="1588" on="1"/>
        <pt x="842" y="1588" on="1"/>
        <pt x="842" y="226" on="1"/>
      </contour>
      <contour>
        <pt x="284" y="368" on="1"/>
        <pt x="700" y="368" on="1"/>
        <pt x="700" y="1447" on="1"/>
        <pt x="284" y="1447" on="1"/>
      </contour>
    </TTGlyph>
    <TTGlyph name="seendotbelowdotabovefinal" xMin="142" yMin="226" xMax="842" yMax="1588">
      <contour>
        <pt x="142" y="226" on="1"/>
        <pt x="142" y="1588" on="1"/>
        <pt x="842" y="1588" on="1"/>
        <pt x="842" y="226" on="1"/>
      </contour>
      <contour>
        <pt x="284" y="368" on="1"/>
        <pt x="700" y="368" on="1"/>
        <pt x="700" y="1447" on="1"/>
        <pt x="284" y="1447" on="1"/>
      </contour>
    </TTGlyph>
    <TTGlyph name="seendotbelowdotaboveinitial" xMin="142" yMin="226" xMax="842" yMax="1588">
      <contour>
        <pt x="142" y="226" on="1"/>
        <pt x="142" y="1588" on="1"/>
        <pt x="842" y="1588" on="1"/>
        <pt x="842" y="226" on="1"/>
      </contour>
      <contour>
        <pt x="284" y="368" on="1"/>
        <pt x="700" y="368" on="1"/>
        <pt x="700" y="1447" on="1"/>
        <pt x="284" y="1447" on="1"/>
      </contour>
    </TTGlyph>
    <TTGlyph name="seendotbelowdotabovemedial" xMin="142" yMin="226" xMax="842" yMax="1588">
      <contour>
        <pt x="142" y="226" on="1"/>
        <pt x="142" y="1588" on="1"/>
        <pt x="842" y="1588" on="1"/>
        <pt x="842" y="226" on="1"/>
      </contour>
      <contour>
        <pt x="284" y="368" on="1"/>
        <pt x="700" y="368" on="1"/>
        <pt x="700" y="1447" on="1"/>
        <pt x="284" y="1447" on="1"/>
      </contour>
    </TTGlyph>
    <TTGlyph name="shaddadammaarabic" xMin="142" yMin="226" xMax="842" yMax="1588">
      <contour>
        <pt x="142" y="226" on="1"/>
        <pt x="142" y="1588" on="1"/>
        <pt x="842" y="1588" on="1"/>
        <pt x="842" y="226" on="1"/>
      </contour>
      <contour>
        <pt x="284" y="368" on="1"/>
        <pt x="700" y="368" on="1"/>
        <pt x="700" y="1447" on="1"/>
        <pt x="284" y="1447" on="1"/>
      </contour>
    </TTGlyph>
    <TTGlyph name="shaddadammatanarabic" xMin="142" yMin="226" xMax="842" yMax="1588">
      <contour>
        <pt x="142" y="226" on="1"/>
        <pt x="142" y="1588" on="1"/>
        <pt x="842" y="1588" on="1"/>
        <pt x="842" y="226" on="1"/>
      </contour>
      <contour>
        <pt x="284" y="368" on="1"/>
        <pt x="700" y="368" on="1"/>
        <pt x="700" y="1447" on="1"/>
        <pt x="284" y="1447" on="1"/>
      </contour>
    </TTGlyph>
    <TTGlyph name="shaddafathaarabic" xMin="142" yMin="226" xMax="842" yMax="1588">
      <contour>
        <pt x="142" y="226" on="1"/>
        <pt x="142" y="1588" on="1"/>
        <pt x="842" y="1588" on="1"/>
        <pt x="842" y="226" on="1"/>
      </contour>
      <contour>
        <pt x="284" y="368" on="1"/>
        <pt x="700" y="368" on="1"/>
        <pt x="700" y="1447" on="1"/>
        <pt x="284" y="1447" on="1"/>
      </contour>
    </TTGlyph>
    <TTGlyph name="shaddakasraarabic" xMin="142" yMin="226" xMax="842" yMax="1588">
      <contour>
        <pt x="142" y="226" on="1"/>
        <pt x="142" y="1588" on="1"/>
        <pt x="842" y="1588" on="1"/>
        <pt x="842" y="226" on="1"/>
      </contour>
      <contour>
        <pt x="284" y="368" on="1"/>
        <pt x="700" y="368" on="1"/>
        <pt x="700" y="1447" on="1"/>
        <pt x="284" y="1447" on="1"/>
      </contour>
    </TTGlyph>
    <TTGlyph name="shaddakasratanarabic" xMin="142" yMin="226" xMax="842" yMax="1588">
      <contour>
        <pt x="142" y="226" on="1"/>
        <pt x="142" y="1588" on="1"/>
        <pt x="842" y="1588" on="1"/>
        <pt x="842" y="226" on="1"/>
      </contour>
      <contour>
        <pt x="284" y="368" on="1"/>
        <pt x="700" y="368" on="1"/>
        <pt x="700" y="1447" on="1"/>
        <pt x="284" y="1447" on="1"/>
      </contour>
    </TTGlyph>
    <TTGlyph name="slash" xMin="142" yMin="226" xMax="842" yMax="1588">
      <contour>
        <pt x="142" y="226" on="1"/>
        <pt x="142" y="1588" on="1"/>
        <pt x="842" y="1588" on="1"/>
        <pt x="842" y="226" on="1"/>
      </contour>
      <contour>
        <pt x="284" y="368" on="1"/>
        <pt x="700" y="368" on="1"/>
        <pt x="700" y="1447" on="1"/>
        <pt x="284" y="1447" on="1"/>
      </contour>
    </TTGlyph>
    <TTGlyph name="space" xMin="142" yMin="226" xMax="842" yMax="1588">
      <contour>
        <pt x="142" y="226" on="1"/>
        <pt x="142" y="1588" on="1"/>
        <pt x="842" y="1588" on="1"/>
        <pt x="842" y="226" on="1"/>
      </contour>
      <contour>
        <pt x="284" y="368" on="1"/>
        <pt x="700" y="368" on="1"/>
        <pt x="700" y="1447" on="1"/>
        <pt x="284" y="1447" on="1"/>
      </contour>
    </TTGlyph>
    <TTGlyph name="tchehfinalarabic" xMin="142" yMin="226" xMax="842" yMax="1588">
      <contour>
        <pt x="142" y="226" on="1"/>
        <pt x="142" y="1588" on="1"/>
        <pt x="842" y="1588" on="1"/>
        <pt x="842" y="226" on="1"/>
      </contour>
      <contour>
        <pt x="284" y="368" on="1"/>
        <pt x="700" y="368" on="1"/>
        <pt x="700" y="1447" on="1"/>
        <pt x="284" y="1447" on="1"/>
      </contour>
    </TTGlyph>
    <TTGlyph name="tchehinitialarabic" xMin="142" yMin="226" xMax="842" yMax="1588">
      <contour>
        <pt x="142" y="226" on="1"/>
        <pt x="142" y="1588" on="1"/>
        <pt x="842" y="1588" on="1"/>
        <pt x="842" y="226" on="1"/>
      </contour>
      <contour>
        <pt x="284" y="368" on="1"/>
        <pt x="700" y="368" on="1"/>
        <pt x="700" y="1447" on="1"/>
        <pt x="284" y="1447" on="1"/>
      </contour>
    </TTGlyph>
    <TTGlyph name="tchehmedialarabic" xMin="142" yMin="226" xMax="842" yMax="1588">
      <contour>
        <pt x="142" y="226" on="1"/>
        <pt x="142" y="1588" on="1"/>
        <pt x="842" y="1588" on="1"/>
        <pt x="842" y="226" on="1"/>
      </contour>
      <contour>
        <pt x="284" y="368" on="1"/>
        <pt x="700" y="368" on="1"/>
        <pt x="700" y="1447" on="1"/>
        <pt x="284" y="1447" on="1"/>
      </contour>
    </TTGlyph>
    <TTGlyph name="tehhahisolatedarabic" xMin="142" yMin="226" xMax="842" yMax="1588">
      <contour>
        <pt x="142" y="226" on="1"/>
        <pt x="142" y="1588" on="1"/>
        <pt x="842" y="1588" on="1"/>
        <pt x="842" y="226" on="1"/>
      </contour>
      <contour>
        <pt x="284" y="368" on="1"/>
        <pt x="700" y="368" on="1"/>
        <pt x="700" y="1447" on="1"/>
        <pt x="284" y="1447" on="1"/>
      </contour>
    </TTGlyph>
    <TTGlyph name="tehjeemisolatedarabic" xMin="142" yMin="226" xMax="842" yMax="1588">
      <contour>
        <pt x="142" y="226" on="1"/>
        <pt x="142" y="1588" on="1"/>
        <pt x="842" y="1588" on="1"/>
        <pt x="842" y="226" on="1"/>
      </contour>
      <contour>
        <pt x="284" y="368" on="1"/>
        <pt x="700" y="368" on="1"/>
        <pt x="700" y="1447" on="1"/>
        <pt x="284" y="1447" on="1"/>
      </contour>
    </TTGlyph>
    <TTGlyph name="tehmeemisolatedarabic" xMin="142" yMin="226" xMax="842" yMax="1588">
      <contour>
        <pt x="142" y="226" on="1"/>
        <pt x="142" y="1588" on="1"/>
        <pt x="842" y="1588" on="1"/>
        <pt x="842" y="226" on="1"/>
      </contour>
      <contour>
        <pt x="284" y="368" on="1"/>
        <pt x="700" y="368" on="1"/>
        <pt x="700" y="1447" on="1"/>
        <pt x="284" y="1447" on="1"/>
      </contour>
    </TTGlyph>
    <TTGlyph name="tehnoonfinalarabic" xMin="142" yMin="226" xMax="842" yMax="1588">
      <contour>
        <pt x="142" y="226" on="1"/>
        <pt x="142" y="1588" on="1"/>
        <pt x="842" y="1588" on="1"/>
        <pt x="842" y="226" on="1"/>
      </contour>
      <contour>
        <pt x="284" y="368" on="1"/>
        <pt x="700" y="368" on="1"/>
        <pt x="700" y="1447" on="1"/>
        <pt x="284" y="1447" on="1"/>
      </contour>
    </TTGlyph>
    <TTGlyph name="tehringfinal" xMin="142" yMin="226" xMax="842" yMax="1588">
      <contour>
        <pt x="142" y="226" on="1"/>
        <pt x="142" y="1588" on="1"/>
        <pt x="842" y="1588" on="1"/>
        <pt x="842" y="226" on="1"/>
      </contour>
      <contour>
        <pt x="284" y="368" on="1"/>
        <pt x="700" y="368" on="1"/>
        <pt x="700" y="1447" on="1"/>
        <pt x="284" y="1447" on="1"/>
      </contour>
    </TTGlyph>
    <TTGlyph name="tehringinitial" xMin="142" yMin="226" xMax="842" yMax="1588">
      <contour>
        <pt x="142" y="226" on="1"/>
        <pt x="142" y="1588" on="1"/>
        <pt x="842" y="1588" on="1"/>
        <pt x="842" y="226" on="1"/>
      </contour>
      <contour>
        <pt x="284" y="368" on="1"/>
        <pt x="700" y="368" on="1"/>
        <pt x="700" y="1447" on="1"/>
        <pt x="284" y="1447" on="1"/>
      </contour>
    </TTGlyph>
    <TTGlyph name="tehringmedial" xMin="142" yMin="226" xMax="842" yMax="1588">
      <contour>
        <pt x="142" y="226" on="1"/>
        <pt x="142" y="1588" on="1"/>
        <pt x="842" y="1588" on="1"/>
        <pt x="842" y="226" on="1"/>
      </contour>
      <contour>
        <pt x="284" y="368" on="1"/>
        <pt x="700" y="368" on="1"/>
        <pt x="700" y="1447" on="1"/>
        <pt x="284" y="1447" on="1"/>
      </contour>
    </TTGlyph>
    <TTGlyph name="ttehfinalarabic" xMin="142" yMin="226" xMax="842" yMax="1588">
      <contour>
        <pt x="142" y="226" on="1"/>
        <pt x="142" y="1588" on="1"/>
        <pt x="842" y="1588" on="1"/>
        <pt x="842" y="226" on="1"/>
      </contour>
      <contour>
        <pt x="284" y="368" on="1"/>
        <pt x="700" y="368" on="1"/>
        <pt x="700" y="1447" on="1"/>
        <pt x="284" y="1447" on="1"/>
      </contour>
    </TTGlyph>
    <TTGlyph name="ttehinitialarabic" xMin="142" yMin="226" xMax="842" yMax="1588">
      <contour>
        <pt x="142" y="226" on="1"/>
        <pt x="142" y="1588" on="1"/>
        <pt x="842" y="1588" on="1"/>
        <pt x="842" y="226" on="1"/>
      </contour>
      <contour>
        <pt x="284" y="368" on="1"/>
        <pt x="700" y="368" on="1"/>
        <pt x="700" y="1447" on="1"/>
        <pt x="284" y="1447" on="1"/>
      </contour>
    </TTGlyph>
    <TTGlyph name="ttehmedialarabic" xMin="142" yMin="226" xMax="842" yMax="1588">
      <contour>
        <pt x="142" y="226" on="1"/>
        <pt x="142" y="1588" on="1"/>
        <pt x="842" y="1588" on="1"/>
        <pt x="842" y="226" on="1"/>
      </contour>
      <contour>
        <pt x="284" y="368" on="1"/>
        <pt x="700" y="368" on="1"/>
        <pt x="700" y="1447" on="1"/>
        <pt x="284" y="1447" on="1"/>
      </contour>
    </TTGlyph>
    <TTGlyph name="uni000D" xMin="142" yMin="226" xMax="842" yMax="1588">
      <contour>
        <pt x="142" y="226" on="1"/>
        <pt x="142" y="1588" on="1"/>
        <pt x="842" y="1588" on="1"/>
        <pt x="842" y="226" on="1"/>
      </contour>
      <contour>
        <pt x="284" y="368" on="1"/>
        <pt x="700" y="368" on="1"/>
        <pt x="700" y="1447" on="1"/>
        <pt x="284" y="1447" on="1"/>
      </contour>
    </TTGlyph>
    <TTGlyph name="uni00A0" xMin="142" yMin="226" xMax="842" yMax="1588">
      <contour>
        <pt x="142" y="226" on="1"/>
        <pt x="142" y="1588" on="1"/>
        <pt x="842" y="1588" on="1"/>
        <pt x="842" y="226" on="1"/>
      </contour>
      <contour>
        <pt x="284" y="368" on="1"/>
        <pt x="700" y="368" on="1"/>
        <pt x="700" y="1447" on="1"/>
        <pt x="284" y="1447" on="1"/>
      </contour>
    </TTGlyph>
    <TTGlyph name="uni00AD" xMin="142" yMin="226" xMax="842" yMax="1588">
      <contour>
        <pt x="142" y="226" on="1"/>
        <pt x="142" y="1588" on="1"/>
        <pt x="842" y="1588" on="1"/>
        <pt x="842" y="226" on="1"/>
      </contour>
      <contour>
        <pt x="284" y="368" on="1"/>
        <pt x="700" y="368" on="1"/>
        <pt x="700" y="1447" on="1"/>
        <pt x="284" y="1447" on="1"/>
      </contour>
    </TTGlyph>
    <TTGlyph name="uni0653" xMin="142" yMin="226" xMax="842" yMax="1588">
      <contour>
        <pt x="142" y="226" on="1"/>
        <pt x="142" y="1588" on="1"/>
        <pt x="842" y="1588" on="1"/>
        <pt x="842" y="226" on="1"/>
      </contour>
      <contour>
        <pt x="284" y="368" on="1"/>
        <pt x="700" y="368" on="1"/>
        <pt x="700" y="1447" on="1"/>
        <pt x="284" y="1447" on="1"/>
      </contour>
    </TTGlyph>
    <TTGlyph name="uni0654" xMin="142" yMin="226" xMax="842" yMax="1588">
      <contour>
        <pt x="142" y="226" on="1"/>
        <pt x="142" y="1588" on="1"/>
        <pt x="842" y="1588" on="1"/>
        <pt x="842" y="226" on="1"/>
      </contour>
      <contour>
        <pt x="284" y="368" on="1"/>
        <pt x="700" y="368" on="1"/>
        <pt x="700" y="1447" on="1"/>
        <pt x="284" y="1447" on="1"/>
      </contour>
    </TTGlyph>
    <TTGlyph name="uni0655" xMin="142" yMin="226" xMax="842" yMax="1588">
      <contour>
        <pt x="142" y="226" on="1"/>
        <pt x="142" y="1588" on="1"/>
        <pt x="842" y="1588" on="1"/>
        <pt x="842" y="226" on="1"/>
      </contour>
      <contour>
        <pt x="284" y="368" on="1"/>
        <pt x="700" y="368" on="1"/>
        <pt x="700" y="1447" on="1"/>
        <pt x="284" y="1447" on="1"/>
      </contour>
    </TTGlyph>
    <TTGlyph name="uni066B" xMin="142" yMin="226" xMax="842" yMax="1588">
      <contour>
        <pt x="142" y="226" on="1"/>
        <pt x="142" y="1588" on="1"/>
        <pt x="842" y="1588" on="1"/>
        <pt x="842" y="226" on="1"/>
      </contour>
      <contour>
        <pt x="284" y="368" on="1"/>
        <pt x="700" y="368" on="1"/>
        <pt x="700" y="1447" on="1"/>
        <pt x="284" y="1447" on="1"/>
      </contour>
    </TTGlyph>
    <TTGlyph name="uni066C" xMin="142" yMin="226" xMax="842" yMax="1588">
      <contour>
        <pt x="142" y="226" on="1"/>
        <pt x="142" y="1588" on="1"/>
        <pt x="842" y="1588" on="1"/>
        <pt x="842" y="226" on="1"/>
      </contour>
      <contour>
        <pt x="284" y="368" on="1"/>
        <pt x="700" y="368" on="1"/>
        <pt x="700" y="1447" on="1"/>
        <pt x="284" y="1447" on="1"/>
      </contour>
    </TTGlyph>
    <TTGlyph name="uni0671" xMin="142" yMin="226" xMax="842" yMax="1588">
      <contour>
        <pt x="142" y="226" on="1"/>
        <pt x="142" y="1588" on="1"/>
        <pt x="842" y="1588" on="1"/>
        <pt x="842" y="226" on="1"/>
      </contour>
      <contour>
        <pt x="284" y="368" on="1"/>
        <pt x="700" y="368" on="1"/>
        <pt x="700" y="1447" on="1"/>
        <pt x="284" y="1447" on="1"/>
      </contour>
    </TTGlyph>
    <TTGlyph name="uni067C" xMin="142" yMin="226" xMax="842" yMax="1588">
      <contour>
        <pt x="142" y="226" on="1"/>
        <pt x="142" y="1588" on="1"/>
        <pt x="842" y="1588" on="1"/>
        <pt x="842" y="226" on="1"/>
      </contour>
      <contour>
        <pt x="284" y="368" on="1"/>
        <pt x="700" y="368" on="1"/>
        <pt x="700" y="1447" on="1"/>
        <pt x="284" y="1447" on="1"/>
      </contour>
    </TTGlyph>
    <TTGlyph name="uni0681" xMin="142" yMin="226" xMax="842" yMax="1588">
      <contour>
        <pt x="142" y="226" on="1"/>
        <pt x="142" y="1588" on="1"/>
        <pt x="842" y="1588" on="1"/>
        <pt x="842" y="226" on="1"/>
      </contour>
      <contour>
        <pt x="284" y="368" on="1"/>
        <pt x="700" y="368" on="1"/>
        <pt x="700" y="1447" on="1"/>
        <pt x="284" y="1447" on="1"/>
      </contour>
    </TTGlyph>
    <TTGlyph name="uni0685" xMin="142" yMin="226" xMax="842" yMax="1588">
      <contour>
        <pt x="142" y="226" on="1"/>
        <pt x="142" y="1588" on="1"/>
        <pt x="842" y="1588" on="1"/>
        <pt x="842" y="226" on="1"/>
      </contour>
      <contour>
        <pt x="284" y="368" on="1"/>
        <pt x="700" y="368" on="1"/>
        <pt x="700" y="1447" on="1"/>
        <pt x="284" y="1447" on="1"/>
      </contour>
    </TTGlyph>
    <TTGlyph name="uni0689" xMin="142" yMin="226" xMax="842" yMax="1588">
      <contour>
        <pt x="142" y="226" on="1"/>
        <pt x="142" y="1588" on="1"/>
        <pt x="842" y="1588" on="1"/>
        <pt x="842" y="226" on="1"/>
      </contour>
      <contour>
        <pt x="284" y="368" on="1"/>
        <pt x="700" y="368" on="1"/>
        <pt x="700" y="1447" on="1"/>
        <pt x="284" y="1447" on="1"/>
      </contour>
    </TTGlyph>
    <TTGlyph name="uni0693" xMin="142" yMin="226" xMax="842" yMax="1588">
      <contour>
        <pt x="142" y="226" on="1"/>
        <pt x="142" y="1588" on="1"/>
        <pt x="842" y="1588" on="1"/>
        <pt x="842" y="226" on="1"/>
      </contour>
      <contour>
        <pt x="284" y="368" on="1"/>
        <pt x="700" y="368" on="1"/>
        <pt x="700" y="1447" on="1"/>
        <pt x="284" y="1447" on="1"/>
      </contour>
    </TTGlyph>
    <TTGlyph name="uni0696" xMin="142" yMin="226" xMax="842" yMax="1588">
      <contour>
        <pt x="142" y="226" on="1"/>
        <pt x="142" y="1588" on="1"/>
        <pt x="842" y="1588" on="1"/>
        <pt x="842" y="226" on="1"/>
      </contour>
      <contour>
        <pt x="284" y="368" on="1"/>
        <pt x="700" y="368" on="1"/>
        <pt x="700" y="1447" on="1"/>
        <pt x="284" y="1447" on="1"/>
      </contour>
    </TTGlyph>
    <TTGlyph name="uni069A" xMin="142" yMin="226" xMax="842" yMax="1588">
      <contour>
        <pt x="142" y="226" on="1"/>
        <pt x="142" y="1588" on="1"/>
        <pt x="842" y="1588" on="1"/>
        <pt x="842" y="226" on="1"/>
      </contour>
      <contour>
        <pt x="284" y="368" on="1"/>
        <pt x="700" y="368" on="1"/>
        <pt x="700" y="1447" on="1"/>
        <pt x="284" y="1447" on="1"/>
      </contour>
    </TTGlyph>
    <TTGlyph name="uni06A9" xMin="142" yMin="226" xMax="842" yMax="1588">
      <contour>
        <pt x="142" y="226" on="1"/>
        <pt x="142" y="1588" on="1"/>
        <pt x="842" y="1588" on="1"/>
        <pt x="842" y="226" on="1"/>
      </contour>
      <contour>
        <pt x="284" y="368" on="1"/>
        <pt x="700" y="368" on="1"/>
        <pt x="700" y="1447" on="1"/>
        <pt x="284" y="1447" on="1"/>
      </contour>
    </TTGlyph>
    <TTGlyph name="uni06AB" xMin="142" yMin="226" xMax="842" yMax="1588">
      <contour>
        <pt x="142" y="226" on="1"/>
        <pt x="142" y="1588" on="1"/>
        <pt x="842" y="1588" on="1"/>
        <pt x="842" y="226" on="1"/>
      </contour>
      <contour>
        <pt x="284" y="368" on="1"/>
        <pt x="700" y="368" on="1"/>
        <pt x="700" y="1447" on="1"/>
        <pt x="284" y="1447" on="1"/>
      </contour>
    </TTGlyph>
    <TTGlyph name="uni06B7" xMin="142" yMin="226" xMax="842" yMax="1588">
      <contour>
        <pt x="142" y="226" on="1"/>
        <pt x="142" y="1588" on="1"/>
        <pt x="842" y="1588" on="1"/>
        <pt x="842" y="226" on="1"/>
      </contour>
      <contour>
        <pt x="284" y="368" on="1"/>
        <pt x="700" y="368" on="1"/>
        <pt x="700" y="1447" on="1"/>
        <pt x="284" y="1447" on="1"/>
      </contour>
    </TTGlyph>
    <TTGlyph name="uni06BC" xMin="142" yMin="226" xMax="842" yMax="1588">
      <contour>
        <pt x="142" y="226" on="1"/>
        <pt x="142" y="1588" on="1"/>
        <pt x="842" y="1588" on="1"/>
        <pt x="842" y="226" on="1"/>
      </contour>
      <contour>
        <pt x="284" y="368" on="1"/>
        <pt x="700" y="368" on="1"/>
        <pt x="700" y="1447" on="1"/>
        <pt x="284" y="1447" on="1"/>
      </contour>
    </TTGlyph>
    <TTGlyph name="uni06BE" xMin="142" yMin="226" xMax="842" yMax="1588">
      <contour>
        <pt x="142" y="226" on="1"/>
        <pt x="142" y="1588" on="1"/>
        <pt x="842" y="1588" on="1"/>
        <pt x="842" y="226" on="1"/>
      </contour>
      <contour>
        <pt x="284" y="368" on="1"/>
        <pt x="700" y="368" on="1"/>
        <pt x="700" y="1447" on="1"/>
        <pt x="284" y="1447" on="1"/>
      </contour>
    </TTGlyph>
    <TTGlyph name="uni06C2" xMin="142" yMin="226" xMax="842" yMax="1588">
      <contour>
        <pt x="142" y="226" on="1"/>
        <pt x="142" y="1588" on="1"/>
        <pt x="842" y="1588" on="1"/>
        <pt x="842" y="226" on="1"/>
      </contour>
      <contour>
        <pt x="284" y="368" on="1"/>
        <pt x="700" y="368" on="1"/>
        <pt x="700" y="1447" on="1"/>
        <pt x="284" y="1447" on="1"/>
      </contour>
    </TTGlyph>
    <TTGlyph name="uni06C7" xMin="142" yMin="226" xMax="842" yMax="1588">
      <contour>
        <pt x="142" y="226" on="1"/>
        <pt x="142" y="1588" on="1"/>
        <pt x="842" y="1588" on="1"/>
        <pt x="842" y="226" on="1"/>
      </contour>
      <contour>
        <pt x="284" y="368" on="1"/>
        <pt x="700" y="368" on="1"/>
        <pt x="700" y="1447" on="1"/>
        <pt x="284" y="1447" on="1"/>
      </contour>
    </TTGlyph>
    <TTGlyph name="uni06C9" xMin="142" yMin="226" xMax="842" yMax="1588">
      <contour>
        <pt x="142" y="226" on="1"/>
        <pt x="142" y="1588" on="1"/>
        <pt x="842" y="1588" on="1"/>
        <pt x="842" y="226" on="1"/>
      </contour>
      <contour>
        <pt x="284" y="368" on="1"/>
        <pt x="700" y="368" on="1"/>
        <pt x="700" y="1447" on="1"/>
        <pt x="284" y="1447" on="1"/>
      </contour>
    </TTGlyph>
    <TTGlyph name="uni06CC" xMin="142" yMin="226" xMax="842" yMax="1588">
      <contour>
        <pt x="142" y="226" on="1"/>
        <pt x="142" y="1588" on="1"/>
        <pt x="842" y="1588" on="1"/>
        <pt x="842" y="226" on="1"/>
      </contour>
      <contour>
        <pt x="284" y="368" on="1"/>
        <pt x="700" y="368" on="1"/>
        <pt x="700" y="1447" on="1"/>
        <pt x="284" y="1447" on="1"/>
      </contour>
    </TTGlyph>
    <TTGlyph name="uni06CD" xMin="142" yMin="226" xMax="842" yMax="1588">
      <contour>
        <pt x="142" y="226" on="1"/>
        <pt x="142" y="1588" on="1"/>
        <pt x="842" y="1588" on="1"/>
        <pt x="842" y="226" on="1"/>
      </contour>
      <contour>
        <pt x="284" y="368" on="1"/>
        <pt x="700" y="368" on="1"/>
        <pt x="700" y="1447" on="1"/>
        <pt x="284" y="1447" on="1"/>
      </contour>
    </TTGlyph>
    <TTGlyph name="uni06D0" xMin="142" yMin="226" xMax="842" yMax="1588">
      <contour>
        <pt x="142" y="226" on="1"/>
        <pt x="142" y="1588" on="1"/>
        <pt x="842" y="1588" on="1"/>
        <pt x="842" y="226" on="1"/>
      </contour>
      <contour>
        <pt x="284" y="368" on="1"/>
        <pt x="700" y="368" on="1"/>
        <pt x="700" y="1447" on="1"/>
        <pt x="284" y="1447" on="1"/>
      </contour>
    </TTGlyph>
    <TTGlyph name="uni06D1" xMin="142" yMin="226" xMax="842" yMax="1588">
      <contour>
        <pt x="142" y="226" on="1"/>
        <pt x="142" y="1588" on="1"/>
        <pt x="842" y="1588" on="1"/>
        <pt x="842" y="226" on="1"/>
      </contour>
      <contour>
        <pt x="284" y="368" on="1"/>
        <pt x="700" y="368" on="1"/>
        <pt x="700" y="1447" on="1"/>
        <pt x="284" y="1447" on="1"/>
      </contour>
    </TTGlyph>
    <TTGlyph name="uni06D3" xMin="142" yMin="226" xMax="842" yMax="1588">
      <contour>
        <pt x="142" y="226" on="1"/>
        <pt x="142" y="1588" on="1"/>
        <pt x="842" y="1588" on="1"/>
        <pt x="842" y="226" on="1"/>
      </contour>
      <contour>
        <pt x="284" y="368" on="1"/>
        <pt x="700" y="368" on="1"/>
        <pt x="700" y="1447" on="1"/>
        <pt x="284" y="1447" on="1"/>
      </contour>
    </TTGlyph>
    <TTGlyph name="uni06D4" xMin="142" yMin="226" xMax="842" yMax="1588">
      <contour>
        <pt x="142" y="226" on="1"/>
        <pt x="142" y="1588" on="1"/>
        <pt x="842" y="1588" on="1"/>
        <pt x="842" y="226" on="1"/>
      </contour>
      <contour>
        <pt x="284" y="368" on="1"/>
        <pt x="700" y="368" on="1"/>
        <pt x="700" y="1447" on="1"/>
        <pt x="284" y="1447" on="1"/>
      </contour>
    </TTGlyph>
    <TTGlyph name="uni06F0" xMin="142" yMin="226" xMax="842" yMax="1588">
      <contour>
        <pt x="142" y="226" on="1"/>
        <pt x="142" y="1588" on="1"/>
        <pt x="842" y="1588" on="1"/>
        <pt x="842" y="226" on="1"/>
      </contour>
      <contour>
        <pt x="284" y="368" on="1"/>
        <pt x="700" y="368" on="1"/>
        <pt x="700" y="1447" on="1"/>
        <pt x="284" y="1447" on="1"/>
      </contour>
    </TTGlyph>
    <TTGlyph name="uni06F1" xMin="142" yMin="226" xMax="842" yMax="1588">
      <contour>
        <pt x="142" y="226" on="1"/>
        <pt x="142" y="1588" on="1"/>
        <pt x="842" y="1588" on="1"/>
        <pt x="842" y="226" on="1"/>
      </contour>
      <contour>
        <pt x="284" y="368" on="1"/>
        <pt x="700" y="368" on="1"/>
        <pt x="700" y="1447" on="1"/>
        <pt x="284" y="1447" on="1"/>
      </contour>
    </TTGlyph>
    <TTGlyph name="uni06F2" xMin="142" yMin="226" xMax="842" yMax="1588">
      <contour>
        <pt x="142" y="226" on="1"/>
        <pt x="142" y="1588" on="1"/>
        <pt x="842" y="1588" on="1"/>
        <pt x="842" y="226" on="1"/>
      </contour>
      <contour>
        <pt x="284" y="368" on="1"/>
        <pt x="700" y="368" on="1"/>
        <pt x="700" y="1447" on="1"/>
        <pt x="284" y="1447" on="1"/>
      </contour>
    </TTGlyph>
    <TTGlyph name="uni06F3" xMin="142" yMin="226" xMax="842" yMax="1588">
      <contour>
        <pt x="142" y="226" on="1"/>
        <pt x="142" y="1588" on="1"/>
        <pt x="842" y="1588" on="1"/>
        <pt x="842" y="226" on="1"/>
      </contour>
      <contour>
        <pt x="284" y="368" on="1"/>
        <pt x="700" y="368" on="1"/>
        <pt x="700" y="1447" on="1"/>
        <pt x="284" y="1447" on="1"/>
      </contour>
    </TTGlyph>
    <TTGlyph name="uni06F4" xMin="142" yMin="226" xMax="842" yMax="1588">
      <contour>
        <pt x="142" y="226" on="1"/>
        <pt x="142" y="1588" on="1"/>
        <pt x="842" y="1588" on="1"/>
        <pt x="842" y="226" on="1"/>
      </contour>
      <contour>
        <pt x="284" y="368" on="1"/>
        <pt x="700" y="368" on="1"/>
        <pt x="700" y="1447" on="1"/>
        <pt x="284" y="1447" on="1"/>
      </contour>
    </TTGlyph>
    <TTGlyph name="uni06F5" xMin="142" yMin="226" xMax="842" yMax="1588">
      <contour>
        <pt x="142" y="226" on="1"/>
        <pt x="142" y="1588" on="1"/>
        <pt x="842" y="1588" on="1"/>
        <pt x="842" y="226" on="1"/>
      </contour>
      <contour>
        <pt x="284" y="368" on="1"/>
        <pt x="700" y="368" on="1"/>
        <pt x="700" y="1447" on="1"/>
        <pt x="284" y="1447" on="1"/>
      </contour>
    </TTGlyph>
    <TTGlyph name="uni06F6" xMin="142" yMin="226" xMax="842" yMax="1588">
      <contour>
        <pt x="142" y="226" on="1"/>
        <pt x="142" y="1588" on="1"/>
        <pt x="842" y="1588" on="1"/>
        <pt x="842" y="226" on="1"/>
      </contour>
      <contour>
        <pt x="284" y="368" on="1"/>
        <pt x="700" y="368" on="1"/>
        <pt x="700" y="1447" on="1"/>
        <pt x="284" y="1447" on="1"/>
      </contour>
    </TTGlyph>
    <TTGlyph name="uni06F7" xMin="142" yMin="226" xMax="842" yMax="1588">
      <contour>
        <pt x="142" y="226" on="1"/>
        <pt x="142" y="1588" on="1"/>
        <pt x="842" y="1588" on="1"/>
        <pt x="842" y="226" on="1"/>
      </contour>
      <contour>
        <pt x="284" y="368" on="1"/>
        <pt x="700" y="368" on="1"/>
        <pt x="700" y="1447" on="1"/>
        <pt x="284" y="1447" on="1"/>
      </contour>
    </TTGlyph>
    <TTGlyph name="uni06F8" xMin="142" yMin="226" xMax="842" yMax="1588">
      <contour>
        <pt x="142" y="226" on="1"/>
        <pt x="142" y="1588" on="1"/>
        <pt x="842" y="1588" on="1"/>
        <pt x="842" y="226" on="1"/>
      </contour>
      <contour>
        <pt x="284" y="368" on="1"/>
        <pt x="700" y="368" on="1"/>
        <pt x="700" y="1447" on="1"/>
        <pt x="284" y="1447" on="1"/>
      </contour>
    </TTGlyph>
    <TTGlyph name="uni06F9" xMin="142" yMin="226" xMax="842" yMax="1588">
      <contour>
        <pt x="142" y="226" on="1"/>
        <pt x="142" y="1588" on="1"/>
        <pt x="842" y="1588" on="1"/>
        <pt x="842" y="226" on="1"/>
      </contour>
      <contour>
        <pt x="284" y="368" on="1"/>
        <pt x="700" y="368" on="1"/>
        <pt x="700" y="1447" on="1"/>
        <pt x="284" y="1447" on="1"/>
      </contour>
    </TTGlyph>
    <TTGlyph name="uni2010" xMin="2" yMin="-574" xMax="2546" yMax="1785">
      <contour>
        <pt x="2404" y="1042" on="1"/>
        <pt x="2364" y="1018" on="1"/>
        <pt x="2364" y="1029" on="0"/>
        <pt x="2351" y="1055" on="1"/>
        <pt x="2332" y="1080" on="0"/>
        <pt x="2188" y="1203" on="0"/>
        <pt x="2172" y="1226" on="1"/>
        <pt x="2094" y="1335" on="0"/>
        <pt x="2087" y="1449" on="1"/>
        <pt x="2002" y="1431" on="0"/>
        <pt x="2002" y="1248" on="1"/>
        <pt x="2002" y="1160" on="0"/>
        <pt x="2022" y="1110" on="1"/>
        <pt x="1997" y="1131" on="0"/>
        <pt x="1971" y="1153" on="1"/>
        <pt x="1962" y="1201" on="0"/>
        <pt x="1962" y="1248" on="1"/>
        <pt x="1962" y="1351" on="0"/>
        <pt x="2046" y="1502" on="0"/>
        <pt x="2118" y="1523" on="1"/>
        <pt x="2121" y="1372" on="0"/>
        <pt x="2209" y="1254" on="1"/>
        <pt x="2226" y="1230" on="0"/>
        <pt x="2310" y="1158" on="1"/>
        <pt x="2383" y="1094" on="0"/>
        <pt x="2397" y="1063" on="1"/>
        <pt x="2404" y="1033" on="0"/>
      </contour>
      <contour>
        <pt x="2181" y="576" on="1"/>
        <pt x="2181" y="202" on="0"/>
        <pt x="1649" y="-330" on="0"/>
        <pt x="1274" y="-330" on="1"/>
        <pt x="900" y="-330" on="0"/>
        <pt x="367" y="202" on="0"/>
        <pt x="367" y="576" on="1"/>
        <pt x="367" y="939" on="0"/>
        <pt x="623" y="1202" on="1"/>
        <pt x="838" y="1423" on="0"/>
        <pt x="1086" y="1461" on="1"/>
        <pt x="1139" y="1469" on="0"/>
        <pt x="1182" y="1505" on="1"/>
        <pt x="1232" y="1547" on="0"/>
        <pt x="1232" y="1602" on="1"/>
        <pt x="1232" y="1662" on="0"/>
        <pt x="1146" y="1748" on="0"/>
        <pt x="1086" y="1748" on="1"/>
        <pt x="1027" y="1748" on="0"/>
        <pt x="938" y="1662" on="0"/>
        <pt x="938" y="1602" on="1"/>
        <pt x="938" y="1534" on="0"/>
        <pt x="994" y="1488" on="1"/>
        <pt x="882" y="1475" on="0"/>
        <pt x="745" y="1418" on="1"/>
        <pt x="652" y="1380" on="0"/>
        <pt x="584" y="1315" on="1"/>
        <pt x="539" y="1321" on="1"/>
        <pt x="602" y="1394" on="0"/>
        <pt x="739" y="1457" on="1"/>
        <pt x="806" y="1487" on="0"/>
        <pt x="931" y="1512" on="1"/>
        <pt x="901" y="1556" on="0"/>
        <pt x="901" y="1614" on="1"/>
        <pt x="901" y="1688" on="0"/>
        <pt x="960" y="1738" on="1"/>
        <pt x="1015" y="1785" on="0"/>
        <pt x="1086" y="1785" on="1"/>
        <pt x="1160" y="1785" on="0"/>
        <pt x="1216" y="1736" on="1"/>
        <pt x="1274" y="1684" on="0"/>
        <pt x="1274" y="1610" on="1"/>
        <pt x="1274" y="1531" on="0"/>
        <pt x="1214" y="1479" on="1"/>
        <pt x="1236" y="1481" on="0"/>
        <pt x="1274" y="1481" on="1"/>
        <pt x="1314" y="1481" on="0"/>
        <pt x="1335" y="1479" on="1"/>
        <pt x="1274" y="1531" on="0"/>
        <pt x="1274" y="1610" on="1"/>
        <pt x="1274" y="1684" on="0"/>
        <pt x="1332" y="1736" on="1"/>
        <pt x="1387" y="1785" on="0"/>
        <pt x="1462" y="1785" on="1"/>
        <pt x="1534" y="1785" on="0"/>
        <pt x="1589" y="1738" on="1"/>
        <pt x="1649" y="1689" on="0"/>
        <pt x="1649" y="1614" on="1"/>
        <pt x="1649" y="1556" on="0"/>
        <pt x="1619" y="1512" on="1"/>
        <pt x="1740" y="1488" on="0"/>
        <pt x="1808" y="1457" on="1"/>
        <pt x="1944" y="1396" on="0"/>
        <pt x="2010" y="1321" on="1"/>
        <pt x="1966" y="1315" on="1"/>
        <pt x="1892" y="1382" on="0"/>
        <pt x="1803" y="1418" on="1"/>
        <pt x="1663" y="1476" on="0"/>
        <pt x="1554" y="1488" on="1"/>
        <pt x="1608" y="1532" on="0"/>
        <pt x="1608" y="1602" on="1"/>
        <pt x="1608" y="1662" on="0"/>
        <pt x="1522" y="1748" on="0"/>
        <pt x="1462" y="1748" on="1"/>
        <pt x="1403" y="1748" on="0"/>
        <pt x="1317" y="1662" on="0"/>
        <pt x="1317" y="1602" on="1"/>
        <pt x="1317" y="1547" on="0"/>
        <pt x="1367" y="1505" on="1"/>
        <pt x="1409" y="1469" on="0"/>
        <pt x="1462" y="1461" on="1"/>
        <pt x="1712" y="1423" on="0"/>
        <pt x="1926" y="1202" on="1"/>
        <pt x="2181" y="940" on="0"/>
      </contour>
      <contour>
        <pt x="580" y="1153" on="1"/>
        <pt x="524" y="1105" on="0"/>
        <pt x="525" y="1110" on="1"/>
        <pt x="546" y="1161" on="0"/>
        <pt x="546" y="1249" on="1"/>
        <pt x="546" y="1431" on="0"/>
        <pt x="463" y="1449" on="1"/>
        <pt x="456" y="1333" on="0"/>
        <pt x="378" y="1226" on="1"/>
        <pt x="362" y="1203" on="0"/>
        <pt x="217" y="1081" on="0"/>
        <pt x="198" y="1055" on="1"/>
        <pt x="185" y="1029" on="0"/>
        <pt x="185" y="1018" on="1"/>
        <pt x="146" y="1042" on="1"/>
        <pt x="146" y="1053" on="0"/>
        <pt x="154" y="1063" on="1"/>
        <pt x="167" y="1094" on="0"/>
        <pt x="240" y="1158" on="1"/>
        <pt x="324" y="1230" on="0"/>
        <pt x="341" y="1254" on="1"/>
        <pt x="426" y="1368" on="0"/>
        <pt x="432" y="1523" on="1"/>
        <pt x="503" y="1502" on="0"/>
        <pt x="589" y="1350" on="0"/>
        <pt x="589" y="1247" on="1"/>
        <pt x="589" y="1200" on="0"/>
      </contour>
      <contour>
        <pt x="2546" y="1105" on="1"/>
        <pt x="2478" y="1004" on="0"/>
        <pt x="2485" y="819" on="1"/>
        <pt x="2487" y="784" on="0"/>
        <pt x="2532" y="637" on="0"/>
        <pt x="2533" y="605" on="1"/>
        <pt x="2535" y="569" on="0"/>
        <pt x="2472" y="496" on="0"/>
        <pt x="2439" y="496" on="1"/>
        <pt x="2391" y="496" on="0"/>
        <pt x="2369" y="520" on="1"/>
        <pt x="2369" y="67" on="0"/>
        <pt x="1729" y="-574" on="0"/>
        <pt x="1274" y="-574" on="1"/>
        <pt x="820" y="-574" on="0"/>
        <pt x="179" y="67" on="0"/>
        <pt x="179" y="520" on="1"/>
        <pt x="158" y="496" on="0"/>
        <pt x="111" y="496" on="1"/>
        <pt x="78" y="496" on="0"/>
        <pt x="13" y="569" on="0"/>
        <pt x="15" y="605" on="1"/>
        <pt x="17" y="637" on="0"/>
        <pt x="62" y="785" on="0"/>
        <pt x="63" y="819" on="1"/>
        <pt x="71" y="1004" on="0"/>
        <pt x="2" y="1105" on="1"/>
        <pt x="202" y="1092" on="0"/>
        <pt x="263" y="945" on="1"/>
        <pt x="258" y="822" on="1"/>
        <pt x="253" y="895" on="0"/>
        <pt x="209" y="962" on="1"/>
        <pt x="154" y="1046" on="0"/>
        <pt x="67" y="1049" on="1"/>
        <pt x="105" y="992" on="0"/>
        <pt x="105" y="819" on="1"/>
        <pt x="105" y="787" on="0"/>
        <pt x="85" y="718" on="1"/>
        <pt x="63" y="646" on="0"/>
        <pt x="61" y="618" on="1"/>
        <pt x="58" y="542" on="0"/>
        <pt x="131" y="542" on="1"/>
        <pt x="170" y="542" on="0"/>
        <pt x="204" y="594" on="1"/>
        <pt x="214" y="609" on="0"/>
        <pt x="226" y="623" on="1"/>
        <pt x="220" y="561" on="0"/>
        <pt x="220" y="520" on="1"/>
        <pt x="220" y="91" on="0"/>
        <pt x="842" y="-521" on="0"/>
        <pt x="1274" y="-521" on="1"/>
        <pt x="1707" y="-521" on="0"/>
        <pt x="2330" y="91" on="0"/>
        <pt x="2330" y="520" on="1"/>
        <pt x="2330" y="561" on="0"/>
        <pt x="2324" y="623" on="1"/>
        <pt x="2336" y="609" on="0"/>
        <pt x="2347" y="595" on="1"/>
        <pt x="2380" y="542" on="0"/>
        <pt x="2417" y="542" on="1"/>
        <pt x="2493" y="542" on="0"/>
        <pt x="2489" y="618" on="1"/>
        <pt x="2487" y="646" on="0"/>
        <pt x="2465" y="718" on="1"/>
        <pt x="2442" y="787" on="0"/>
        <pt x="2442" y="819" on="1"/>
        <pt x="2442" y="990" on="0"/>
        <pt x="2483" y="1049" on="1"/>
        <pt x="2397" y="1046" on="0"/>
        <pt x="2340" y="962" on="1"/>
        <pt x="2295" y="895" on="0"/>
        <pt x="2290" y="822" on="1"/>
        <pt x="2288" y="945" on="1"/>
        <pt x="2348" y="1092" on="0"/>
      </contour>
      <contour>
        <pt x="2135" y="576" on="1"/>
        <pt x="2135" y="930" on="0"/>
        <pt x="1895" y="1173" on="1"/>
        <pt x="1708" y="1362" on="0"/>
        <pt x="1466" y="1418" on="1"/>
        <pt x="1386" y="1437" on="0"/>
        <pt x="1274" y="1437" on="1"/>
        <pt x="1164" y="1437" on="0"/>
        <pt x="1084" y="1418" on="1"/>
        <pt x="841" y="1362" on="0"/>
        <pt x="654" y="1173" on="1"/>
        <pt x="415" y="931" on="0"/>
        <pt x="415" y="576" on="1"/>
        <pt x="415" y="218" on="0"/>
        <pt x="916" y="-285" on="0"/>
        <pt x="1274" y="-285" on="1"/>
        <pt x="1633" y="-285" on="0"/>
        <pt x="2135" y="218" on="0"/>
      </contour>
      <contour>
        <pt x="1454" y="735" on="1"/>
        <pt x="1454" y="704" on="0"/>
        <pt x="1420" y="681" on="1"/>
        <pt x="1395" y="664" on="0"/>
        <pt x="1382" y="664" on="1"/>
        <pt x="1398" y="664" on="0"/>
        <pt x="1314" y="668" on="1"/>
        <pt x="1259" y="671" on="0"/>
        <pt x="1228" y="664" on="1"/>
        <pt x="1228" y="626" on="1"/>
        <pt x="1244" y="601" on="0"/>
        <pt x="1265" y="557" on="1"/>
        <pt x="1285" y="494" on="0"/>
        <pt x="1305" y="431" on="1"/>
        <pt x="1341" y="316" on="0"/>
        <pt x="1341" y="284" on="1"/>
        <pt x="1341" y="261" on="0"/>
        <pt x="1318" y="193" on="1"/>
        <pt x="1281" y="193" on="1"/>
        <pt x="1264" y="263" on="0"/>
        <pt x="1214" y="400" on="1"/>
        <pt x="1185" y="455" on="0"/>
        <pt x="1155" y="510" on="1"/>
        <pt x="1126" y="569" on="0"/>
        <pt x="1126" y="617" on="1"/>
        <pt x="1126" y="700" on="0"/>
        <pt x="1233" y="807" on="0"/>
        <pt x="1315" y="807" on="1"/>
        <pt x="1352" y="807" on="0"/>
        <pt x="1442" y="784" on="1"/>
        <pt x="1442" y="781" on="0"/>
        <pt x="1454" y="748" on="0"/>
      </contour>
    </TTGlyph>
    <TTGlyph name="uni2011" xMin="2" yMin="-574" xMax="2546" yMax="1785">
      <contour>
        <pt x="2404" y="1042" on="1"/>
        <pt x="2364" y="1018" on="1"/>
        <pt x="2364" y="1029" on="0"/>
        <pt x="2351" y="1055" on="1"/>
        <pt x="2332" y="1080" on="0"/>
        <pt x="2188" y="1203" on="0"/>
        <pt x="2172" y="1226" on="1"/>
        <pt x="2094" y="1335" on="0"/>
        <pt x="2087" y="1449" on="1"/>
        <pt x="2002" y="1431" on="0"/>
        <pt x="2002" y="1248" on="1"/>
        <pt x="2002" y="1160" on="0"/>
        <pt x="2022" y="1110" on="1"/>
        <pt x="1997" y="1131" on="0"/>
        <pt x="1971" y="1153" on="1"/>
        <pt x="1962" y="1201" on="0"/>
        <pt x="1962" y="1248" on="1"/>
        <pt x="1962" y="1351" on="0"/>
        <pt x="2046" y="1502" on="0"/>
        <pt x="2118" y="1523" on="1"/>
        <pt x="2121" y="1372" on="0"/>
        <pt x="2209" y="1254" on="1"/>
        <pt x="2226" y="1230" on="0"/>
        <pt x="2310" y="1158" on="1"/>
        <pt x="2383" y="1094" on="0"/>
        <pt x="2397" y="1063" on="1"/>
        <pt x="2404" y="1033" on="0"/>
      </contour>
      <contour>
        <pt x="2181" y="576" on="1"/>
        <pt x="2181" y="202" on="0"/>
        <pt x="1649" y="-330" on="0"/>
        <pt x="1274" y="-330" on="1"/>
        <pt x="900" y="-330" on="0"/>
        <pt x="367" y="202" on="0"/>
        <pt x="367" y="576" on="1"/>
        <pt x="367" y="939" on="0"/>
        <pt x="623" y="1202" on="1"/>
        <pt x="838" y="1423" on="0"/>
        <pt x="1086" y="1461" on="1"/>
        <pt x="1139" y="1469" on="0"/>
        <pt x="1182" y="1505" on="1"/>
        <pt x="1232" y="1547" on="0"/>
        <pt x="1232" y="1602" on="1"/>
        <pt x="1232" y="1662" on="0"/>
        <pt x="1146" y="1748" on="0"/>
        <pt x="1086" y="1748" on="1"/>
        <pt x="1027" y="1748" on="0"/>
        <pt x="938" y="1662" on="0"/>
        <pt x="938" y="1602" on="1"/>
        <pt x="938" y="1534" on="0"/>
        <pt x="994" y="1488" on="1"/>
        <pt x="882" y="1475" on="0"/>
        <pt x="745" y="1418" on="1"/>
        <pt x="652" y="1380" on="0"/>
        <pt x="584" y="1315" on="1"/>
        <pt x="539" y="1321" on="1"/>
        <pt x="602" y="1394" on="0"/>
        <pt x="739" y="1457" on="1"/>
        <pt x="806" y="1487" on="0"/>
        <pt x="931" y="1512" on="1"/>
        <pt x="901" y="1556" on="0"/>
        <pt x="901" y="1614" on="1"/>
        <pt x="901" y="1688" on="0"/>
        <pt x="960" y="1738" on="1"/>
        <pt x="1015" y="1785" on="0"/>
        <pt x="1086" y="1785" on="1"/>
        <pt x="1160" y="1785" on="0"/>
        <pt x="1216" y="1736" on="1"/>
        <pt x="1274" y="1684" on="0"/>
        <pt x="1274" y="1610" on="1"/>
        <pt x="1274" y="1531" on="0"/>
        <pt x="1214" y="1479" on="1"/>
        <pt x="1236" y="1481" on="0"/>
        <pt x="1274" y="1481" on="1"/>
        <pt x="1314" y="1481" on="0"/>
        <pt x="1335" y="1479" on="1"/>
        <pt x="1274" y="1531" on="0"/>
        <pt x="1274" y="1610" on="1"/>
        <pt x="1274" y="1684" on="0"/>
        <pt x="1332" y="1736" on="1"/>
        <pt x="1387" y="1785" on="0"/>
        <pt x="1462" y="1785" on="1"/>
        <pt x="1534" y="1785" on="0"/>
        <pt x="1589" y="1738" on="1"/>
        <pt x="1649" y="1689" on="0"/>
        <pt x="1649" y="1614" on="1"/>
        <pt x="1649" y="1556" on="0"/>
        <pt x="1619" y="1512" on="1"/>
        <pt x="1740" y="1488" on="0"/>
        <pt x="1808" y="1457" on="1"/>
        <pt x="1944" y="1396" on="0"/>
        <pt x="2010" y="1321" on="1"/>
        <pt x="1966" y="1315" on="1"/>
        <pt x="1892" y="1382" on="0"/>
        <pt x="1803" y="1418" on="1"/>
        <pt x="1663" y="1476" on="0"/>
        <pt x="1554" y="1488" on="1"/>
        <pt x="1608" y="1532" on="0"/>
        <pt x="1608" y="1602" on="1"/>
        <pt x="1608" y="1662" on="0"/>
        <pt x="1522" y="1748" on="0"/>
        <pt x="1462" y="1748" on="1"/>
        <pt x="1403" y="1748" on="0"/>
        <pt x="1317" y="1662" on="0"/>
        <pt x="1317" y="1602" on="1"/>
        <pt x="1317" y="1547" on="0"/>
        <pt x="1367" y="1505" on="1"/>
        <pt x="1409" y="1469" on="0"/>
        <pt x="1462" y="1461" on="1"/>
        <pt x="1712" y="1423" on="0"/>
        <pt x="1926" y="1202" on="1"/>
        <pt x="2181" y="940" on="0"/>
      </contour>
      <contour>
        <pt x="580" y="1153" on="1"/>
        <pt x="524" y="1105" on="0"/>
        <pt x="525" y="1110" on="1"/>
        <pt x="546" y="1161" on="0"/>
        <pt x="546" y="1249" on="1"/>
        <pt x="546" y="1431" on="0"/>
        <pt x="463" y="1449" on="1"/>
        <pt x="456" y="1333" on="0"/>
        <pt x="378" y="1226" on="1"/>
        <pt x="362" y="1203" on="0"/>
        <pt x="217" y="1081" on="0"/>
        <pt x="198" y="1055" on="1"/>
        <pt x="185" y="1029" on="0"/>
        <pt x="185" y="1018" on="1"/>
        <pt x="146" y="1042" on="1"/>
        <pt x="146" y="1053" on="0"/>
        <pt x="154" y="1063" on="1"/>
        <pt x="167" y="1094" on="0"/>
        <pt x="240" y="1158" on="1"/>
        <pt x="324" y="1230" on="0"/>
        <pt x="341" y="1254" on="1"/>
        <pt x="426" y="1368" on="0"/>
        <pt x="432" y="1523" on="1"/>
        <pt x="503" y="1502" on="0"/>
        <pt x="589" y="1350" on="0"/>
        <pt x="589" y="1247" on="1"/>
        <pt x="589" y="1200" on="0"/>
      </contour>
      <contour>
        <pt x="2546" y="1105" on="1"/>
        <pt x="2478" y="1004" on="0"/>
        <pt x="2485" y="819" on="1"/>
        <pt x="2487" y="784" on="0"/>
        <pt x="2532" y="637" on="0"/>
        <pt x="2533" y="605" on="1"/>
        <pt x="2535" y="569" on="0"/>
        <pt x="2472" y="496" on="0"/>
        <pt x="2439" y="496" on="1"/>
        <pt x="2391" y="496" on="0"/>
        <pt x="2369" y="520" on="1"/>
        <pt x="2369" y="67" on="0"/>
        <pt x="1729" y="-574" on="0"/>
        <pt x="1274" y="-574" on="1"/>
        <pt x="820" y="-574" on="0"/>
        <pt x="179" y="67" on="0"/>
        <pt x="179" y="520" on="1"/>
        <pt x="158" y="496" on="0"/>
        <pt x="111" y="496" on="1"/>
        <pt x="78" y="496" on="0"/>
        <pt x="13" y="569" on="0"/>
        <pt x="15" y="605" on="1"/>
        <pt x="17" y="637" on="0"/>
        <pt x="62" y="785" on="0"/>
        <pt x="63" y="819" on="1"/>
        <pt x="71" y="1004" on="0"/>
        <pt x="2" y="1105" on="1"/>
        <pt x="202" y="1092" on="0"/>
        <pt x="263" y="945" on="1"/>
        <pt x="258" y="822" on="1"/>
        <pt x="253" y="895" on="0"/>
        <pt x="209" y="962" on="1"/>
        <pt x="154" y="1046" on="0"/>
        <pt x="67" y="1049" on="1"/>
        <pt x="105" y="992" on="0"/>
        <pt x="105" y="819" on="1"/>
        <pt x="105" y="787" on="0"/>
        <pt x="85" y="718" on="1"/>
        <pt x="63" y="646" on="0"/>
        <pt x="61" y="618" on="1"/>
        <pt x="58" y="542" on="0"/>
        <pt x="131" y="542" on="1"/>
        <pt x="170" y="542" on="0"/>
        <pt x="204" y="594" on="1"/>
        <pt x="214" y="609" on="0"/>
        <pt x="226" y="623" on="1"/>
        <pt x="220" y="561" on="0"/>
        <pt x="220" y="520" on="1"/>
        <pt x="220" y="91" on="0"/>
        <pt x="842" y="-521" on="0"/>
        <pt x="1274" y="-521" on="1"/>
        <pt x="1707" y="-521" on="0"/>
        <pt x="2330" y="91" on="0"/>
        <pt x="2330" y="520" on="1"/>
        <pt x="2330" y="561" on="0"/>
        <pt x="2324" y="623" on="1"/>
        <pt x="2336" y="609" on="0"/>
        <pt x="2347" y="595" on="1"/>
        <pt x="2380" y="542" on="0"/>
        <pt x="2417" y="542" on="1"/>
        <pt x="2493" y="542" on="0"/>
        <pt x="2489" y="618" on="1"/>
        <pt x="2487" y="646" on="0"/>
        <pt x="2465" y="718" on="1"/>
        <pt x="2442" y="787" on="0"/>
        <pt x="2442" y="819" on="1"/>
        <pt x="2442" y="990" on="0"/>
        <pt x="2483" y="1049" on="1"/>
        <pt x="2397" y="1046" on="0"/>
        <pt x="2340" y="962" on="1"/>
        <pt x="2295" y="895" on="0"/>
        <pt x="2290" y="822" on="1"/>
        <pt x="2288" y="945" on="1"/>
        <pt x="2348" y="1092" on="0"/>
      </contour>
      <contour>
        <pt x="2135" y="576" on="1"/>
        <pt x="2135" y="930" on="0"/>
        <pt x="1895" y="1173" on="1"/>
        <pt x="1708" y="1362" on="0"/>
        <pt x="1466" y="1418" on="1"/>
        <pt x="1386" y="1437" on="0"/>
        <pt x="1274" y="1437" on="1"/>
        <pt x="1164" y="1437" on="0"/>
        <pt x="1084" y="1418" on="1"/>
        <pt x="841" y="1362" on="0"/>
        <pt x="654" y="1173" on="1"/>
        <pt x="415" y="931" on="0"/>
        <pt x="415" y="576" on="1"/>
        <pt x="415" y="218" on="0"/>
        <pt x="916" y="-285" on="0"/>
        <pt x="1274" y="-285" on="1"/>
        <pt x="1633" y="-285" on="0"/>
        <pt x="2135" y="218" on="0"/>
      </contour>
      <contour>
        <pt x="1454" y="735" on="1"/>
        <pt x="1454" y="704" on="0"/>
        <pt x="1420" y="681" on="1"/>
        <pt x="1395" y="664" on="0"/>
        <pt x="1382" y="664" on="1"/>
        <pt x="1398" y="664" on="0"/>
        <pt x="1314" y="668" on="1"/>
        <pt x="1259" y="671" on="0"/>
        <pt x="1228" y="664" on="1"/>
        <pt x="1228" y="626" on="1"/>
        <pt x="1244" y="601" on="0"/>
        <pt x="1265" y="557" on="1"/>
        <pt x="1285" y="494" on="0"/>
        <pt x="1305" y="431" on="1"/>
        <pt x="1341" y="316" on="0"/>
        <pt x="1341" y="284" on="1"/>
        <pt x="1341" y="261" on="0"/>
        <pt x="1318" y="193" on="1"/>
        <pt x="1281" y="193" on="1"/>
        <pt x="1264" y="263" on="0"/>
        <pt x="1214" y="400" on="1"/>
        <pt x="1185" y="455" on="0"/>
        <pt x="1155" y="510" on="1"/>
        <pt x="1126" y="569" on="0"/>
        <pt x="1126" y="617" on="1"/>
        <pt x="1126" y="700" on="0"/>
        <pt x="1233" y="807" on="0"/>
        <pt x="1315" y="807" on="1"/>
        <pt x="1352" y="807" on="0"/>
        <pt x="1442" y="784" on="1"/>
        <pt x="1442" y="781" on="0"/>
        <pt x="1454" y="748" on="0"/>
      </contour>
    </TTGlyph>
    <TTGlyph name="uniE000" xMin="0" yMin="0" xMax="1615" yMax="1615">
      <contour>
        <pt x="0" y="1615" on="1"/>
        <pt x="1615" y="1615" on="1"/>
        <pt x="1615" y="0" on="1"/>
        <pt x="0" y="0" on="1"/>
      </contour>
    </TTGlyph>
    <TTGlyph name="uniFB51" xMin="449" yMin="-376" xMax="2128" yMax="1167">
      <contour>
        <pt x="1984" y="1167" on="1"/>
        <pt x="1945" y="1063" on="0"/>
        <pt x="1816" y="1009" on="1"/>
        <pt x="1710" y="964" on="0"/>
        <pt x="1575" y="964" on="1"/>
        <pt x="1565" y="964" on="0"/>
        <pt x="1457" y="977" on="1"/>
        <pt x="1441" y="979" on="0"/>
        <pt x="1371" y="1016" on="0"/>
        <pt x="1360" y="1016" on="1"/>
        <pt x="1347" y="1016" on="0"/>
        <pt x="1317" y="989" on="1"/>
        <pt x="1285" y="959" on="0"/>
        <pt x="1271" y="954" on="1"/>
        <pt x="1258" y="956" on="0"/>
        <pt x="1258" y="980" on="1"/>
        <pt x="1258" y="999" on="0"/>
        <pt x="1372" y="1128" on="0"/>
        <pt x="1391" y="1128" on="1"/>
        <pt x="1403" y="1128" on="0"/>
        <pt x="1436" y="1107" on="1"/>
        <pt x="1474" y="1084" on="0"/>
        <pt x="1489" y="1080" on="1"/>
        <pt x="1538" y="1067" on="0"/>
        <pt x="1626" y="1067" on="1"/>
        <pt x="1793" y="1067" on="0"/>
        <pt x="1937" y="1167" on="1"/>
      </contour>
      <contour>
        <pt x="2128" y="334" on="1"/>
        <pt x="2128" y="297" on="0"/>
        <pt x="2073" y="199" on="1"/>
        <pt x="2010" y="90" on="0"/>
        <pt x="1851" y="21" on="1"/>
        <pt x="1714" y="-39" on="0"/>
        <pt x="1591" y="-39" on="1"/>
        <pt x="1595" y="-39" on="0"/>
        <pt x="1316" y="-8" on="1"/>
        <pt x="1287" y="-35" on="0"/>
        <pt x="1280" y="-65" on="1"/>
        <pt x="1254" y="-196" on="0"/>
        <pt x="1105" y="-292" on="1"/>
        <pt x="973" y="-376" on="0"/>
        <pt x="859" y="-376" on="1"/>
        <pt x="823" y="-376" on="1"/>
        <pt x="696" y="-376" on="0"/>
        <pt x="585" y="-309" on="1"/>
        <pt x="449" y="-228" on="0"/>
        <pt x="449" y="-95" on="1"/>
        <pt x="449" y="92" on="0"/>
        <pt x="575" y="196" on="1"/>
        <pt x="613" y="196" on="0"/>
        <pt x="613" y="161" on="1"/>
        <pt x="613" y="147" on="0"/>
        <pt x="551" y="-16" on="0"/>
        <pt x="551" y="-28" on="1"/>
        <pt x="551" y="-126" on="0"/>
        <pt x="657" y="-180" on="1"/>
        <pt x="741" y="-223" on="0"/>
        <pt x="849" y="-223" on="1"/>
        <pt x="942" y="-223" on="0"/>
        <pt x="1054" y="-181" on="1"/>
        <pt x="1207" y="-125" on="0"/>
        <pt x="1207" y="-28" on="1"/>
        <pt x="1207" y="-18" on="0"/>
        <pt x="1104" y="224" on="0"/>
        <pt x="1104" y="238" on="1"/>
        <pt x="1104" y="319" on="0"/>
        <pt x="1155" y="319" on="1"/>
        <pt x="1199" y="319" on="0"/>
        <pt x="1253" y="165" on="0"/>
        <pt x="1335" y="165" on="1"/>
        <pt x="1345" y="165" on="0"/>
        <pt x="1508" y="265" on="1"/>
        <pt x="1704" y="386" on="0"/>
        <pt x="1783" y="428" on="1"/>
        <pt x="1850" y="463" on="0"/>
        <pt x="1924" y="463" on="1"/>
        <pt x="1978" y="463" on="0"/>
        <pt x="2044" y="433" on="1"/>
        <pt x="2128" y="393" on="0"/>
      </contour>
      <contour>
        <pt x="1985" y="265" on="1"/>
        <pt x="1911" y="319" on="0"/>
        <pt x="1851" y="319" on="1"/>
        <pt x="1804" y="319" on="0"/>
        <pt x="1656" y="234" on="1"/>
        <pt x="1534" y="165" on="0"/>
        <pt x="1504" y="139" on="1"/>
        <pt x="1578" y="115" on="0"/>
        <pt x="1616" y="115" on="1"/>
        <pt x="1711" y="115" on="0"/>
        <pt x="1824" y="155" on="1"/>
        <pt x="1955" y="201" on="0"/>
      </contour>
    </TTGlyph>
    <TTGlyph name="uniFB52" xMin="306" yMin="985" xMax="757" yMax="1517">
      <contour>
        <pt x="603" y="1213" on="1"/>
        <pt x="579" y="1189" on="0"/>
        <pt x="557" y="1189" on="1"/>
        <pt x="518" y="1189" on="0"/>
        <pt x="490" y="1244" on="1"/>
        <pt x="490" y="1254" on="0"/>
        <pt x="521" y="1292" on="0"/>
        <pt x="536" y="1292" on="1"/>
        <pt x="558" y="1292" on="0"/>
        <pt x="603" y="1248" on="1"/>
      </contour>
      <contour>
        <pt x="757" y="1052" on="1"/>
        <pt x="743" y="1029" on="0"/>
        <pt x="622" y="985" on="0"/>
        <pt x="577" y="985" on="1"/>
        <pt x="306" y="985" on="0"/>
        <pt x="306" y="1189" on="1"/>
        <pt x="306" y="1228" on="0"/>
        <pt x="332" y="1290" on="1"/>
        <pt x="355" y="1344" on="0"/>
        <pt x="378" y="1399" on="1"/>
        <pt x="381" y="1406" on="0"/>
        <pt x="371" y="1416" on="1"/>
        <pt x="367" y="1416" on="0"/>
        <pt x="331" y="1395" on="0"/>
        <pt x="319" y="1395" on="1"/>
        <pt x="306" y="1396" on="0"/>
        <pt x="306" y="1420" on="1"/>
        <pt x="306" y="1459" on="0"/>
        <pt x="371" y="1491" on="1"/>
        <pt x="425" y="1517" on="0"/>
        <pt x="460" y="1517" on="1"/>
        <pt x="435" y="1517" on="0"/>
        <pt x="561" y="1512" on="1"/>
        <pt x="653" y="1509" on="0"/>
        <pt x="704" y="1515" on="1"/>
        <pt x="704" y="1469" on="1"/>
        <pt x="698" y="1457" on="0"/>
        <pt x="682" y="1439" on="1"/>
        <pt x="529" y="1398" on="0"/>
        <pt x="490" y="1380" on="1"/>
        <pt x="367" y="1324" on="0"/>
        <pt x="367" y="1226" on="1"/>
        <pt x="367" y="1067" on="0"/>
        <pt x="572" y="1067" on="1"/>
        <pt x="573" y="1067" on="0"/>
        <pt x="659" y="1076" on="0"/>
        <pt x="733" y="1076" on="1"/>
      </contour>
    </TTGlyph>
    <TTGlyph name="uniFB53" xMin="173" yMin="-557" xMax="4463" yMax="1511">
      <contour>
        <pt x="4462" y="1239" on="1"/>
        <pt x="4463" y="1206" on="0"/>
        <pt x="4283" y="1105" on="1"/>
        <pt x="4140" y="1026" on="0"/>
        <pt x="3996" y="948" on="1"/>
        <pt x="3972" y="973" on="0"/>
        <pt x="3972" y="994" on="1"/>
        <pt x="3972" y="1021" on="0"/>
        <pt x="4149" y="1126" on="1"/>
        <pt x="4282" y="1206" on="0"/>
        <pt x="4416" y="1285" on="1"/>
        <pt x="4462" y="1285" on="1"/>
      </contour>
      <contour>
        <pt x="3890" y="1389" on="1"/>
        <pt x="3890" y="1349" on="0"/>
        <pt x="3823" y="1270" on="1"/>
        <pt x="3809" y="1252" on="0"/>
        <pt x="3691" y="1214" on="0"/>
        <pt x="3649" y="1214" on="1"/>
        <pt x="3637" y="1214" on="0"/>
        <pt x="3584" y="1225" on="0"/>
        <pt x="3573" y="1225" on="1"/>
        <pt x="3572" y="1225" on="0"/>
        <pt x="3507" y="1194" on="1"/>
        <pt x="3461" y="1194" on="1"/>
        <pt x="3461" y="1218" on="0"/>
        <pt x="3473" y="1248" on="1"/>
        <pt x="3492" y="1274" on="0"/>
        <pt x="3545" y="1298" on="1"/>
        <pt x="3614" y="1331" on="0"/>
        <pt x="3626" y="1339" on="1"/>
        <pt x="3641" y="1349" on="0"/>
        <pt x="3687" y="1410" on="1"/>
        <pt x="3723" y="1460" on="0"/>
        <pt x="3760" y="1466" on="1"/>
        <pt x="3771" y="1470" on="0"/>
        <pt x="3797" y="1470" on="1"/>
        <pt x="3835" y="1470" on="0"/>
        <pt x="3864" y="1438" on="1"/>
        <pt x="3890" y="1410" on="0"/>
      </contour>
      <contour>
        <pt x="3490" y="1382" on="1"/>
        <pt x="3490" y="1347" on="0"/>
        <pt x="3406" y="1303" on="1"/>
        <pt x="3330" y="1263" on="0"/>
        <pt x="3320" y="1267" on="1"/>
        <pt x="3193" y="1267" on="1"/>
        <pt x="3227" y="1300" on="0"/>
        <pt x="3296" y="1343" on="1"/>
        <pt x="3283" y="1378" on="0"/>
        <pt x="3245" y="1378" on="1"/>
        <pt x="3235" y="1378" on="0"/>
        <pt x="3182" y="1371" on="0"/>
        <pt x="3153" y="1371" on="1"/>
        <pt x="3163" y="1392" on="0"/>
        <pt x="3184" y="1424" on="1"/>
        <pt x="3231" y="1470" on="0"/>
        <pt x="3291" y="1470" on="1"/>
        <pt x="3329" y="1470" on="0"/>
        <pt x="3490" y="1416" on="1"/>
      </contour>
      <contour>
        <pt x="3797" y="211" on="1"/>
        <pt x="3797" y="52" on="0"/>
        <pt x="3728" y="27" on="1"/>
        <pt x="3603" y="983" on="1"/>
        <pt x="3603" y="1031" on="0"/>
        <pt x="3646" y="1121" on="1"/>
        <pt x="3673" y="1121" on="0"/>
        <pt x="3681" y="1108" on="1"/>
        <pt x="3711" y="908" on="0"/>
        <pt x="3741" y="708" on="1"/>
        <pt x="3797" y="315" on="0"/>
      </contour>
      <contour>
        <pt x="4432" y="134" on="1"/>
        <pt x="4432" y="-9" on="0"/>
        <pt x="4276" y="-199" on="1"/>
        <pt x="4116" y="-393" on="0"/>
        <pt x="3977" y="-393" on="1"/>
        <pt x="3833" y="-393" on="1"/>
        <pt x="3797" y="-393" on="0"/>
        <pt x="3555" y="-359" on="1"/>
        <pt x="3538" y="-348" on="0"/>
        <pt x="3511" y="-328" on="1"/>
        <pt x="3511" y="-293" on="1"/>
        <pt x="3513" y="-280" on="0"/>
        <pt x="3537" y="-280" on="1"/>
        <pt x="3549" y="-280" on="0"/>
        <pt x="3733" y="-301" on="0"/>
        <pt x="3746" y="-301" on="1"/>
        <pt x="3891" y="-301" on="0"/>
        <pt x="4055" y="-210" on="1"/>
        <pt x="4253" y="-101" on="0"/>
        <pt x="4332" y="76" on="1"/>
        <pt x="4332" y="88" on="1"/>
        <pt x="4240" y="37" on="0"/>
        <pt x="4212" y="37" on="1"/>
        <pt x="4159" y="37" on="0"/>
        <pt x="4114" y="99" on="1"/>
        <pt x="4074" y="154" on="0"/>
        <pt x="4074" y="196" on="1"/>
        <pt x="4074" y="239" on="0"/>
        <pt x="4114" y="332" on="1"/>
        <pt x="4164" y="446" on="0"/>
        <pt x="4222" y="446" on="1"/>
        <pt x="4256" y="446" on="0"/>
        <pt x="4297" y="421" on="1"/>
        <pt x="4306" y="416" on="0"/>
        <pt x="4373" y="310" on="1"/>
        <pt x="4425" y="229" on="0"/>
        <pt x="4430" y="213" on="1"/>
        <pt x="4432" y="205" on="0"/>
      </contour>
      <contour>
        <pt x="2856" y="1198" on="1"/>
        <pt x="2856" y="1167" on="0"/>
        <pt x="2821" y="1132" on="1"/>
        <pt x="2810" y="1136" on="0"/>
        <pt x="2772" y="1157" on="1"/>
        <pt x="2742" y="1173" on="0"/>
        <pt x="2727" y="1173" on="1"/>
        <pt x="2714" y="1173" on="0"/>
        <pt x="2664" y="1140" on="1"/>
        <pt x="2595" y="1093" on="0"/>
        <pt x="2587" y="1088" on="1"/>
        <pt x="2560" y="1067" on="0"/>
        <pt x="2513" y="1043" on="1"/>
        <pt x="2495" y="1040" on="0"/>
        <pt x="2445" y="1024" on="1"/>
        <pt x="2402" y="1010" on="0"/>
        <pt x="2388" y="1011" on="1"/>
        <pt x="2344" y="1011" on="1"/>
        <pt x="2364" y="1029" on="0"/>
        <pt x="2486" y="1105" on="1"/>
        <pt x="2583" y="1166" on="0"/>
        <pt x="2631" y="1230" on="1"/>
        <pt x="2579" y="1298" on="0"/>
        <pt x="2579" y="1332" on="1"/>
        <pt x="2579" y="1371" on="0"/>
        <pt x="2622" y="1436" on="1"/>
        <pt x="2672" y="1511" on="0"/>
        <pt x="2722" y="1511" on="1"/>
        <pt x="2758" y="1511" on="0"/>
        <pt x="2789" y="1485" on="1"/>
        <pt x="2811" y="1456" on="0"/>
        <pt x="2811" y="1417" on="1"/>
        <pt x="2811" y="1398" on="0"/>
        <pt x="2797" y="1326" on="0"/>
        <pt x="2797" y="1311" on="1"/>
        <pt x="2797" y="1289" on="0"/>
        <pt x="2806" y="1273" on="1"/>
        <pt x="2806" y="1273" on="0"/>
        <pt x="2835" y="1239" on="1"/>
        <pt x="2856" y="1214" on="0"/>
      </contour>
      <contour>
        <pt x="2886" y="871" on="1"/>
        <pt x="2886" y="838" on="0"/>
        <pt x="2856" y="804" on="1"/>
        <pt x="2829" y="774" on="0"/>
        <pt x="2809" y="774" on="1"/>
        <pt x="2797" y="774" on="0"/>
        <pt x="2751" y="795" on="0"/>
        <pt x="2738" y="795" on="1"/>
        <pt x="2725" y="795" on="0"/>
        <pt x="2654" y="743" on="0"/>
        <pt x="2640" y="743" on="1"/>
        <pt x="2587" y="743" on="0"/>
        <pt x="2549" y="825" on="1"/>
        <pt x="2549" y="859" on="0"/>
        <pt x="2586" y="895" on="1"/>
        <pt x="2620" y="927" on="0"/>
        <pt x="2640" y="927" on="1"/>
        <pt x="2658" y="927" on="0"/>
        <pt x="2690" y="897" on="0"/>
        <pt x="2702" y="897" on="1"/>
        <pt x="2715" y="897" on="0"/>
        <pt x="2786" y="948" on="0"/>
        <pt x="2799" y="948" on="1"/>
        <pt x="2824" y="948" on="0"/>
        <pt x="2853" y="928" on="1"/>
        <pt x="2886" y="904" on="0"/>
      </contour>
      <contour>
        <pt x="2323" y="1204" on="1"/>
        <pt x="2323" y="1144" on="0"/>
        <pt x="2073" y="1050" on="1"/>
        <pt x="1944" y="1065" on="1"/>
        <pt x="2001" y="1091" on="0"/>
        <pt x="2119" y="1159" on="1"/>
        <pt x="2101" y="1184" on="0"/>
        <pt x="2047" y="1184" on="1"/>
        <pt x="2035" y="1184" on="0"/>
        <pt x="1956" y="1164" on="1"/>
        <pt x="1956" y="1200" on="1"/>
        <pt x="1971" y="1231" on="0"/>
        <pt x="2022" y="1260" on="1"/>
        <pt x="2068" y="1286" on="0"/>
        <pt x="2093" y="1286" on="1"/>
        <pt x="2126" y="1286" on="0"/>
        <pt x="2312" y="1233" on="1"/>
        <pt x="2312" y="1230" on="0"/>
        <pt x="2323" y="1219" on="0"/>
      </contour>
      <contour>
        <pt x="3378" y="247" on="1"/>
        <pt x="3368" y="88" on="0"/>
        <pt x="3306" y="34" on="1"/>
        <pt x="3248" y="-14" on="0"/>
        <pt x="3096" y="-14" on="1"/>
        <pt x="2969" y="-14" on="0"/>
        <pt x="2890" y="9" on="1"/>
        <pt x="2881" y="11" on="0"/>
        <pt x="2839" y="31" on="1"/>
        <pt x="2803" y="47" on="0"/>
        <pt x="2789" y="47" on="1"/>
        <pt x="2783" y="47" on="0"/>
        <pt x="2714" y="22" on="1"/>
        <pt x="2640" y="-4" on="0"/>
        <pt x="2585" y="-11" on="1"/>
        <pt x="2584" y="-12" on="0"/>
        <pt x="2523" y="-10" on="1"/>
        <pt x="2485" y="-10" on="0"/>
        <pt x="2465" y="-27" on="1"/>
        <pt x="2454" y="-36" on="0"/>
        <pt x="2380" y="-185" on="1"/>
        <pt x="2329" y="-289" on="0"/>
        <pt x="2246" y="-358" on="1"/>
        <pt x="2119" y="-465" on="0"/>
        <pt x="1929" y="-465" on="1"/>
        <pt x="1875" y="-465" on="0"/>
        <pt x="1786" y="-441" on="1"/>
        <pt x="1693" y="-417" on="0"/>
        <pt x="1648" y="-390" on="1"/>
        <pt x="1648" y="-376" on="0"/>
        <pt x="1677" y="-342" on="0"/>
        <pt x="1693" y="-342" on="1"/>
        <pt x="1707" y="-342" on="0"/>
        <pt x="1809" y="-372" on="0"/>
        <pt x="1821" y="-372" on="1"/>
        <pt x="1993" y="-372" on="0"/>
        <pt x="2178" y="-239" on="1"/>
        <pt x="2352" y="-112" on="0"/>
        <pt x="2355" y="-10" on="1"/>
        <pt x="2310" y="18" on="0"/>
        <pt x="2300" y="37" on="1"/>
        <pt x="2292" y="51" on="0"/>
        <pt x="2292" y="93" on="1"/>
        <pt x="2292" y="105" on="0"/>
        <pt x="2303" y="157" on="0"/>
        <pt x="2303" y="166" on="1"/>
        <pt x="2321" y="184" on="0"/>
        <pt x="2348" y="176" on="1"/>
        <pt x="2422" y="139" on="0"/>
        <pt x="2502" y="139" on="1"/>
        <pt x="2624" y="139" on="0"/>
        <pt x="2658" y="176" on="1"/>
        <pt x="2654" y="191" on="0"/>
        <pt x="2654" y="209" on="1"/>
        <pt x="2654" y="310" on="0"/>
        <pt x="2742" y="433" on="1"/>
        <pt x="2834" y="559" on="0"/>
        <pt x="2922" y="559" on="1"/>
        <pt x="2973" y="559" on="0"/>
        <pt x="3005" y="478" on="1"/>
        <pt x="3030" y="415" on="0"/>
        <pt x="3030" y="360" on="1"/>
        <pt x="3030" y="299" on="0"/>
        <pt x="2958" y="186" on="1"/>
        <pt x="3002" y="139" on="0"/>
        <pt x="3055" y="139" on="1"/>
        <pt x="3163" y="139" on="1"/>
        <pt x="3292" y="139" on="0"/>
        <pt x="3292" y="208" on="1"/>
        <pt x="3292" y="220" on="0"/>
        <pt x="3286" y="235" on="1"/>
        <pt x="3152" y="973" on="1"/>
        <pt x="3150" y="1017" on="0"/>
        <pt x="3238" y="1173" on="1"/>
        <pt x="3268" y="1160" on="0"/>
        <pt x="3273" y="1113" on="1"/>
        <pt x="3274" y="1076" on="0"/>
        <pt x="3277" y="1037" on="1"/>
        <pt x="3286" y="1029" on="0"/>
        <pt x="3337" y="999" on="1"/>
        <pt x="3368" y="981" on="0"/>
        <pt x="3368" y="948" on="1"/>
        <pt x="3368" y="936" on="0"/>
        <pt x="3335" y="879" on="1"/>
        <pt x="3301" y="818" on="0"/>
        <pt x="3296" y="794" on="1"/>
      </contour>
      <contour>
        <pt x="1749" y="1166" on="1"/>
        <pt x="1707" y="1117" on="0"/>
        <pt x="1562" y="1044" on="1"/>
        <pt x="1448" y="991" on="0"/>
        <pt x="1335" y="938" on="1"/>
        <pt x="1320" y="952" on="0"/>
        <pt x="1320" y="968" on="1"/>
        <pt x="1320" y="1019" on="0"/>
        <pt x="1507" y="1118" on="1"/>
        <pt x="1616" y="1171" on="0"/>
        <pt x="1724" y="1225" on="1"/>
        <pt x="1738" y="1212" on="0"/>
        <pt x="1749" y="1212" on="1"/>
      </contour>
      <contour>
        <pt x="1914" y="135" on="1"/>
        <pt x="1897" y="83" on="0"/>
        <pt x="1798" y="54" on="1"/>
        <pt x="1716" y="34" on="0"/>
        <pt x="1634" y="12" on="1"/>
        <pt x="1572" y="-8" on="0"/>
        <pt x="1477" y="-45" on="1"/>
        <pt x="1475" y="-23" on="0"/>
        <pt x="1470" y="20" on="1"/>
        <pt x="1445" y="48" on="0"/>
        <pt x="1421" y="75" on="1"/>
        <pt x="1391" y="108" on="0"/>
        <pt x="1391" y="124" on="1"/>
        <pt x="1391" y="179" on="0"/>
        <pt x="1515" y="288" on="1"/>
        <pt x="1634" y="395" on="0"/>
        <pt x="1684" y="395" on="1"/>
        <pt x="1708" y="395" on="0"/>
        <pt x="1791" y="308" on="0"/>
        <pt x="1791" y="288" on="1"/>
        <pt x="1791" y="261" on="0"/>
        <pt x="1725" y="190" on="0"/>
        <pt x="1704" y="190" on="1"/>
        <pt x="1689" y="190" on="0"/>
        <pt x="1616" y="251" on="0"/>
        <pt x="1602" y="251" on="1"/>
        <pt x="1574" y="251" on="0"/>
        <pt x="1535" y="215" on="1"/>
        <pt x="1535" y="186" on="1"/>
        <pt x="1586" y="151" on="0"/>
        <pt x="1605" y="144" on="1"/>
        <pt x="1621" y="139" on="0"/>
        <pt x="1673" y="139" on="1"/>
        <pt x="1646" y="139" on="0"/>
        <pt x="1890" y="170" on="1"/>
        <pt x="1895" y="165" on="0"/>
        <pt x="1908" y="140" on="0"/>
      </contour>
      <contour>
        <pt x="1258" y="231" on="1"/>
        <pt x="1258" y="173" on="0"/>
        <pt x="1208" y="51" on="0"/>
        <pt x="1179" y="38" on="1"/>
        <pt x="1054" y="1010" on="1"/>
        <pt x="1076" y="1050" on="0"/>
        <pt x="1118" y="1121" on="1"/>
        <pt x="1131" y="1121" on="0"/>
        <pt x="1152" y="1088" on="1"/>
        <pt x="1160" y="1017" on="0"/>
        <pt x="1218" y="581" on="1"/>
        <pt x="1258" y="276" on="0"/>
      </contour>
      <contour>
        <pt x="583" y="620" on="1"/>
        <pt x="583" y="593" on="0"/>
        <pt x="530" y="528" on="0"/>
        <pt x="516" y="528" on="1"/>
        <pt x="496" y="528" on="0"/>
        <pt x="409" y="589" on="0"/>
        <pt x="409" y="610" on="1"/>
        <pt x="409" y="628" on="0"/>
        <pt x="472" y="713" on="0"/>
        <pt x="496" y="713" on="1"/>
        <pt x="533" y="713" on="0"/>
        <pt x="560" y="678" on="1"/>
        <pt x="583" y="649" on="0"/>
      </contour>
      <contour>
        <pt x="982" y="144" on="1"/>
        <pt x="982" y="120" on="0"/>
        <pt x="960" y="37" on="1"/>
        <pt x="934" y="-59" on="0"/>
        <pt x="906" y="-113" on="1"/>
        <pt x="891" y="-143" on="0"/>
        <pt x="660" y="-280" on="0"/>
        <pt x="480" y="-280" on="1"/>
        <pt x="353" y="-280" on="0"/>
        <pt x="268" y="-216" on="1"/>
        <pt x="173" y="-144" on="0"/>
        <pt x="173" y="-19" on="1"/>
        <pt x="173" y="108" on="0"/>
        <pt x="309" y="261" on="1"/>
        <pt x="347" y="261" on="1"/>
        <pt x="347" y="215" on="1"/>
        <pt x="347" y="203" on="0"/>
        <pt x="255" y="75" on="0"/>
        <pt x="255" y="62" on="1"/>
        <pt x="255" y="-37" on="0"/>
        <pt x="357" y="-87" on="1"/>
        <pt x="436" y="-126" on="0"/>
        <pt x="547" y="-126" on="1"/>
        <pt x="648" y="-126" on="0"/>
        <pt x="749" y="-86" on="1"/>
        <pt x="880" y="-32" on="0"/>
        <pt x="880" y="57" on="1"/>
        <pt x="880" y="111" on="0"/>
        <pt x="855" y="162" on="1"/>
        <pt x="845" y="185" on="0"/>
        <pt x="797" y="260" on="1"/>
        <pt x="767" y="306" on="0"/>
        <pt x="767" y="344" on="1"/>
        <pt x="767" y="347" on="0"/>
        <pt x="800" y="446" on="1"/>
        <pt x="836" y="446" on="1"/>
        <pt x="982" y="270" on="0"/>
      </contour>
      <contour>
        <pt x="992" y="-316" on="1"/>
        <pt x="992" y="-374" on="0"/>
        <pt x="887" y="-407" on="1"/>
        <pt x="877" y="-410" on="0"/>
        <pt x="495" y="-557" on="1"/>
        <pt x="470" y="-532" on="1"/>
        <pt x="490" y="-469" on="0"/>
        <pt x="534" y="-448" on="1"/>
        <pt x="656" y="-392" on="0"/>
        <pt x="968" y="-280" on="1"/>
        <pt x="992" y="-305" on="0"/>
      </contour>
      <contour>
        <pt x="3777" y="1352" on="1"/>
        <pt x="3768" y="1362" on="0"/>
        <pt x="3751" y="1368" on="1"/>
        <pt x="3707" y="1345" on="0"/>
        <pt x="3707" y="1328" on="1"/>
        <pt x="3753" y="1328" on="0"/>
      </contour>
      <contour>
        <pt x="4268" y="214" on="1"/>
        <pt x="4268" y="247" on="1"/>
        <pt x="4246" y="292" on="0"/>
        <pt x="4210" y="292" on="1"/>
        <pt x="4176" y="259" on="0"/>
        <pt x="4176" y="234" on="1"/>
        <pt x="4211" y="201" on="0"/>
        <pt x="4233" y="201" on="1"/>
        <pt x="4255" y="201" on="0"/>
      </contour>
      <contour>
        <pt x="2733" y="1352" on="1"/>
        <pt x="2709" y="1398" on="0"/>
        <pt x="2685" y="1398" on="1"/>
        <pt x="2661" y="1372" on="1"/>
        <pt x="2671" y="1363" on="0"/>
        <pt x="2673" y="1348" on="1"/>
        <pt x="2713" y="1329" on="0"/>
      </contour>
      <contour>
        <pt x="2927" y="324" on="1"/>
        <pt x="2927" y="344" on="0"/>
        <pt x="2889" y="395" on="0"/>
        <pt x="2871" y="395" on="1"/>
        <pt x="2855" y="395" on="0"/>
        <pt x="2808" y="360" on="1"/>
        <pt x="2753" y="322" on="0"/>
        <pt x="2753" y="292" on="1"/>
        <pt x="2753" y="275" on="0"/>
        <pt x="2803" y="231" on="0"/>
        <pt x="2830" y="231" on="1"/>
        <pt x="2849" y="231" on="0"/>
        <pt x="2927" y="306" on="0"/>
      </contour>
    </TTGlyph>
    <TTGlyph name="uniFB54" xMin="142" yMin="-461" xMax="1801" yMax="1004">
      <contour>
        <pt x="1585" y="916" on="1"/>
        <pt x="1585" y="885" on="0"/>
        <pt x="1535" y="819" on="0"/>
        <pt x="1509" y="819" on="1"/>
        <pt x="1486" y="819" on="0"/>
        <pt x="1391" y="890" on="0"/>
        <pt x="1391" y="906" on="1"/>
        <pt x="1391" y="920" on="0"/>
        <pt x="1422" y="959" on="1"/>
        <pt x="1454" y="1004" on="0"/>
        <pt x="1478" y="1004" on="1"/>
        <pt x="1504" y="1004" on="0"/>
        <pt x="1541" y="980" on="1"/>
        <pt x="1585" y="951" on="0"/>
      </contour>
      <contour>
        <pt x="1801" y="235" on="1"/>
        <pt x="1801" y="194" on="0"/>
        <pt x="1787" y="138" on="1"/>
        <pt x="1771" y="74" on="0"/>
        <pt x="1753" y="65" on="1"/>
        <pt x="1671" y="20" on="0"/>
        <pt x="1603" y="2" on="1"/>
        <pt x="1552" y="-10" on="0"/>
        <pt x="1412" y="-10" on="1"/>
        <pt x="1299" y="-10" on="0"/>
        <pt x="1299" y="57" on="1"/>
        <pt x="1299" y="84" on="0"/>
        <pt x="1322" y="152" on="1"/>
        <pt x="1344" y="152" on="0"/>
        <pt x="1436" y="143" on="0"/>
        <pt x="1448" y="143" on="1"/>
        <pt x="1630" y="143" on="0"/>
        <pt x="1708" y="220" on="1"/>
        <pt x="1685" y="287" on="0"/>
        <pt x="1676" y="304" on="1"/>
        <pt x="1647" y="360" on="0"/>
        <pt x="1599" y="386" on="1"/>
        <pt x="1561" y="406" on="0"/>
        <pt x="1488" y="451" on="1"/>
        <pt x="1473" y="462" on="0"/>
        <pt x="1473" y="501" on="1"/>
        <pt x="1473" y="529" on="0"/>
        <pt x="1487" y="560" on="1"/>
        <pt x="1504" y="594" on="0"/>
        <pt x="1524" y="594" on="1"/>
        <pt x="1535" y="594" on="0"/>
        <pt x="1668" y="501" on="1"/>
        <pt x="1733" y="455" on="0"/>
        <pt x="1770" y="370" on="1"/>
        <pt x="1801" y="300" on="0"/>
      </contour>
      <contour>
        <pt x="1657" y="-212" on="1"/>
        <pt x="1643" y="-247" on="0"/>
        <pt x="1638" y="-257" on="1"/>
        <pt x="1623" y="-284" on="0"/>
        <pt x="1603" y="-294" on="1"/>
        <pt x="1274" y="-461" on="0"/>
        <pt x="1221" y="-460" on="1"/>
        <pt x="1168" y="-460" on="1"/>
        <pt x="1155" y="-458" on="0"/>
        <pt x="1155" y="-434" on="1"/>
        <pt x="1155" y="-394" on="0"/>
        <pt x="1264" y="-343" on="1"/>
        <pt x="1324" y="-318" on="0"/>
        <pt x="1384" y="-294" on="1"/>
        <pt x="1577" y="-208" on="0"/>
        <pt x="1630" y="-208" on="1"/>
        <pt x="1645" y="-208" on="0"/>
      </contour>
      <contour>
        <pt x="1155" y="210" on="1"/>
        <pt x="1155" y="45" on="0"/>
        <pt x="883" y="-72" on="1"/>
        <pt x="674" y="-163" on="0"/>
        <pt x="542" y="-163" on="1"/>
        <pt x="412" y="-163" on="0"/>
        <pt x="294" y="-103" on="1"/>
        <pt x="142" y="-25" on="0"/>
        <pt x="142" y="112" on="1"/>
        <pt x="142" y="201" on="0"/>
        <pt x="202" y="305" on="1"/>
        <pt x="254" y="396" on="0"/>
        <pt x="321" y="451" on="1"/>
        <pt x="347" y="425" on="1"/>
        <pt x="307" y="353" on="0"/>
        <pt x="268" y="282" on="1"/>
        <pt x="244" y="238" on="0"/>
        <pt x="244" y="200" on="1"/>
        <pt x="244" y="96" on="0"/>
        <pt x="372" y="30" on="1"/>
        <pt x="472" y="-20" on="0"/>
        <pt x="562" y="-20" on="1"/>
        <pt x="659" y="-20" on="0"/>
        <pt x="978" y="103" on="0"/>
        <pt x="1013" y="156" on="1"/>
        <pt x="988" y="164" on="0"/>
        <pt x="813" y="199" on="1"/>
        <pt x="697" y="222" on="0"/>
        <pt x="678" y="251" on="1"/>
        <pt x="634" y="318" on="0"/>
        <pt x="634" y="338" on="1"/>
        <pt x="634" y="387" on="0"/>
        <pt x="701" y="506" on="1"/>
        <pt x="755" y="603" on="0"/>
        <pt x="781" y="633" on="1"/>
        <pt x="878" y="745" on="0"/>
        <pt x="942" y="794" on="1"/>
        <pt x="1004" y="840" on="0"/>
        <pt x="1043" y="840" on="1"/>
        <pt x="1073" y="840" on="0"/>
        <pt x="1110" y="799" on="1"/>
        <pt x="1146" y="761" on="0"/>
        <pt x="1146" y="742" on="1"/>
        <pt x="1146" y="702" on="0"/>
        <pt x="1100" y="635" on="1"/>
        <pt x="1028" y="686" on="0"/>
        <pt x="1002" y="686" on="1"/>
        <pt x="969" y="686" on="0"/>
        <pt x="850" y="559" on="1"/>
        <pt x="736" y="436" on="0"/>
        <pt x="736" y="419" on="1"/>
        <pt x="736" y="372" on="0"/>
        <pt x="826" y="336" on="1"/>
        <pt x="896" y="307" on="0"/>
        <pt x="936" y="307" on="1"/>
        <pt x="946" y="307" on="0"/>
        <pt x="989" y="317" on="0"/>
        <pt x="1002" y="317" on="1"/>
        <pt x="1155" y="317" on="0"/>
      </contour>
    </TTGlyph>
    <TTGlyph name="uniFB55" xMin="20" yMin="-656" xMax="2886" yMax="1791">
      <contour>
        <pt x="2886" y="1439" on="1"/>
        <pt x="2886" y="1368" on="0"/>
        <pt x="2802" y="1296" on="1"/>
        <pt x="2723" y="1229" on="0"/>
        <pt x="2661" y="1229" on="1"/>
        <pt x="2650" y="1229" on="0"/>
        <pt x="2592" y="1249" on="0"/>
        <pt x="2579" y="1249" on="1"/>
        <pt x="2567" y="1249" on="0"/>
        <pt x="2535" y="1219" on="1"/>
        <pt x="2499" y="1219" on="1"/>
        <pt x="2496" y="1239" on="0"/>
        <pt x="2515" y="1275" on="1"/>
        <pt x="2538" y="1317" on="0"/>
        <pt x="2572" y="1337" on="1"/>
        <pt x="2589" y="1340" on="0"/>
        <pt x="2623" y="1353" on="1"/>
        <pt x="2631" y="1358" on="0"/>
        <pt x="2705" y="1441" on="1"/>
        <pt x="2763" y="1505" on="0"/>
        <pt x="2809" y="1505" on="1"/>
        <pt x="2886" y="1505" on="0"/>
      </contour>
      <contour>
        <pt x="2723" y="174" on="1"/>
        <pt x="2723" y="137" on="0"/>
        <pt x="2678" y="93" on="1"/>
        <pt x="2639" y="97" on="0"/>
        <pt x="2632" y="167" on="1"/>
        <pt x="2629" y="219" on="0"/>
        <pt x="2627" y="270" on="1"/>
        <pt x="2619" y="328" on="0"/>
        <pt x="2586" y="609" on="1"/>
        <pt x="2578" y="679" on="0"/>
        <pt x="2551" y="845" on="1"/>
        <pt x="2528" y="992" on="0"/>
        <pt x="2528" y="1004" on="1"/>
        <pt x="2528" y="1027" on="0"/>
        <pt x="2548" y="1067" on="1"/>
        <pt x="2573" y="1119" on="0"/>
        <pt x="2608" y="1125" on="1"/>
      </contour>
      <contour>
        <pt x="1955" y="1346" on="1"/>
        <pt x="1955" y="1316" on="0"/>
        <pt x="1934" y="1274" on="1"/>
        <pt x="1908" y="1221" on="0"/>
        <pt x="1870" y="1201" on="1"/>
        <pt x="1784" y="1157" on="0"/>
        <pt x="1673" y="1157" on="1"/>
        <pt x="1643" y="1157" on="0"/>
        <pt x="1596" y="1198" on="0"/>
        <pt x="1596" y="1223" on="1"/>
        <pt x="1596" y="1243" on="0"/>
        <pt x="1617" y="1280" on="1"/>
        <pt x="1642" y="1324" on="0"/>
        <pt x="1666" y="1330" on="1"/>
        <pt x="1671" y="1305" on="0"/>
        <pt x="1696" y="1258" on="1"/>
        <pt x="1724" y="1256" on="0"/>
        <pt x="1751" y="1301" on="1"/>
        <pt x="1796" y="1376" on="0"/>
        <pt x="1802" y="1382" on="1"/>
        <pt x="1811" y="1369" on="0"/>
        <pt x="1811" y="1297" on="1"/>
        <pt x="1829" y="1280" on="0"/>
        <pt x="1842" y="1280" on="1"/>
        <pt x="1857" y="1280" on="0"/>
        <pt x="1862" y="1291" on="0"/>
        <pt x="1865" y="1291" on="1"/>
        <pt x="1881" y="1332" on="0"/>
        <pt x="1930" y="1402" on="1"/>
        <pt x="1955" y="1377" on="0"/>
      </contour>
      <contour>
        <pt x="1853" y="927" on="1"/>
        <pt x="1853" y="906" on="0"/>
        <pt x="1838" y="873" on="1"/>
        <pt x="1817" y="829" on="0"/>
        <pt x="1786" y="829" on="1"/>
        <pt x="1744" y="829" on="0"/>
        <pt x="1689" y="882" on="1"/>
        <pt x="1691" y="920" on="0"/>
        <pt x="1710" y="957" on="1"/>
        <pt x="1734" y="1004" on="0"/>
        <pt x="1766" y="1004" on="1"/>
        <pt x="1801" y="1004" on="0"/>
        <pt x="1828" y="978" on="1"/>
        <pt x="1853" y="954" on="0"/>
      </contour>
      <contour>
        <pt x="2365" y="251" on="1"/>
        <pt x="2351" y="158" on="0"/>
        <pt x="2337" y="66" on="1"/>
        <pt x="2306" y="-40" on="0"/>
        <pt x="2206" y="-40" on="1"/>
        <pt x="2060" y="-40" on="0"/>
        <pt x="1929" y="174" on="1"/>
        <pt x="1794" y="-20" on="0"/>
        <pt x="1520" y="-20" on="1"/>
        <pt x="1361" y="-20" on="0"/>
        <pt x="1361" y="77" on="1"/>
        <pt x="1361" y="109" on="0"/>
        <pt x="1404" y="174" on="1"/>
        <pt x="1398" y="174" on="0"/>
        <pt x="1470" y="146" on="1"/>
        <pt x="1503" y="133" on="0"/>
        <pt x="1576" y="133" on="1"/>
        <pt x="1664" y="133" on="0"/>
        <pt x="1763" y="171" on="1"/>
        <pt x="1894" y="223" on="0"/>
        <pt x="1894" y="307" on="1"/>
        <pt x="1894" y="316" on="0"/>
        <pt x="1832" y="626" on="0"/>
        <pt x="1832" y="640" on="1"/>
        <pt x="1832" y="687" on="0"/>
        <pt x="1878" y="758" on="1"/>
        <pt x="1907" y="705" on="0"/>
        <pt x="1947" y="519" on="1"/>
        <pt x="1987" y="328" on="0"/>
        <pt x="2027" y="250" on="1"/>
        <pt x="2092" y="123" on="0"/>
        <pt x="2206" y="123" on="1"/>
        <pt x="2245" y="123" on="0"/>
        <pt x="2283" y="159" on="1"/>
        <pt x="2251" y="389" on="0"/>
        <pt x="2166" y="885" on="1"/>
        <pt x="2162" y="905" on="0"/>
        <pt x="2129" y="964" on="1"/>
        <pt x="2098" y="1020" on="0"/>
        <pt x="2098" y="1034" on="1"/>
        <pt x="2098" y="1093" on="0"/>
        <pt x="2183" y="1217" on="1"/>
        <pt x="2219" y="1217" on="1"/>
        <pt x="2224" y="1180" on="0"/>
        <pt x="2233" y="1101" on="1"/>
        <pt x="2240" y="1059" on="0"/>
        <pt x="2289" y="1050" on="1"/>
        <pt x="2313" y="1035" on="0"/>
        <pt x="2313" y="1018" on="1"/>
        <pt x="2313" y="1005" on="0"/>
        <pt x="2292" y="952" on="1"/>
        <pt x="2267" y="892" on="0"/>
        <pt x="2262" y="870" on="1"/>
      </contour>
      <contour>
        <pt x="1043" y="1601" on="1"/>
        <pt x="1044" y="1523" on="0"/>
        <pt x="793" y="1434" on="1"/>
        <pt x="778" y="1446" on="0"/>
        <pt x="768" y="1446" on="1"/>
        <pt x="779" y="1487" on="0"/>
        <pt x="860" y="1556" on="1"/>
        <pt x="853" y="1566" on="0"/>
        <pt x="824" y="1566" on="1"/>
        <pt x="811" y="1566" on="0"/>
        <pt x="775" y="1552" on="1"/>
        <pt x="729" y="1532" on="0"/>
        <pt x="712" y="1527" on="1"/>
        <pt x="719" y="1561" on="0"/>
        <pt x="764" y="1616" on="1"/>
        <pt x="815" y="1679" on="0"/>
        <pt x="854" y="1679" on="1"/>
        <pt x="944" y="1679" on="0"/>
        <pt x="1043" y="1646" on="1"/>
      </contour>
      <contour>
        <pt x="1770" y="1734" on="1"/>
        <pt x="1771" y="1683" on="0"/>
        <pt x="1668" y="1623" on="1"/>
        <pt x="1600" y="1588" on="0"/>
        <pt x="1532" y="1553" on="1"/>
        <pt x="1504" y="1529" on="0"/>
        <pt x="1440" y="1488" on="1"/>
        <pt x="839" y="1190" on="0"/>
        <pt x="839" y="1059" on="1"/>
        <pt x="839" y="1035" on="0"/>
        <pt x="970" y="933" on="1"/>
        <pt x="1129" y="809" on="0"/>
        <pt x="1226" y="650" on="1"/>
        <pt x="1320" y="496" on="0"/>
        <pt x="1320" y="364" on="1"/>
        <pt x="1320" y="279" on="0"/>
        <pt x="1284" y="238" on="1"/>
        <pt x="1254" y="202" on="0"/>
        <pt x="1100" y="164" on="1"/>
        <pt x="972" y="133" on="0"/>
        <pt x="936" y="133" on="1"/>
        <pt x="924" y="133" on="0"/>
        <pt x="928" y="143" on="0"/>
        <pt x="915" y="143" on="1"/>
        <pt x="865" y="143" on="0"/>
        <pt x="834" y="-7" on="1"/>
        <pt x="826" y="-18" on="0"/>
        <pt x="810" y="-38" on="1"/>
        <pt x="770" y="-144" on="0"/>
        <pt x="666" y="-231" on="1"/>
        <pt x="569" y="-310" on="0"/>
        <pt x="466" y="-335" on="1"/>
        <pt x="412" y="-348" on="0"/>
        <pt x="358" y="-348" on="1"/>
        <pt x="394" y="-348" on="0"/>
        <pt x="86" y="-294" on="1"/>
        <pt x="59" y="-289" on="0"/>
        <pt x="20" y="-250" on="1"/>
        <pt x="42" y="-229" on="0"/>
        <pt x="90" y="-229" on="1"/>
        <pt x="117" y="-229" on="0"/>
        <pt x="219" y="-245" on="0"/>
        <pt x="235" y="-245" on="1"/>
        <pt x="333" y="-245" on="0"/>
        <pt x="412" y="-216" on="1"/>
        <pt x="466" y="-195" on="0"/>
        <pt x="575" y="-131" on="1"/>
        <pt x="631" y="-98" on="0"/>
        <pt x="716" y="8" on="1"/>
        <pt x="798" y="112" on="0"/>
        <pt x="798" y="143" on="1"/>
        <pt x="798" y="152" on="0"/>
        <pt x="767" y="191" on="1"/>
        <pt x="734" y="233" on="0"/>
        <pt x="729" y="250" on="1"/>
        <pt x="726" y="247" on="0"/>
        <pt x="726" y="271" on="1"/>
        <pt x="726" y="313" on="0"/>
        <pt x="761" y="348" on="1"/>
        <pt x="787" y="330" on="0"/>
        <pt x="834" y="310" on="1"/>
        <pt x="924" y="297" on="0"/>
        <pt x="962" y="297" on="1"/>
        <pt x="1146" y="297" on="0"/>
        <pt x="1228" y="374" on="1"/>
        <pt x="1238" y="430" on="0"/>
        <pt x="1155" y="553" on="1"/>
        <pt x="1073" y="673" on="0"/>
        <pt x="984" y="745" on="1"/>
        <pt x="978" y="749" on="0"/>
        <pt x="891" y="763" on="1"/>
        <pt x="812" y="777" on="0"/>
        <pt x="781" y="824" on="1"/>
        <pt x="747" y="875" on="0"/>
        <pt x="747" y="942" on="1"/>
        <pt x="747" y="1130" on="0"/>
        <pt x="917" y="1298" on="1"/>
        <pt x="1042" y="1420" on="0"/>
        <pt x="1210" y="1497" on="1"/>
        <pt x="1308" y="1559" on="0"/>
        <pt x="1507" y="1674" on="1"/>
        <pt x="1644" y="1746" on="0"/>
        <pt x="1723" y="1791" on="1"/>
        <pt x="1770" y="1791" on="1"/>
      </contour>
      <contour>
        <pt x="2006" y="-245" on="1"/>
        <pt x="2006" y="-297" on="0"/>
        <pt x="1962" y="-314" on="1"/>
        <pt x="1566" y="-470" on="0"/>
        <pt x="1559" y="-470" on="1"/>
        <pt x="1505" y="-470" on="1"/>
        <pt x="1523" y="-394" on="0"/>
        <pt x="1549" y="-383" on="1"/>
        <pt x="1754" y="-289" on="0"/>
        <pt x="1948" y="-215" on="1"/>
        <pt x="1983" y="-215" on="1"/>
        <pt x="1990" y="-220" on="0"/>
        <pt x="2006" y="-230" on="0"/>
      </contour>
      <contour>
        <pt x="879" y="-410" on="1"/>
        <pt x="860" y="-493" on="0"/>
        <pt x="825" y="-508" on="1"/>
        <pt x="501" y="-656" on="0"/>
        <pt x="453" y="-654" on="1"/>
        <pt x="400" y="-654" on="1"/>
        <pt x="407" y="-591" on="0"/>
        <pt x="486" y="-555" on="1"/>
        <pt x="546" y="-532" on="0"/>
        <pt x="606" y="-510" on="1"/>
        <pt x="653" y="-484" on="0"/>
        <pt x="833" y="-410" on="1"/>
      </contour>
      <contour>
        <pt x="2794" y="1401" on="1"/>
        <pt x="2757" y="1401" on="1"/>
        <pt x="2714" y="1362" on="0"/>
        <pt x="2714" y="1342" on="1"/>
        <pt x="2776" y="1362" on="0"/>
      </contour>
    </TTGlyph>
    <TTGlyph name="uniFB56" xMin="2" yMin="-574" xMax="2546" yMax="1785">
      <contour>
        <pt x="2404" y="1042" on="1"/>
        <pt x="2364" y="1018" on="1"/>
        <pt x="2364" y="1029" on="0"/>
        <pt x="2351" y="1055" on="1"/>
        <pt x="2332" y="1080" on="0"/>
        <pt x="2188" y="1203" on="0"/>
        <pt x="2172" y="1226" on="1"/>
        <pt x="2094" y="1335" on="0"/>
        <pt x="2087" y="1449" on="1"/>
        <pt x="2002" y="1431" on="0"/>
        <pt x="2002" y="1248" on="1"/>
        <pt x="2002" y="1160" on="0"/>
        <pt x="2022" y="1110" on="1"/>
        <pt x="1997" y="1131" on="0"/>
        <pt x="1971" y="1153" on="1"/>
        <pt x="1962" y="1201" on="0"/>
        <pt x="1962" y="1248" on="1"/>
        <pt x="1962" y="1351" on="0"/>
        <pt x="2046" y="1502" on="0"/>
        <pt x="2118" y="1523" on="1"/>
        <pt x="2121" y="1372" on="0"/>
        <pt x="2209" y="1254" on="1"/>
        <pt x="2226" y="1230" on="0"/>
        <pt x="2310" y="1158" on="1"/>
        <pt x="2383" y="1094" on="0"/>
        <pt x="2397" y="1063" on="1"/>
        <pt x="2404" y="1033" on="0"/>
      </contour>
      <contour>
        <pt x="2181" y="576" on="1"/>
        <pt x="2181" y="202" on="0"/>
        <pt x="1649" y="-330" on="0"/>
        <pt x="1274" y="-330" on="1"/>
        <pt x="900" y="-330" on="0"/>
        <pt x="367" y="202" on="0"/>
        <pt x="367" y="576" on="1"/>
        <pt x="367" y="939" on="0"/>
        <pt x="623" y="1202" on="1"/>
        <pt x="838" y="1423" on="0"/>
        <pt x="1086" y="1461" on="1"/>
        <pt x="1139" y="1469" on="0"/>
        <pt x="1182" y="1505" on="1"/>
        <pt x="1232" y="1547" on="0"/>
        <pt x="1232" y="1602" on="1"/>
        <pt x="1232" y="1662" on="0"/>
        <pt x="1146" y="1748" on="0"/>
        <pt x="1086" y="1748" on="1"/>
        <pt x="1027" y="1748" on="0"/>
        <pt x="938" y="1662" on="0"/>
        <pt x="938" y="1602" on="1"/>
        <pt x="938" y="1534" on="0"/>
        <pt x="994" y="1488" on="1"/>
        <pt x="882" y="1475" on="0"/>
        <pt x="745" y="1418" on="1"/>
        <pt x="652" y="1380" on="0"/>
        <pt x="584" y="1315" on="1"/>
        <pt x="539" y="1321" on="1"/>
        <pt x="602" y="1394" on="0"/>
        <pt x="739" y="1457" on="1"/>
        <pt x="806" y="1487" on="0"/>
        <pt x="931" y="1512" on="1"/>
        <pt x="901" y="1556" on="0"/>
        <pt x="901" y="1614" on="1"/>
        <pt x="901" y="1688" on="0"/>
        <pt x="960" y="1738" on="1"/>
        <pt x="1015" y="1785" on="0"/>
        <pt x="1086" y="1785" on="1"/>
        <pt x="1160" y="1785" on="0"/>
        <pt x="1216" y="1736" on="1"/>
        <pt x="1274" y="1684" on="0"/>
        <pt x="1274" y="1610" on="1"/>
        <pt x="1274" y="1531" on="0"/>
        <pt x="1214" y="1479" on="1"/>
        <pt x="1236" y="1481" on="0"/>
        <pt x="1274" y="1481" on="1"/>
        <pt x="1314" y="1481" on="0"/>
        <pt x="1335" y="1479" on="1"/>
        <pt x="1274" y="1531" on="0"/>
        <pt x="1274" y="1610" on="1"/>
        <pt x="1274" y="1684" on="0"/>
        <pt x="1332" y="1736" on="1"/>
        <pt x="1387" y="1785" on="0"/>
        <pt x="1462" y="1785" on="1"/>
        <pt x="1534" y="1785" on="0"/>
        <pt x="1589" y="1738" on="1"/>
        <pt x="1649" y="1689" on="0"/>
        <pt x="1649" y="1614" on="1"/>
        <pt x="1649" y="1556" on="0"/>
        <pt x="1619" y="1512" on="1"/>
        <pt x="1740" y="1488" on="0"/>
        <pt x="1808" y="1457" on="1"/>
        <pt x="1944" y="1396" on="0"/>
        <pt x="2010" y="1321" on="1"/>
        <pt x="1966" y="1315" on="1"/>
        <pt x="1892" y="1382" on="0"/>
        <pt x="1803" y="1418" on="1"/>
        <pt x="1663" y="1476" on="0"/>
        <pt x="1554" y="1488" on="1"/>
        <pt x="1608" y="1532" on="0"/>
        <pt x="1608" y="1602" on="1"/>
        <pt x="1608" y="1662" on="0"/>
        <pt x="1522" y="1748" on="0"/>
        <pt x="1462" y="1748" on="1"/>
        <pt x="1403" y="1748" on="0"/>
        <pt x="1317" y="1662" on="0"/>
        <pt x="1317" y="1602" on="1"/>
        <pt x="1317" y="1547" on="0"/>
        <pt x="1367" y="1505" on="1"/>
        <pt x="1409" y="1469" on="0"/>
        <pt x="1462" y="1461" on="1"/>
        <pt x="1712" y="1423" on="0"/>
        <pt x="1926" y="1202" on="1"/>
        <pt x="2181" y="940" on="0"/>
      </contour>
      <contour>
        <pt x="580" y="1153" on="1"/>
        <pt x="524" y="1105" on="0"/>
        <pt x="525" y="1110" on="1"/>
        <pt x="546" y="1161" on="0"/>
        <pt x="546" y="1249" on="1"/>
        <pt x="546" y="1431" on="0"/>
        <pt x="463" y="1449" on="1"/>
        <pt x="456" y="1333" on="0"/>
        <pt x="378" y="1226" on="1"/>
        <pt x="362" y="1203" on="0"/>
        <pt x="217" y="1081" on="0"/>
        <pt x="198" y="1055" on="1"/>
        <pt x="185" y="1029" on="0"/>
        <pt x="185" y="1018" on="1"/>
        <pt x="146" y="1042" on="1"/>
        <pt x="146" y="1053" on="0"/>
        <pt x="154" y="1063" on="1"/>
        <pt x="167" y="1094" on="0"/>
        <pt x="240" y="1158" on="1"/>
        <pt x="324" y="1230" on="0"/>
        <pt x="341" y="1254" on="1"/>
        <pt x="426" y="1368" on="0"/>
        <pt x="432" y="1523" on="1"/>
        <pt x="503" y="1502" on="0"/>
        <pt x="589" y="1350" on="0"/>
        <pt x="589" y="1247" on="1"/>
        <pt x="589" y="1200" on="0"/>
      </contour>
      <contour>
        <pt x="2546" y="1105" on="1"/>
        <pt x="2478" y="1004" on="0"/>
        <pt x="2485" y="819" on="1"/>
        <pt x="2487" y="784" on="0"/>
        <pt x="2532" y="637" on="0"/>
        <pt x="2533" y="605" on="1"/>
        <pt x="2535" y="569" on="0"/>
        <pt x="2472" y="496" on="0"/>
        <pt x="2439" y="496" on="1"/>
        <pt x="2391" y="496" on="0"/>
        <pt x="2369" y="520" on="1"/>
        <pt x="2369" y="67" on="0"/>
        <pt x="1729" y="-574" on="0"/>
        <pt x="1274" y="-574" on="1"/>
        <pt x="820" y="-574" on="0"/>
        <pt x="179" y="67" on="0"/>
        <pt x="179" y="520" on="1"/>
        <pt x="158" y="496" on="0"/>
        <pt x="111" y="496" on="1"/>
        <pt x="78" y="496" on="0"/>
        <pt x="13" y="569" on="0"/>
        <pt x="15" y="605" on="1"/>
        <pt x="17" y="637" on="0"/>
        <pt x="62" y="785" on="0"/>
        <pt x="63" y="819" on="1"/>
        <pt x="71" y="1004" on="0"/>
        <pt x="2" y="1105" on="1"/>
        <pt x="202" y="1092" on="0"/>
        <pt x="263" y="945" on="1"/>
        <pt x="258" y="822" on="1"/>
        <pt x="253" y="895" on="0"/>
        <pt x="209" y="962" on="1"/>
        <pt x="154" y="1046" on="0"/>
        <pt x="67" y="1049" on="1"/>
        <pt x="105" y="992" on="0"/>
        <pt x="105" y="819" on="1"/>
        <pt x="105" y="787" on="0"/>
        <pt x="85" y="718" on="1"/>
        <pt x="63" y="646" on="0"/>
        <pt x="61" y="618" on="1"/>
        <pt x="58" y="542" on="0"/>
        <pt x="131" y="542" on="1"/>
        <pt x="170" y="542" on="0"/>
        <pt x="204" y="594" on="1"/>
        <pt x="214" y="609" on="0"/>
        <pt x="226" y="623" on="1"/>
        <pt x="220" y="561" on="0"/>
        <pt x="220" y="520" on="1"/>
        <pt x="220" y="91" on="0"/>
        <pt x="842" y="-521" on="0"/>
        <pt x="1274" y="-521" on="1"/>
        <pt x="1707" y="-521" on="0"/>
        <pt x="2330" y="91" on="0"/>
        <pt x="2330" y="520" on="1"/>
        <pt x="2330" y="561" on="0"/>
        <pt x="2324" y="623" on="1"/>
        <pt x="2336" y="609" on="0"/>
        <pt x="2347" y="595" on="1"/>
        <pt x="2380" y="542" on="0"/>
        <pt x="2417" y="542" on="1"/>
        <pt x="2493" y="542" on="0"/>
        <pt x="2489" y="618" on="1"/>
        <pt x="2487" y="646" on="0"/>
        <pt x="2465" y="718" on="1"/>
        <pt x="2442" y="787" on="0"/>
        <pt x="2442" y="819" on="1"/>
        <pt x="2442" y="990" on="0"/>
        <pt x="2483" y="1049" on="1"/>
        <pt x="2397" y="1046" on="0"/>
        <pt x="2340" y="962" on="1"/>
        <pt x="2295" y="895" on="0"/>
        <pt x="2290" y="822" on="1"/>
        <pt x="2288" y="945" on="1"/>
        <pt x="2348" y="1092" on="0"/>
      </contour>
      <contour>
        <pt x="2135" y="576" on="1"/>
        <pt x="2135" y="930" on="0"/>
        <pt x="1895" y="1173" on="1"/>
        <pt x="1708" y="1362" on="0"/>
        <pt x="1466" y="1418" on="1"/>
        <pt x="1386" y="1437" on="0"/>
        <pt x="1274" y="1437" on="1"/>
        <pt x="1164" y="1437" on="0"/>
        <pt x="1084" y="1418" on="1"/>
        <pt x="841" y="1362" on="0"/>
        <pt x="654" y="1173" on="1"/>
        <pt x="415" y="931" on="0"/>
        <pt x="415" y="576" on="1"/>
        <pt x="415" y="218" on="0"/>
        <pt x="916" y="-285" on="0"/>
        <pt x="1274" y="-285" on="1"/>
        <pt x="1633" y="-285" on="0"/>
        <pt x="2135" y="218" on="0"/>
      </contour>
      <contour>
        <pt x="1401" y="312" on="1"/>
        <pt x="1401" y="315" on="0"/>
        <pt x="1369" y="185" on="1"/>
        <pt x="1332" y="185" on="1"/>
        <pt x="1303" y="295" on="0"/>
        <pt x="1234" y="515" on="1"/>
        <pt x="1230" y="528" on="0"/>
        <pt x="1189" y="605" on="1"/>
        <pt x="1156" y="670" on="0"/>
        <pt x="1156" y="691" on="1"/>
        <pt x="1156" y="733" on="0"/>
        <pt x="1200" y="798" on="1"/>
        <pt x="1250" y="783" on="0"/>
        <pt x="1327" y="584" on="1"/>
        <pt x="1401" y="394" on="0"/>
      </contour>
    </TTGlyph>
    <TTGlyph name="uniFB57" xMin="97" yMin="-815" xMax="1285" yMax="1426">
      <contour>
        <pt x="1284" y="1380" on="1"/>
        <pt x="1285" y="1357" on="0"/>
        <pt x="1124" y="1253" on="1"/>
        <pt x="961" y="1147" on="0"/>
        <pt x="879" y="1121" on="1"/>
        <pt x="865" y="1121" on="0"/>
        <pt x="865" y="1145" on="1"/>
        <pt x="865" y="1182" on="0"/>
        <pt x="1051" y="1304" on="1"/>
        <pt x="1149" y="1365" on="0"/>
        <pt x="1248" y="1426" on="1"/>
        <pt x="1284" y="1426" on="1"/>
      </contour>
      <contour>
        <pt x="1203" y="152" on="1"/>
        <pt x="1203" y="-16" on="0"/>
        <pt x="1009" y="-16" on="1"/>
        <pt x="987" y="-16" on="0"/>
        <pt x="832" y="35" on="1"/>
        <pt x="835" y="-31" on="0"/>
        <pt x="820" y="-166" on="1"/>
        <pt x="784" y="-299" on="0"/>
        <pt x="670" y="-371" on="1"/>
        <pt x="568" y="-436" on="0"/>
        <pt x="440" y="-436" on="1"/>
        <pt x="321" y="-436" on="0"/>
        <pt x="223" y="-379" on="1"/>
        <pt x="97" y="-307" on="0"/>
        <pt x="97" y="-175" on="1"/>
        <pt x="97" y="-97" on="0"/>
        <pt x="153" y="27" on="1"/>
        <pt x="200" y="133" on="0"/>
        <pt x="234" y="167" on="1"/>
        <pt x="271" y="167" on="0"/>
        <pt x="271" y="143" on="1"/>
        <pt x="271" y="138" on="0"/>
        <pt x="232" y="68" on="1"/>
        <pt x="190" y="-8" on="0"/>
        <pt x="190" y="-77" on="1"/>
        <pt x="190" y="-188" on="0"/>
        <pt x="292" y="-244" on="1"/>
        <pt x="364" y="-282" on="0"/>
        <pt x="445" y="-282" on="1"/>
        <pt x="649" y="-282" on="0"/>
        <pt x="739" y="-162" on="1"/>
        <pt x="752" y="-144" on="0"/>
        <pt x="752" y="-108" on="1"/>
        <pt x="620" y="827" on="1"/>
        <pt x="605" y="899" on="0"/>
        <pt x="663" y="976" on="1"/>
        <pt x="683" y="976" on="0"/>
        <pt x="697" y="953" on="1"/>
        <pt x="698" y="949" on="0"/>
        <pt x="745" y="605" on="1"/>
        <pt x="777" y="374" on="0"/>
        <pt x="826" y="267" on="1"/>
        <pt x="882" y="147" on="0"/>
        <pt x="1019" y="147" on="1"/>
        <pt x="1066" y="147" on="0"/>
        <pt x="1101" y="174" on="1"/>
        <pt x="1091" y="199" on="0"/>
        <pt x="1047" y="257" on="1"/>
        <pt x="1009" y="308" on="0"/>
        <pt x="1009" y="321" on="1"/>
        <pt x="1009" y="342" on="0"/>
        <pt x="1039" y="403" on="0"/>
        <pt x="1055" y="403" on="1"/>
        <pt x="1073" y="403" on="0"/>
        <pt x="1116" y="373" on="1"/>
        <pt x="1163" y="339" on="0"/>
        <pt x="1178" y="308" on="1"/>
        <pt x="1203" y="259" on="0"/>
      </contour>
      <contour>
        <pt x="1162" y="-287" on="1"/>
        <pt x="1162" y="-307" on="0"/>
        <pt x="1094" y="-385" on="0"/>
        <pt x="1075" y="-385" on="1"/>
        <pt x="1047" y="-385" on="0"/>
        <pt x="1011" y="-350" on="1"/>
        <pt x="978" y="-319" on="0"/>
        <pt x="978" y="-303" on="1"/>
        <pt x="978" y="-277" on="0"/>
        <pt x="1043" y="-211" on="0"/>
        <pt x="1065" y="-211" on="1"/>
        <pt x="1085" y="-211" on="0"/>
        <pt x="1162" y="-269" on="0"/>
      </contour>
      <contour>
        <pt x="793" y="-597" on="1"/>
        <pt x="787" y="-608" on="0"/>
        <pt x="770" y="-627" on="1"/>
        <pt x="731" y="-647" on="0"/>
        <pt x="369" y="-815" on="1"/>
        <pt x="354" y="-803" on="0"/>
        <pt x="344" y="-803" on="1"/>
        <pt x="344" y="-760" on="1"/>
        <pt x="344" y="-736" on="0"/>
        <pt x="516" y="-652" on="1"/>
        <pt x="631" y="-595" on="0"/>
        <pt x="746" y="-539" on="1"/>
        <pt x="793" y="-539" on="1"/>
      </contour>
    </TTGlyph>
</ttFont>
